<svg xmlns="http://www.w3.org/2000/svg" xmlns:xlink="http://www.w3.org/1999/xlink" xmlns:lucid="lucid" width="2274" height="2031.14"><g transform="translate(60 -28.86419282365398)" lucid:page-tab-id="0_0"><path d="M-1806.4 0h5483.2v2582.4h-5483.2z" fill="#fff"/><path d="M220 498.4h560v1360H220z" stroke="#000" stroke-width="2" fill="#fff"/><path d="M770 508.4h-15v20h15z" stroke="#000" fill="#fff"/><path d="M760 511.73h-10v3.34h10zm0 10h-10v3.34h10z" stroke="#000" fill="#fff"/><use xlink:href="#a" transform="matrix(1,0,0,1,220,498.4000000000001) translate(196.105 19.41)"/><use xlink:href="#b" transform="matrix(1,0,0,1,220,498.4000000000001) translate(261.005 19.41)"/><path d="M1141.94 1073.58H1724v190.36h-582.06z" stroke="#000" stroke-width="2" fill="#fff"/><path d="M1714 1083.58h-15v20h15z" stroke="#000" fill="#fff"/><path d="M1704 1086.9h-10v3.34h10zm0 10h-10v3.34h10z" stroke="#000" fill="#fff"/><use xlink:href="#c" transform="matrix(1,0,0,1,1141.9379539682523,1073.5782778190164) translate(206.53 97.9625)"/><use xlink:href="#d" transform="matrix(1,0,0,1,1141.9379539682523,1073.5782778190164) translate(253.53 97.9625)"/><use xlink:href="#e" transform="matrix(1,0,0,1,1141.9379539682523,1073.5782778190164) translate(278.53 97.9625)"/><path d="M868 1580.43h240v60H868z" fill="none"/><use xlink:href="#f" transform="matrix(1,0,0,1,868,1580.4301966703597) translate(87.525 22.799999999999997)"/><use xlink:href="#g" transform="matrix(1,0,0,1,868,1580.4301966703597) translate(87.5 44.4)"/><path d="M860 671.14h240v60H860z" fill="none"/><use xlink:href="#f" transform="matrix(1,0,0,1,860,671.135807176346) translate(87.525 22.799999999999997)"/><use xlink:href="#h" transform="matrix(1,0,0,1,860,671.135807176346) translate(97.05 44.4)"/><path d="M270 1263.94h240v60H270z" fill="none"/><use xlink:href="#i" transform="matrix(1,0,0,1,270,1263.9379539682525) translate(69.07499999999999 33.6)"/><path d="M-40 1590.43h240v60H-40z" fill="none"/><use xlink:href="#i" transform="matrix(1,0,0,1,-40,1590.4301966703597) translate(69.07499999999999 33.6)"/><path d="M-40 658.4h240v60H-40z" fill="none"/><use xlink:href="#j" transform="matrix(1,0,0,1,-40,658.4000000000001) translate(56.074999999999996 33.6)"/><path d="M1695.94 1940.83h240v60h-240z" fill="none"/><path d="M110 738.4h-10m-40 0c0-11.05 8.95-20 20-20s20 8.95 20 20-8.95 20-20 20-20-8.95-20-20z" stroke="#000" stroke-width="2" fill="#fff"/><path d="M110 739.2h-10v-1.6h10z" fill="none"/><path d="M200 718.4h40v40h-40z" stroke="#000" stroke-width="2" fill="#fff"/><path d="M111 738.4h87" stroke="#000" stroke-width="2" fill="none"/><path d="M111.03 739.4H110v-2h1.03zM199 739.4h-1.03v-2H199z"/><path d="M370 678.4h210v120H370z" stroke="#000" stroke-width="2" fill="#fff"/><path d="M570 688.4h-15v20h15z" stroke="#000" fill="#fff"/><path d="M560 691.73h-10v3.34h10zm0 10h-10v3.34h10z" stroke="#000" fill="#fff"/><use xlink:href="#k" transform="matrix(1,0,0,1,370,678.4000000000001) translate(45.07999999999999 63.15)"/><use xlink:href="#l" transform="matrix(1,0,0,1,370,678.4000000000001) translate(131.03 63.15)"/><path d="M270 738.4h10m40 0c0 11.05-8.95 20-20 20s-20-8.95-20-20 8.95-20 20-20 20 8.95 20 20z" stroke="#000" stroke-width="2" fill="#fff"/><path d="M270 737.6h10v1.6h-10z" fill="none"/><path d="M350 718.4h40v40h-40z" stroke="#000" stroke-width="2" fill="#fff"/><path d="M269 738.4h-27" stroke="#000" stroke-width="2" fill="none"/><path d="M270 739.4h-1.03v-2H270zM242.03 739.4H241v-2h1.03z"/><path d="M322 738.4h26" stroke="#000" stroke-width="2" fill="none"/><path d="M322.03 739.4h-1.15l.12-.96-.03-1.04h1.06zM349 739.4h-1.03v-2H349z"/><path d="M110 1670.43h-10m-40 0c0-11.05 8.95-20 20-20s20 8.95 20 20-8.95 20-20 20-20-8.95-20-20z" stroke="#000" stroke-width="2" fill="#fff"/><path d="M110 1671.23h-10v-1.6h10z" fill="none"/><path d="M200 1650.43h40v40h-40z" stroke="#000" stroke-width="2" fill="#fff"/><path d="M111 1670.43h87" stroke="#000" stroke-width="2" fill="none"/><path d="M111.03 1671.43H110v-2h1.03zM199 1671.43h-1.03v-2H199z"/><path d="M370 1610.43h210v120H370z" stroke="#000" stroke-width="2" fill="#fff"/><path d="M570 1620.43h-15v20h15z" stroke="#000" fill="#fff"/><path d="M560 1623.76h-10v3.34h10zm0 10h-10v3.34h10z" stroke="#000" fill="#fff"/><use xlink:href="#m" transform="matrix(1,0,0,1,370,1610.4301966703597) translate(41.07999999999999 63.15)"/><path d="M270 1670.43h10m40 0c0 11.05-8.95 20-20 20s-20-8.95-20-20 8.95-20 20-20 20 8.95 20 20z" stroke="#000" stroke-width="2" fill="#fff"/><path d="M270 1669.63h10v1.6h-10z" fill="none"/><path d="M350 1650.43h40v40h-40z" stroke="#000" stroke-width="2" fill="#fff"/><path d="M269 1670.43h-27" stroke="#000" stroke-width="2" fill="none"/><path d="M270 1671.43h-1.03v-2H270zM242.03 1671.43H241v-2h1.03z"/><path d="M322 1670.43h26" stroke="#000" stroke-width="2" fill="none"/><path d="M322.03 1671.43h-1.15l.12-.96-.03-1.04h1.06zM349 1671.43h-1.03v-2H349z"/><path d="M465 1294.83v-11M465 1249.83v-5" stroke="#000" stroke-width="2" fill="none"/><path d="M451 1269.83c0-7.73 6.27-14 14-14s14 6.27 14 14-6.27 14-14 14-14-6.27-14-14z" stroke="#000" stroke-width="2" fill="#fff"/><path d="M485 1269.83c0-11.05-8.95-20-20-20s-20 8.95-20 20" stroke="#000" stroke-width="2" fill="none"/><path d="M464.2 1294.83v-11h1.6v11z" fill="none"/><path d="M445 778.4h40v40h-40zM445 1590.43h40v40h-40z" stroke="#000" stroke-width="2" fill="#fff"/><path d="M465 1295.83v292.6" stroke="#000" stroke-width="2" fill="none"/><path d="M464 1294.83h2v1.03h-2v-4.03zM466 1589.43h-2v-1.03h2z"/><path d="M465 1243.83V820.4" stroke="#000" stroke-width="2" fill="none"/><path d="M466 1244.83h-2v3-4.03h2zM466 820.43h-2v-1.03h2z"/><path d="M1144 48.86h580V960h-580z" stroke="#000" stroke-width="2" fill="#fff"/><path d="M1714 58.86h-15v20h15z" stroke="#000" fill="#fff"/><path d="M1704 62.2h-10v3.33h10zm0 10h-10v3.33h10z" stroke="#000" fill="#fff"/><use xlink:href="#n" transform="matrix(1,0,0,1,1144.0077894983815,48.86419282365398) translate(224.88 19.41)"/><path d="M1303 260h240v120h-240z" stroke="#000" stroke-width="2" fill="#fff"/><path d="M1533 270h-15v20h15z" stroke="#000" fill="#fff"/><path d="M1523 273.33h-10v3.34h10zm0 10h-10v3.34h10z" stroke="#000" fill="#fff"/><use xlink:href="#o" transform="matrix(1,0,0,1,1303,260) translate(61.60499999999999 63.15)"/><use xlink:href="#p" transform="matrix(1,0,0,1,1303,260) translate(132.505 63.15)"/><path d="M1141.94 1320h580v720h-580z" stroke="#000" stroke-width="2" fill="#fff"/><path d="M1711.94 1330h-15v20h15z" stroke="#000" fill="#fff"/><path d="M1701.94 1333.33h-10v3.34h10zm0 10h-10v3.34h10z" stroke="#000" fill="#fff"/><use xlink:href="#q" transform="matrix(1,0,0,1,1141.9379539682523,1320) translate(230.52999999999997 19.41)"/><g fill="none"><path d="M650 748.4h-10m30 20c-11.05 0-20-8.95-20-20s8.95-20 20-20" stroke="#000" stroke-width="2"/><path d="M670 768.4c-11.05 0-20-8.95-20-20s8.95-20 20-20zM650 749.2h-10v-1.6h10z"/></g><path d="M560 728.4h40v40h-40z" stroke="#000" stroke-width="2" fill="#fff"/><path d="M639 748.4h-37" stroke="#000" stroke-width="2" fill="none"/><path d="M640 749.4h-1.03v-2H640zM602.03 749.4H601v-2h1.03z"/><path d="M760 728.4h40v40h-40z" stroke="#000" stroke-width="2" fill="#fff"/><path d="M758 748.4H652" stroke="#000" stroke-width="2" fill="none"/><path d="M759 749.4h-1.03v-2H759z"/><path d="M652.03 748.4H648" stroke="#000" stroke-width="2" fill="none"/><g fill="none"><path d="M870 748.4h-10m30 20c-11.05 0-20-8.95-20-20s8.95-20 20-20" stroke="#000" stroke-width="2"/><path d="M890 768.4c-11.05 0-20-8.95-20-20s8.95-20 20-20zM870 749.2h-10v-1.6h10z"/></g><path d="M859 748.4h-57" stroke="#000" stroke-width="2" fill="none"/><path d="M860 749.4h-1.03v-2H860zM802.03 749.4H801v-2h1.03z"/><path d="M1287.94 1370.43h240v120h-240z" stroke="#000" stroke-width="2" fill="#fff"/><path d="M1517.94 1380.43h-15v20h15z" stroke="#000" fill="#fff"/><path d="M1507.94 1383.76h-10v3.34h10zm0 10h-10v3.34h10z" stroke="#000" fill="#fff"/><use xlink:href="#r" transform="matrix(1,0,0,1,1287.9379539682525,1370.4301966703597) translate(82.55499999999999 63.15)"/><g fill="none"><path d="M650 1670.43h-10m30 20c-11.05 0-20-8.95-20-20s8.95-20 20-20" stroke="#000" stroke-width="2"/><path d="M670 1690.43c-11.05 0-20-8.95-20-20s8.95-20 20-20zM650 1671.23h-10v-1.6h10z"/></g><path d="M560 1650.43h40v40h-40z" stroke="#000" stroke-width="2" fill="#fff"/><path d="M639 1670.43h-37" stroke="#000" stroke-width="2" fill="none"/><path d="M640 1671.43h-1.03v-2H640zM602.03 1671.43H601v-2h1.03z"/><path d="M760 1650.43h40v40h-40z" stroke="#000" stroke-width="2" fill="#fff"/><path d="M758 1670.43H652" stroke="#000" stroke-width="2" fill="none"/><path d="M759 1671.43h-1.03v-2H759z"/><path d="M652.03 1670.43H648" stroke="#000" stroke-width="2" fill="none"/><g fill="none"><path d="M870 1670.43h-10m30 20c-11.05 0-20-8.95-20-20s8.95-20 20-20" stroke="#000" stroke-width="2"/><path d="M890 1690.43c-11.05 0-20-8.95-20-20s8.95-20 20-20zM870 1671.23h-10v-1.6h10z"/></g><path d="M859 1670.43h-57" stroke="#000" stroke-width="2" fill="none"/><path d="M860 1671.43h-1.03v-2H860zM802.03 1671.43H801v-2h1.03z"/><path d="M1123 1650.43h40v40h-40z" stroke="#000" stroke-width="2" fill="#fff"/><path d="M876.06 1670.43h4.26m8.5 0h8.52m8.5 0h8.53m8.5 0h8.52m8.5 0h8.5m8.53 0h4.25M876.1 1670.43h-4.04M943.82 1680.6l17.22-10.17-17.22-10.18" stroke="#000" stroke-width="2" fill="none"/><path d="M1287.94 1610.43h240v120h-240z" stroke="#000" stroke-width="2" fill="#fff"/><path d="M1517.94 1620.43h-15v20h15z" stroke="#000" fill="#fff"/><path d="M1507.94 1623.76h-10v3.34h10zm0 10h-10v3.34h10z" stroke="#000" fill="#fff"/><use xlink:href="#s" transform="matrix(1,0,0,1,1287.9379539682525,1610.4301966703597) translate(74.08 63.15)"/><path d="M1198.06 1533.63h10m40 0c0 11.05-8.95 20-20 20-11.04 0-20-8.95-20-20s8.96-20 20-20c11.05 0 20 8.95 20 20z" stroke="#000" stroke-width="2" fill="#fff"/><path d="M1198.06 1532.83h10v1.6h-10z" fill="none"/><path d="M1267.94 1420.43h40v40h-40z" stroke="#000" stroke-width="2" fill="#fff"/><path d="M1250.06 1533.63h7.94v-93.2h7.94" stroke="#000" stroke-width="2" fill="none"/><path d="M1250.1 1534.63h-1.16l.12-.96-.03-1.04h1.06zM1266.94 1441.43h-1.03v-2h1.04z"/><path d="M1196.94 1670.43h10m40 0c0 11.05-8.96 20-20 20-11.05 0-20-8.95-20-20s8.95-20 20-20c11.04 0 20 8.95 20 20z" stroke="#000" stroke-width="2" fill="#fff"/><path d="M1196.94 1669.63h10v1.6h-10z" fill="none"/><path d="M1267.94 1650.43h40v40h-40z" stroke="#000" stroke-width="2" fill="#fff"/><path d="M1195.94 1670.43H1165" stroke="#000" stroke-width="2" fill="none"/><path d="M1196.94 1671.43h-1.03v-2h1.04zM1165.03 1671.43H1164v-2h1.03z"/><path d="M1248.94 1670.43h17" stroke="#000" stroke-width="2" fill="none"/><path d="M1248.96 1671.43h-1.14l.12-.96-.04-1.04h1.06zM1266.94 1671.43h-1.03v-2h1.04z"/><g fill="none"><path d="M1597.94 1440.43h-10m30 20c-11.05 0-20-8.95-20-20s8.95-20 20-20" stroke="#000" stroke-width="2"/><path d="M1617.94 1460.43c-11.05 0-20-8.95-20-20s8.95-20 20-20zM1597.94 1441.23h-10v-1.6h10z"/></g><path d="M1507.94 1420.43h40v40h-40z" stroke="#000" stroke-width="2" fill="#fff"/><path d="M1586.94 1440.43h-37" stroke="#000" stroke-width="2" fill="none"/><path d="M1587.94 1441.43h-1.03v-2h1.04zM1549.96 1441.43h-1.02v-2h1.02z"/><path d="M1703 1420.43h40v40h-40z" stroke="#000" stroke-width="2" fill="#fff"/><path d="M1701 1440.43H1599.95" stroke="#000" stroke-width="2" fill="none"/><path d="M1702 1441.43h-1.03v-2h1.03z"/><path d="M1599.97 1440.43h-4.02" stroke="#000" stroke-width="2" fill="none"/><g fill="none"><path d="M1613 330h-10m30 20c-11.05 0-20-8.95-20-20s8.95-20 20-20" stroke="#000" stroke-width="2"/><path d="M1633 350c-11.05 0-20-8.95-20-20s8.95-20 20-20zM1613 330.8h-10v-1.6h10z"/></g><path d="M1523 310h40v40h-40z" stroke="#000" stroke-width="2" fill="#fff"/><path d="M1602 330h-37" stroke="#000" stroke-width="2" fill="none"/><path d="M1603 331h-1.03v-2h1.03zM1565.03 331H1564v-2h1.03z"/><g fill="none"><path d="M1816.94 1440.43h-10m30 20c-11.05 0-20-8.95-20-20s8.95-20 20-20" stroke="#000" stroke-width="2"/><path d="M1836.94 1460.43c-11.05 0-20-8.95-20-20s8.95-20 20-20zM1816.94 1441.23h-10v-1.6h10z"/></g><path d="M1805.94 1440.43H1745" stroke="#000" stroke-width="2" fill="none"/><path d="M1806.94 1441.43h-1.03v-2h1.04zM1745.03 1441.43H1744v-2h1.03z"/><path d="M1287.94 1812.03h240v120h-240z" stroke="#000" stroke-width="2" fill="#fff"/><path d="M1517.94 1822.03h-15v20h15z" stroke="#000" fill="#fff"/><path d="M1507.94 1825.36h-10v3.34h10zm0 10h-10v3.34h10z" stroke="#000" fill="#fff"/><use xlink:href="#t" transform="matrix(1,0,0,1,1287.9379539682525,1812.0301966703596) translate(65.13 63.15)"/><use xlink:href="#u" transform="matrix(1,0,0,1,1287.9379539682525,1812.0301966703596) translate(139.93 63.15)"/><path d="M1165 1649.43h16.03v-115.8h16.03" stroke="#000" stroke-width="2" fill="none"/><path d="M1165.03 1650.43H1164v-1h-3v-1h4.03zM1198.06 1534.63h-1.02v-2h1.02z"/><g fill="none"><path d="M1597.94 1670.43h-10m30 20c-11.05 0-20-8.95-20-20s8.95-20 20-20" stroke="#000" stroke-width="2"/><path d="M1617.94 1690.43c-11.05 0-20-8.95-20-20s8.95-20 20-20zM1597.94 1671.23h-10v-1.6h10z"/></g><path d="M1507.94 1650.43h40v40h-40z" stroke="#000" stroke-width="2" fill="#fff"/><path d="M1586.94 1670.43h-37" stroke="#000" stroke-width="2" fill="none"/><path d="M1587.94 1671.43h-1.03v-2h1.04zM1549.96 1671.43h-1.02v-2h1.02z"/><path d="M1703 1650.43h40v40h-40z" stroke="#000" stroke-width="2" fill="#fff"/><path d="M1701 1670.43H1599.95" stroke="#000" stroke-width="2" fill="none"/><path d="M1702 1671.43h-1.03v-2h1.03z"/><path d="M1599.97 1670.43h-4.02" stroke="#000" stroke-width="2" fill="none"/><g fill="none"><path d="M1816.94 1670.43h-10m30 20c-11.05 0-20-8.95-20-20s8.95-20 20-20" stroke="#000" stroke-width="2"/><path d="M1836.94 1690.43c-11.05 0-20-8.95-20-20s8.95-20 20-20zM1816.94 1671.23h-10v-1.6h10z"/></g><path d="M1805.94 1670.43H1745" stroke="#000" stroke-width="2" fill="none"/><path d="M1806.94 1671.43h-1.03v-2h1.04zM1745.03 1671.43H1744v-2h1.03z"/><g fill="none"><path d="M1597.94 1872.03h-10m30 20c-11.05 0-20-8.95-20-20s8.95-20 20-20" stroke="#000" stroke-width="2"/><path d="M1617.94 1892.03c-11.05 0-20-8.95-20-20s8.95-20 20-20zM1597.94 1872.83h-10v-1.6h10z"/></g><path d="M1507.94 1852.03h40v40h-40z" stroke="#000" stroke-width="2" fill="#fff"/><path d="M1586.94 1872.03h-37" stroke="#000" stroke-width="2" fill="none"/><path d="M1587.94 1873.03h-1.03v-2h1.04zM1549.96 1873.03h-1.02v-2h1.02z"/><path d="M1703 1852.03h40v40h-40z" stroke="#000" stroke-width="2" fill="#fff"/><path d="M1701 1872.03H1599.95" stroke="#000" stroke-width="2" fill="none"/><path d="M1702 1873.03h-1.03v-2h1.03z"/><path d="M1599.97 1872.03h-4.02" stroke="#000" stroke-width="2" fill="none"/><path d="M1123 731.14h40v40h-40z" stroke="#000" stroke-width="2" fill="#fff"/><g fill="none"><path d="M1816.94 1872.03h-10m30 20c-11.05 0-20-8.95-20-20s8.95-20 20-20" stroke="#000" stroke-width="2"/><path d="M1836.94 1892.03c-11.05 0-20-8.95-20-20s8.95-20 20-20zM1816.94 1872.83h-10v-1.6h10z"/></g><path d="M1805.94 1872.03H1745" stroke="#000" stroke-width="2" fill="none"/><path d="M1806.94 1873.03h-1.03v-2h1.04zM1745.03 1873.03H1744v-2h1.03z"/><path d="M1303 80h240v120h-240z" stroke="#000" stroke-width="2" fill="#fff"/><path d="M1533 90h-15v20h15z" stroke="#000" fill="#fff"/><path d="M1523 93.33h-10v3.34h10zm0 10h-10v3.34h10z" stroke="#000" fill="#fff"/><use xlink:href="#v" transform="matrix(1,0,0,1,1303,80) translate(89.605 63.15)"/><g fill="none"><path d="M1613 150h-10m30 20c-11.05 0-20-8.95-20-20s8.95-20 20-20" stroke="#000" stroke-width="2"/><path d="M1633 170c-11.05 0-20-8.95-20-20s8.95-20 20-20zM1613 150.8h-10v-1.6h10z"/></g><path d="M1523 130h40v40h-40z" stroke="#000" stroke-width="2" fill="#fff"/><path d="M1602 150h-37" stroke="#000" stroke-width="2" fill="none"/><path d="M1603 151h-1.03v-2h1.03zM1565.03 151H1564v-2h1.03z"/><path d="M1303 691.14h240v120h-240z" stroke="#000" stroke-width="2" fill="#fff"/><path d="M1533 701.14h-15v20h15z" stroke="#000" fill="#fff"/><path d="M1523 704.47h-10v3.33h10zm0 10h-10v3.33h10z" stroke="#000" fill="#fff"/><use xlink:href="#w" transform="matrix(1,0,0,1,1303,691.135807176346) translate(94.555 63.15)"/><path d="M1212 751.14h10m40 0c0 11.04-8.95 20-20 20s-20-8.96-20-20c0-11.05 8.95-20 20-20s20 8.95 20 20z" stroke="#000" stroke-width="2" fill="#fff"/><path d="M1212 750.34h10v1.6h-10z" fill="none"/><path d="M1283 731.14h40v40h-40z" stroke="#000" stroke-width="2" fill="#fff"/><path d="M1211 751.14h-46" stroke="#000" stroke-width="2" fill="none"/><path d="M1212 752.14h-1.03v-2h1.03zM1165.03 752.14H1164v-2h1.03z"/><path d="M1264 751.14h17" stroke="#000" stroke-width="2" fill="none"/><path d="M1264.03 752.14h-1.15l.12-.96-.03-1.04h1.06zM1282 752.14h-1.03v-2h1.03z"/><g fill="none"><path d="M1613 761.14h-10m30 20c-11.05 0-20-8.96-20-20 0-11.05 8.95-20 20-20" stroke="#000" stroke-width="2"/><path d="M1633 781.14c-11.05 0-20-8.96-20-20 0-11.05 8.95-20 20-20zM1613 761.94h-10v-1.6h10z"/></g><path d="M1523 741.14h40v40h-40z" stroke="#000" stroke-width="2" fill="#fff"/><path d="M1602 761.14h-37" stroke="#000" stroke-width="2" fill="none"/><path d="M1603 762.14h-1.03v-2h1.03zM1565.03 762.14H1564v-2h1.03z"/><path d="M1196.94 1873.63h10m40 0c0 11.05-8.96 20-20 20-11.05 0-20-8.95-20-20s8.95-20 20-20c11.04 0 20 8.95 20 20z" stroke="#000" stroke-width="2" fill="#fff"/><path d="M1196.94 1872.83h10v1.6h-10z" fill="none"/><path d="M1195.94 1873.63h-15.47v-182.2H1165" stroke="#000" stroke-width="2" fill="none"/><path d="M1196.94 1874.63h-1.03v-2h1.04zM1165.03 1692.43H1161v-1h3v-1h1.03z"/><path d="M1248.94 1873.63h37" stroke="#000" stroke-width="2" fill="none"/><path d="M1248.96 1874.63h-1.14l.12-.96-.04-1.04h1.06zM1286.94 1874.63h-1.03v-2h1.04z"/><path d="M872.33 751.14h3.7m7.4 0h7.4m7.4 0h7.42m7.4 0h7.4m7.4 0h7.42m7.4 0h7.4m7.4 0h3.7M872.35 751.14h-4.02M943.82 761.32l17.22-10.18-17.22-10.2" stroke="#000" stroke-width="2" fill="none"/><path d="M1703 741.14h40v40h-40z" stroke="#000" stroke-width="2" fill="#fff"/><path d="M1701 761.14h-97" stroke="#000" stroke-width="2" fill="none"/><path d="M1702 762.14h-1.03v-2h1.03z"/><path d="M1604.03 761.14H1603M1793 761.14h-48" stroke="#000" stroke-width="2" fill="none"/><path d="M1794 762.14H1793v-2h1.03zM1745.03 762.14H1744v-2h1.03z"/><path d="M1267.94 1853.63h40v40h-40zM1303 520h240v120h-240z" stroke="#000" stroke-width="2" fill="#fff"/><path d="M1533 530h-15v20h15z" stroke="#000" fill="#fff"/><path d="M1523 533.33h-10v3.34h10zm0 10h-10v3.34h10z" stroke="#000" fill="#fff"/><use xlink:href="#x" transform="matrix(1,0,0,1,1303,520) translate(51.605 63.15)"/><use xlink:href="#y" transform="matrix(1,0,0,1,1303,520) translate(133.505 63.15)"/><path d="M1303 1108.58h240v120h-240z" stroke="#000" stroke-width="2" fill="#fff"/><path d="M1533 1118.58h-15v20h15z" stroke="#000" fill="#fff"/><path d="M1523 1121.9h-10v3.34h10zm0 10h-10v3.34h10z" stroke="#000" fill="#fff"/><use xlink:href="#z" transform="matrix(1,0,0,1,1303,1108.5782778190232) translate(80.53 63.15)"/><path d="M1212 1173.7h10m40 0c0 11.05-8.95 20-20 20s-20-8.95-20-20c0-11.04 8.95-20 20-20s20 8.96 20 20z" stroke="#000" stroke-width="2" fill="#fff"/><path d="M1212 1172.9h10v1.6h-10z" fill="none"/><path d="M1283 1193.58v-40h40v40z" stroke="#000" stroke-width="2" fill="#fff"/><path d="M1263.93 1174.35h8.53v-.13h8.54" stroke="#000" stroke-width="2" fill="none"/><path d="M1263.95 1175.35h-1.15l.2-1.6v-.4h.95zM1282 1175.22h-1.03v-2h1.03z"/><path d="M1523 1158.58h40v40h-40z" stroke="#000" stroke-width="2" fill="#fff"/><path d="M1601 1178.58h-36" stroke="#000" stroke-width="2" fill="none"/><path d="M1602 1179.58h-1.03v-2h1.02zM1565.03 1179.58H1564v-2h1.03z"/><path d="M1403 798.4h40v40h-40zM1794 761.14h10m40 0c0 11.04-8.95 20-20 20-11.04 0-20-8.96-20-20 0-11.05 8.96-20 20-20 11.05 0 20 8.95 20 20z" stroke="#000" stroke-width="2" fill="#fff"/><path d="M1794 760.34h10v1.6h-10z" fill="none"/><path d="M1703 310h40v40h-40z" stroke="#000" stroke-width="2" fill="#fff"/><path d="M1701 330h-89.02" stroke="#000" stroke-width="2" fill="none"/><path d="M1702 331h-1.03v-2h1.03z"/><path d="M1612 330H1611M1793 330h-48" stroke="#000" stroke-width="2" fill="none"/><path d="M1794 331H1793v-2h1.03zM1745.03 331H1744v-2h1.03z"/><path d="M1794 330h10m40 0c0 11.05-8.95 20-20 20-11.04 0-20-8.95-20-20s8.96-20 20-20c11.05 0 20 8.95 20 20z" stroke="#000" stroke-width="2" fill="#fff"/><path d="M1794 329.2h10v1.6h-10z" fill="none"/><path d="M1703 130h40v40h-40z" stroke="#000" stroke-width="2" fill="#fff"/><path d="M1701 150h-97" stroke="#000" stroke-width="2" fill="none"/><path d="M1702 151h-1.03v-2h1.03z"/><path d="M1604.03 150H1603M1793 150h-48" stroke="#000" stroke-width="2" fill="none"/><path d="M1794 151H1793v-2h1.03zM1745.03 151H1744v-2h1.03z"/><path d="M1794 150h10m40 0c0 11.05-8.95 20-20 20-11.04 0-20-8.95-20-20s8.96-20 20-20c11.05 0 20 8.95 20 20z" stroke="#000" stroke-width="2" fill="#fff"/><path d="M1794 149.2h10v1.6h-10z" fill="none"/><path d="M1823 1670.43h4m8.04 0h8.03m8.03 0h8.03m8.02 0h8.03m8.03 0h8.04m8.03 0h8.02m8.02 0h8.03m8.03 0h8.03m8.03 0h8.03m8.03 0h8.02m8.03 0h8.02m8.03 0h8.03m8.03 0h8.02m8.03 0h8.04m8.03 0h8.03m8.02 0h8.03m8.03 0h8.03m4.04-4v-8.03m0-8.03v-8.03m0-8.02v-8.03m0-8.04v-8.03m0-8.03v-8.02m0-8.03v-8.03m0-8.03v-8.04m0-8.02V1546m0-8.02v-8.03m0-8.03v-8.02m0-8.03v-8.03m0-8.03v-8m0-8.04v-8.03m0-8.03v-8.03m0-8.02v-8.03m0-8.03v-8.04m0-8.03v-8.02m0-8.02v-8.03m0-8.03v-8.03m0-8.03v-8.03m0-8.03v-8.02m0-8.03v-8.02m0-8.03v-8.03m0-8.03v-8.03m0-8v-8.04m0-8.03V1257m0-8.03v-8.02m0-8.03v-8.03m0-8.04v-8.03m0-8.02v-8.02m0-8.03v-8.03m0-8.03v-8.03m0-8.03v-8.03m0-8.02v-8.02m0-8.03v-8.03m0-8.03v-8.03m0-8.02v-8.03m0-8.04v-8.03m0-8.03v-8.02m0-8.03v-8.03m0-8.03v-8.04m0-8.02v-8.03m0-8.02v-8.03m0-8.03V968m0-8.03v-8.03m0-8.03v-8.02m0-8.02v-8.03m0-8.03v-8.03m0-8.03v-8.02m0-8.03v-8.04m0-8.03v-8.03m0-8.02v-8.03m0-8.03v-8.03m0-8.04v-8.02m0-8.03v-8.02m0-8.03v-8.02m0-8.03v-8.03m0-8.03v-8.03m0-8v-8.04m0-8.03v-8.03m0-8.03v-8.02m0-8.03V679m0-8.04v-8.03m0-8.02v-8.02m0-8.03v-8.03m0-8.03v-8.03m0-8.03v-8.03m0-8.02v-8.03m0-8.02v-8.03m0-8.03v-8.03m0-8.03v-8m0-8.04v-8.03m0-8.03v-8.03m0-8.02v-8.03m0-8.03v-8.04m0-8.03v-8.02m0-8.02v-8.03m0-8.03v-8.02m0-8.03v-8.03m0-8.03V390m0-8.02v-8.03m0-8.03v-8.03m0-8.03v-8.02m0-8.03v-3.76h-4.3m-8.02 0h-8.02m-8.03 0h-8.03m-8.03 0h-8m-8.04 0h-8.03m-8.03 0h-8.03m-8.02 0h-8.03m-8.03 0h-8.04m-8.03 0h-8.02m-8.02 0h-8.03m-8.03 0h-8.03m-8.03 0h-8.03m-8.03 0H1891m-8.03 0h-8.02m-8.03 0h-8.03m-8.03 0h-4M1823.03 1670.43H1819M1864.2 319.86l-17.23 10.18 17.22 10.2M1793 1178.58h-48" stroke="#000" stroke-width="2" fill="none"/><path d="M1794 1179.58H1793v-2h1.03zM1745.03 1179.58H1744v-2h1.03z"/><path d="M1794 1178.58h10m40 0c0 11.04-8.95 20-20 20-11.04 0-20-8.96-20-20 0-11.05 8.96-20 20-20 11.05 0 20 8.95 20 20z" stroke="#000" stroke-width="2" fill="#fff"/><path d="M1794 1177.78h10v1.6h-10z" fill="none"/><path d="M1703 1158.58h40v40h-40zM1602 1178.58h10m40 0c0 11.04-8.96 20-20 20-11.05 0-20-8.96-20-20 0-11.05 8.95-20 20-20 11.04 0 20 8.95 20 20z" stroke="#000" stroke-width="2" fill="#fff"/><path d="M1602 1177.78h10v1.6h-10z" fill="none"/><path d="M1823 1440.43h4.07m8.13 0h8.13m8.13 0h8.13m8.12 0h8.13m8.13 0h8.13m8.14 0h8.13m8.13 0h8.14m8.13 0h8.13m7.04-1.1v-8.12m0-8.13v-8.13m0-8.13v-8.12m0-8.13v-8.13m0-8.13v-8.14m0-8.13v-8.13m0-8.13v-8.13m0-8.14v-8.13m0-8.13v-8.13m0-8.12v-8.13m0-8.13v-8.13m0-8.14v-8.13m0-8.13v-8.14m0-8.13v-8.13m0-8.13v-8.13m0-8.13v-8.12m0-8.13v-.53h-7.6m-8.14 0h-8.13m-8.13 0h-8.13m-8.12 0h-8.13m-8.13 0h-8.13m-8.14 0h-8.14m-8.13 0h-4.07M1823.03 1440.43H1819M1864.2 1168.44l-17.23 10.18 17.22 10.18M1654 1178.58h47" stroke="#000" stroke-width="2" fill="none"/><path d="M1654.02 1179.58h-1.15l.12-.96-.04-1.04h1.06zM1702 1179.58h-1.03v-2h1.03z"/><path d="M1423 479.27v-11M1423 434.27v-5" stroke="#000" stroke-width="2" fill="none"/><path d="M1409 454.27c0-7.73 6.27-14 14-14s14 6.27 14 14-6.27 14-14 14-14-6.27-14-14z" stroke="#000" stroke-width="2" fill="#fff"/><path d="M1443 454.27c0-11.04-8.95-20-20-20s-20 8.96-20 20" stroke="#000" stroke-width="2" fill="none"/><path d="M1422.2 479.27v-11h1.6v11z" fill="none"/><path d="M1403 360h40v40h-40zM1403 498.4h40v40h-40z" stroke="#000" stroke-width="2" fill="#fff"/><path d="M1423 480.27v16.13" stroke="#000" stroke-width="2" fill="none"/><path d="M1422 479.27h2v1.03h-2v-4.03zM1424 497.4h-2v-1.03h2z"/><path d="M1423 428.27V402" stroke="#000" stroke-width="2" fill="none"/><path d="M1424 429.27h-2v3-4.02h2zM1424 402.03h-2V401h2z"/><path d="M1387.94 1464.83h40v40h-40z" stroke="#000" stroke-width="2" fill="#fff"/><g fill="none"><path d="M1597.94 1544.83h-10m30 20c-11.05 0-20-8.95-20-20s8.95-20 20-20" stroke="#000" stroke-width="2"/><path d="M1617.94 1564.83c-11.05 0-20-8.95-20-20s8.95-20 20-20zM1597.94 1545.63h-10v-1.6h10z"/></g><path d="M1586.94 1544.83h-179v-38" stroke="#000" stroke-width="2" fill="none"/><path d="M1590.94 1543.83h-3v2h-1.03v-2h4.04zM1408.94 1506.86h-2v-1.03h2z"/><path d="M1604 1544.83h103.6v103.6M1604.03 1544.83H1600" stroke="#000" stroke-width="2" fill="none"/><path d="M1708.6 1649.43h-2v-1.03h2z"/><path d="M1163 1193.58h-40v-40h40z" stroke="#000" stroke-width="2" fill="#fff"/><path d="M1094 1173.58h27" stroke="#000" stroke-width="2" fill="none"/><path d="M1094.03 1174.58H1093v-2h1.03zM1122 1174.58h-1.03v-2h1.03z"/><path d="M1093 1173.58h-10m-40 0c0-11.05 8.95-20 20-20s20 8.95 20 20c0 11.04-8.95 20-20 20s-20-8.96-20-20z" stroke="#000" stroke-width="2" fill="#fff"/><path d="M1093 1174.38h-10v-1.6h10z" fill="none"/><path d="M1211 1173.7h-46" stroke="#000" stroke-width="2" fill="none"/><path d="M1212 1174.7h-1.03v-2h1.03zM1165.03 1174.7H1164v-2h1.03z"/><g fill="none"><path d="M1423 870v-10m-20 30c0-11.05 8.95-20 20-20s20 8.95 20 20" stroke="#000" stroke-width="2"/><path d="M1403 890c0-11.05 8.95-20 20-20s20 8.95 20 20zM1422.2 870v-10h1.6v10z"/></g><path d="M1423 859v-19.6" stroke="#000" stroke-width="2" fill="none"/><path d="M1422 860v-1.03h2V860z"/><path d="M1423 839.43v-1.03" stroke="#000" stroke-width="2" fill="none"/><path d="M1443 940v40h-40v-40z" stroke="#000" stroke-width="2" fill="#fff"/><path d="M1423 998v-16" stroke="#000" stroke-width="2" fill="none"/><path d="M1422 999v-1.03h2V999zM1424 982.03h-2V981h2z"/><g fill="none"><path d="M1423 1009v-10m-20 30c0-11.05 8.95-20 20-20s20 8.95 20 20" stroke="#000" stroke-width="2"/><path d="M1403 1029c0-11.05 8.95-20 20-20s20 8.95 20 20zM1422.2 1009v-10h1.6v10z"/></g><path d="M1423 1015.06v4m0 8v7.98m0 8v6.96h-1.03m-8 0H1406m-8 0h-8m-8 0h-7.98m-8 0h-8m-7.98 0h-8m-8 0h-7.98m-8 0h-7.98m-8 0h-8m-7.98 0h-8m-8 0h-7.98m-8 0h-7.98m-8 0h-8m-7.98 0h-8m-8 0h-7.98m-8 0h-8m-7.98 0h-8m-7.98 0h-8m-8 0h-7.98m-8 0h-8m-7.98 0h-8m-8 0h-7.98m-8 0h-7.98m-7.13.86v8m0 8v7.98m0 8v8m0 7.98v8m0 8v7.98m0 8v7.98m0 8v4M1423 1015.1v-4.04M1053 1133.4l10.17 17.23 10.18-17.22M1423 876.06V938M1423 876.1v-4.04" stroke="#000" stroke-width="2" fill="none"/><path d="M1424 939h-2v-1.03h2z"/><path d="M1823 1872.03h4m8.03 0h8.02m8 0h8.03m8.02 0h8.02m8.02 0h8.02m8.02 0h8m8.03 0h8.03m8.02 0h8.02m8.02 0h8m8.02 0h8.02m8.02 0h8.02m8.02 0h8.02m8.02 0h8m8.03 0h8.02m8 0h8.03m8.02 0h8.02m8 0h8.03m8.02 0h8.02m8.02 0h8.02m8 0h8.03m8.03 0h8.02m8.02 0h8.02m8 0h8.02m8.02 0h8.02m7.14-.88v-8.02m0-8.02v-8m0-8.03v-8.02m0-8V1815m0-8.02v-8.02m0-8.02v-8.02m0-8.02v-8m0-8.03v-8.03m0-8.02v-8.02m0-8.02v-8m0-8.02v-8.02m0-8.02v-8.02m0-8.02v-8.02m0-8.02v-8m0-8.03v-8.02m0-8v-8.03m0-8.02v-8m0-8.03v-8.02m0-8.02v-8.02m0-8.02v-8.02m0-8v-8.03m0-8.03v-8.02m0-8.02v-8.02m0-8v-8.02m0-8.02v-8.02m0-8.02v-8.02m0-8.02v-8.02m0-8v-8.03m0-8.02v-8m0-8.03v-8.02m0-8.02v-8m0-8.03v-8.02m0-8.02v-8.02m0-8.02v-8m0-8.03v-8.03m0-8.02v-8.02m0-8.02v-8m0-8.02v-8.02m0-8.02v-8.02m0-8.02v-8.02m0-8.02v-8m0-8.03v-8.02m0-8v-8.03m0-8.02v-8.02m0-8v-8.03m0-8.02v-8.02m0-8.02v-8.02m0-8.02v-8m0-8.03v-8.02m0-8.02v-8.02m0-8v-8.02m0-8.02v-8.02m0-8.02v-8.02m0-8.02v-8.02m0-8v-8.03m0-8.02v-8m0-8.03v-8.02m0-8.02v-8m0-8.03v-8.02m0-8.02v-8.02m0-8.02v-8.02m0-8v-8.03m0-8.02v-8.02m0-8.02v-8m0-8.03v-8m0-8.03v-8.02m0-8.02v-8.02m0-8.02v-8m0-8.03v-8.02m0-8v-8.03m0-8.02v-8.02m0-8v-8.03m0-8.02v-8.02m0-8.02v-8.02m0-8.02v-8m0-8.03v-8.02m0-8.02v-8.02m0-8v-8.03m0-8v-8.03m0-8.02v-8.02m0-8.02v-8.02m0-8v-8.03m0-8.02v-8m0-8.03v-8.02m0-8.02v-8m0-8.03v-8.02m0-8.02v-8.02m0-8.02v-8.02m0-8v-8.03m0-8.02v-8.02m0-8.02v-8m0-8.03v-8m0-8.03v-8.02m0-8.02v-8.02m0-8.02v-8.02m0-8v-8.03m0-8v-8.03m0-8.02v-8.02m0-8v-8.03m0-8.02v-8.02m0-8.02v-8.02m0-8.02v-8m0-8.03v-8.02m0-8.02v-8.02m0-8v-8.03m0-8v-8.03m0-8.02v-8.02m0-8.02h-8m-8.03 0h-8m-8.03 0h-8.02m-8.02 0h-8.02m-8.02 0h-8.02m-8 0h-8.03m-8 0h-8.03m-8.02 0h-8.02m-8 0h-8.03m-8.02 0h-8.02m-8.02 0h-8.02m-8.02 0h-8m-8.03 0h-8.02m-8.02 0h-8.02m-8 0h-8.03m-8 0h-8.03m-8.02 0h-8.02m-8.02 0h-8.02m-8.02 0h-8m-8.03 0h-8m-8.03 0h-8.02m-8.02 0h-8m-8.03 0h-4M1823.03 1872.03H1819M1863.55 145l-17.22 10.17 17.22 10.18" stroke="#000" stroke-width="2" fill="none"/><path d="M1703 70h240v60h-240z" stroke="#000" stroke-opacity="0" stroke-width="2" fill="#fff" fill-opacity="0"/><use xlink:href="#f" transform="matrix(1,0,0,1,1708,74.99999999999989) translate(82.525 17.525)"/><use xlink:href="#A" transform="matrix(1,0,0,1,1708,74.99999999999989) translate(82.6 39.125)"/><path d="M1703 250h240v60h-240z" stroke="#000" stroke-opacity="0" stroke-width="2" fill="#fff" fill-opacity="0"/><use xlink:href="#f" transform="matrix(1,0,0,1,1708,255) translate(82.525 17.525)"/><use xlink:href="#h" transform="matrix(1,0,0,1,1708,255) translate(92.05 39.125)"/><path d="M1703 681.8h240v60h-240z" stroke="#000" stroke-opacity="0" stroke-width="2" fill="#fff" fill-opacity="0"/><g><use xlink:href="#B" transform="matrix(1,0,0,1,1708,686.7891389095083) translate(74.525 17.525)"/><use xlink:href="#C" transform="matrix(1,0,0,1,1708,686.7891389095083) translate(100.5 39.125)"/></g><path d="M1703 1098.58h240v60h-240z" stroke="#000" stroke-opacity="0" stroke-width="2" fill="#fff" fill-opacity="0"/><g><use xlink:href="#f" transform="matrix(1,0,0,1,1708,1103.578277819016) translate(82.525 17.525)"/><use xlink:href="#D" transform="matrix(1,0,0,1,1708,1103.578277819016) translate(78.025 39.125)"/></g><path d="M938.2 1203.94h240v60h-240z" stroke="#000" stroke-opacity="0" stroke-width="2" fill="#fff" fill-opacity="0"/><g><use xlink:href="#f" transform="matrix(1,0,0,1,943.1999999999998,1208.9379539682523) translate(82.525 17.525)"/><use xlink:href="#D" transform="matrix(1,0,0,1,943.1999999999998,1208.9379539682523) translate(78.025 39.125)"/></g><path d="M1703 1360h240v60h-240z" stroke="#000" stroke-opacity="0" stroke-width="2" fill="#fff" fill-opacity="0"/><g><use xlink:href="#f" transform="matrix(1,0,0,1,1708,1365) translate(82.525 17.525)"/><use xlink:href="#D" transform="matrix(1,0,0,1,1708,1365) translate(78.025 39.125)"/></g><path d="M1703 1580.43h240v60h-240z" stroke="#000" stroke-opacity="0" stroke-width="2" fill="#fff" fill-opacity="0"/><g><use xlink:href="#f" transform="matrix(1,0,0,1,1708,1585.4301966703597) translate(82.525 17.525)"/><use xlink:href="#h" transform="matrix(1,0,0,1,1708,1585.4301966703597) translate(92.05 39.125)"/></g><path d="M1703 1793.63h240v60h-240z" stroke="#000" stroke-opacity="0" stroke-width="2" fill="#fff" fill-opacity="0"/><g><use xlink:href="#f" transform="matrix(1,0,0,1,1708,1798.6301966703595) translate(82.525 17.525)"/><use xlink:href="#A" transform="matrix(1,0,0,1,1708,1798.6301966703595) translate(82.6 39.125)"/></g><path d="M963 751.14h10m40 0c0 11.04-8.95 20-20 20s-20-8.96-20-20c0-11.05 8.95-20 20-20s20 8.95 20 20z" stroke="#000" stroke-width="2" fill="#fff"/><path d="M963 750.34h10v1.6h-10z" fill="none"/><path d="M1015 751.14h106" stroke="#000" stroke-width="2" fill="none"/><path d="M1015.03 752.14h-1.15l.12-.96-.03-1.04h1.06zM1122 752.14h-1.03v-2h1.03z"/><path d="M963 1670.43h10m40 0c0 11.05-8.95 20-20 20s-20-8.95-20-20 8.95-20 20-20 20 8.95 20 20z" stroke="#000" stroke-width="2" fill="#fff"/><path d="M963 1669.63h10v1.6h-10z" fill="none"/><path d="M1015 1670.43h106" stroke="#000" stroke-width="2" fill="none"/><path d="M1015.03 1671.43h-1.15l.12-.96-.03-1.04h1.06zM1122 1671.43h-1.03v-2h1.03z"/><defs><path d="M33 0v-248h34V0H33" id="E"/><path d="M117-194c89-4 53 116 60 194h-32v-121c0-31-8-49-39-48C34-167 62-67 57 0H25l-1-190h30c1 10-1 24 2 32 11-22 29-35 61-36" id="F"/><path d="M59-47c-2 24 18 29 38 22v24C64 9 27 4 27-40v-127H5v-23h24l9-43h21v43h35v23H59v120" id="G"/><path d="M100-194c63 0 86 42 84 106H49c0 40 14 67 53 68 26 1 43-12 49-29l28 8c-11 28-37 45-77 45C44 4 14-33 15-96c1-61 26-98 85-98zm52 81c6-60-76-77-97-28-3 7-6 17-6 28h103" id="H"/><path d="M114-163C36-179 61-72 57 0H25l-1-190h30c1 12-1 29 2 39 6-27 23-49 58-41v29" id="I"/><path d="M141-36C126-15 110 5 73 4 37 3 15-17 15-53c-1-64 63-63 125-63 3-35-9-54-41-54-24 1-41 7-42 31l-33-3c5-37 33-52 76-52 45 0 72 20 72 64v82c-1 20 7 32 28 27v20c-31 9-61-2-59-35zM48-53c0 20 12 33 32 33 41-3 63-29 60-74-43 2-92-5-92 41" id="J"/><path d="M24 0v-261h32V0H24" id="K"/><g id="a"><use transform="matrix(0.05,0,0,0.05,0,0)" xlink:href="#E"/><use transform="matrix(0.05,0,0,0.05,5,0)" xlink:href="#F"/><use transform="matrix(0.05,0,0,0.05,15,0)" xlink:href="#G"/><use transform="matrix(0.05,0,0,0.05,20,0)" xlink:href="#H"/><use transform="matrix(0.05,0,0,0.05,30,0)" xlink:href="#I"/><use transform="matrix(0.05,0,0,0.05,35.95,0)" xlink:href="#F"/><use transform="matrix(0.05,0,0,0.05,45.95,0)" xlink:href="#J"/><use transform="matrix(0.05,0,0,0.05,55.95,0)" xlink:href="#K"/></g><path d="M185-189c-5-48-123-54-124 2 14 75 158 14 163 119 3 78-121 87-175 55-17-10-28-26-33-46l33-7c5 56 141 63 141-1 0-78-155-14-162-118-5-82 145-84 179-34 5 7 8 16 11 25" id="L"/><path d="M84 4C-5 8 30-112 23-190h32v120c0 31 7 50 39 49 72-2 45-101 50-169h31l1 190h-30c-1-10 1-25-2-33-11 22-28 36-60 37" id="M"/><path d="M96-169c-40 0-48 33-48 73s9 75 48 75c24 0 41-14 43-38l32 2c-6 37-31 61-74 61-59 0-76-41-82-99-10-93 101-131 147-64 4 7 5 14 7 22l-32 3c-4-21-16-35-41-35" id="N"/><g id="b"><use transform="matrix(0.05,0,0,0.05,0,0)" xlink:href="#L"/><use transform="matrix(0.05,0,0,0.05,12,0)" xlink:href="#G"/><use transform="matrix(0.05,0,0,0.05,17,0)" xlink:href="#I"/><use transform="matrix(0.05,0,0,0.05,22.95,0)" xlink:href="#M"/><use transform="matrix(0.05,0,0,0.05,32.95,0)" xlink:href="#N"/><use transform="matrix(0.05,0,0,0.05,41.95,0)" xlink:href="#G"/><use transform="matrix(0.05,0,0,0.05,46.95,0)" xlink:href="#M"/><use transform="matrix(0.05,0,0,0.05,56.95,0)" xlink:href="#I"/><use transform="matrix(0.05,0,0,0.05,62.900000000000006,0)" xlink:href="#H"/></g><path d="M160-131c35 5 61 23 61 61C221 17 115-2 30 0v-248c76 3 177-17 177 60 0 33-19 50-47 57zm-97-11c50-1 110 9 110-42 0-47-63-36-110-37v79zm0 115c55-2 124 14 124-45 0-56-70-42-124-44v89" id="O"/><path d="M100-194c62-1 85 37 85 99 1 63-27 99-86 99S16-35 15-95c0-66 28-99 85-99zM99-20c44 1 53-31 53-75 0-43-8-75-51-75s-53 32-53 75 10 74 51 75" id="P"/><path d="M34 0v-190h32V0H34zm35-262c12 18 30 30 39 51-31 2-38-20-57-30-20 10-27 32-59 30 9-22 29-33 41-51h36" id="Q"/><g id="c"><use transform="matrix(0.05,0,0,0.05,0,0)" xlink:href="#O"/><use transform="matrix(0.05,0,0,0.05,12,0)" xlink:href="#P"/><use transform="matrix(0.05,0,0,0.05,22,0)" xlink:href="#Q"/><use transform="matrix(0.05,0,0,0.05,27,0)" xlink:href="#G"/><use transform="matrix(0.05,0,0,0.05,32,0)" xlink:href="#H"/></g><path d="M85-194c31 0 48 13 60 33l-1-100h32l1 261h-30c-2-10 0-23-3-31C134-8 116 4 85 4 32 4 16-35 15-94c0-66 23-100 70-100zm9 24c-40 0-46 34-46 75 0 40 6 74 45 74 42 0 51-32 51-76 0-42-9-74-50-73" id="R"/><g id="d"><use transform="matrix(0.05,0,0,0.05,0,0)" xlink:href="#R"/><use transform="matrix(0.05,0,0,0.05,10,0)" xlink:href="#H"/></g><path d="M210-169c-67 3-38 105-44 169h-31v-121c0-29-5-50-35-48C34-165 62-65 56 0H25l-1-190h30c1 10-1 24 2 32 10-44 99-50 107 0 11-21 27-35 58-36 85-2 47 119 55 194h-31v-121c0-29-5-49-35-48" id="S"/><path d="M115-194c55 1 70 41 70 98S169 2 115 4C84 4 66-9 55-30l1 105H24l-1-265h31l2 30c10-21 28-34 59-34zm-8 174c40 0 45-34 45-75s-6-73-45-74c-42 0-51 32-51 76 0 43 10 73 51 73" id="T"/><path d="M135-143c-3-34-86-38-87 0 15 53 115 12 119 90S17 21 10-45l28-5c4 36 97 45 98 0-10-56-113-15-118-90-4-57 82-63 122-42 12 7 21 19 24 35" id="U"/><g id="e"><use transform="matrix(0.05,0,0,0.05,0,0)" xlink:href="#N"/><use transform="matrix(0.05,0,0,0.05,9,0)" xlink:href="#P"/><use transform="matrix(0.05,0,0,0.05,19,0)" xlink:href="#S"/><use transform="matrix(0.05,0,0,0.05,33.95,0)" xlink:href="#T"/><use transform="matrix(0.05,0,0,0.05,43.95,0)" xlink:href="#P"/><use transform="matrix(0.05,0,0,0.05,53.95,0)" xlink:href="#U"/><use transform="matrix(0.05,0,0,0.05,62.95,0)" xlink:href="#J"/><use transform="matrix(0.05,0,0,0.05,72.95,0)" xlink:href="#F"/><use transform="matrix(0.05,0,0,0.05,82.95,0)" xlink:href="#G"/><use transform="matrix(0.05,0,0,0.05,87.95,0)" xlink:href="#U"/></g><path d="M240 0l2-218c-23 76-54 145-80 218h-23L58-218 59 0H30v-248h44l77 211c21-75 51-140 76-211h43V0h-30" id="V"/><path d="M177-190C167-65 218 103 67 71c-23-6-38-20-44-43l32-5c15 47 100 32 89-28v-30C133-14 115 1 83 1 29 1 15-40 15-95c0-56 16-97 71-98 29-1 48 16 59 35 1-10 0-23 2-32h30zM94-22c36 0 50-32 50-73 0-42-14-75-50-75-39 0-46 34-46 75s6 73 46 73" id="W"/><g id="f"><use transform="matrix(0.05,0,0,0.05,0,0)" xlink:href="#V"/><use transform="matrix(0.05,0,0,0.05,14.950000000000001,0)" xlink:href="#J"/><use transform="matrix(0.05,0,0,0.05,24.950000000000003,0)" xlink:href="#F"/><use transform="matrix(0.05,0,0,0.05,34.95,0)" xlink:href="#J"/><use transform="matrix(0.05,0,0,0.05,44.95,0)" xlink:href="#W"/><use transform="matrix(0.05,0,0,0.05,54.95,0)" xlink:href="#H"/></g><path d="M205 0l-28-72H64L36 0H1l101-248h38L239 0h-34zm-38-99l-47-123c-12 45-31 82-46 123h93" id="X"/><g id="g"><use transform="matrix(0.05,0,0,0.05,0,0)" xlink:href="#X"/><use transform="matrix(0.05,0,0,0.05,12,0)" xlink:href="#N"/><use transform="matrix(0.05,0,0,0.05,21,0)" xlink:href="#N"/><use transform="matrix(0.05,0,0,0.05,30,0)" xlink:href="#P"/><use transform="matrix(0.05,0,0,0.05,40,0)" xlink:href="#M"/><use transform="matrix(0.05,0,0,0.05,50,0)" xlink:href="#F"/><use transform="matrix(0.05,0,0,0.05,60,0)" xlink:href="#G"/></g><path d="M140-251c81 0 123 46 123 126C263-46 219 4 140 4 59 4 17-45 17-125s42-126 123-126zm0 227c63 0 89-41 89-101s-29-99-89-99c-61 0-89 39-89 99S79-25 140-24" id="Y"/><g id="h"><use transform="matrix(0.05,0,0,0.05,0,0)" xlink:href="#Y"/><use transform="matrix(0.05,0,0,0.05,14,0)" xlink:href="#I"/><use transform="matrix(0.05,0,0,0.05,19.95,0)" xlink:href="#R"/><use transform="matrix(0.05,0,0,0.05,29.950000000000003,0)" xlink:href="#H"/><use transform="matrix(0.05,0,0,0.05,39.95,0)" xlink:href="#I"/></g><path d="M232-93c-1 65-40 97-104 97C67 4 28-28 28-90v-158h33c8 89-33 224 67 224 102 0 64-133 71-224h33v155" id="Z"/><path d="M24-231v-30h32v30H24zM24 0v-190h32V0H24" id="aa"/><g id="i"><use transform="matrix(0.05,0,0,0.05,0,0)" xlink:href="#Z"/><use transform="matrix(0.05,0,0,0.05,12.950000000000001,0)" xlink:href="#U"/><use transform="matrix(0.05,0,0,0.05,21.950000000000003,0)" xlink:href="#H"/><use transform="matrix(0.05,0,0,0.05,31.950000000000003,0)" xlink:href="#I"/><use transform="matrix(0.05,0,0,0.05,37.900000000000006,0)" xlink:href="#L"/><use transform="matrix(0.05,0,0,0.05,49.900000000000006,0)" xlink:href="#H"/><use transform="matrix(0.05,0,0,0.05,59.900000000000006,0)" xlink:href="#U"/><use transform="matrix(0.05,0,0,0.05,68.9,0)" xlink:href="#U"/><use transform="matrix(0.05,0,0,0.05,77.9,0)" xlink:href="#aa"/><use transform="matrix(0.05,0,0,0.05,81.85000000000001,0)" xlink:href="#P"/><use transform="matrix(0.05,0,0,0.05,91.85000000000001,0)" xlink:href="#F"/></g><path d="M106-169C34-169 62-67 57 0H25v-261h32l-1 103c12-21 28-36 61-36 89 0 53 116 60 194h-32v-121c2-32-8-49-39-48" id="ab"/><g id="j"><use transform="matrix(0.05,0,0,0.05,0,0)" xlink:href="#Y"/><use transform="matrix(0.05,0,0,0.05,14,0)" xlink:href="#F"/><use transform="matrix(0.05,0,0,0.05,24,0)" xlink:href="#K"/><use transform="matrix(0.05,0,0,0.05,27.950000000000003,0)" xlink:href="#aa"/><use transform="matrix(0.05,0,0,0.05,31.899999999999995,0)" xlink:href="#F"/><use transform="matrix(0.05,0,0,0.05,41.9,0)" xlink:href="#H"/><use transform="matrix(0.05,0,0,0.05,51.900000000000006,0)" xlink:href="#L"/><use transform="matrix(0.05,0,0,0.05,63.900000000000006,0)" xlink:href="#ab"/><use transform="matrix(0.05,0,0,0.05,73.9,0)" xlink:href="#P"/><use transform="matrix(0.05,0,0,0.05,83.9,0)" xlink:href="#T"/><use transform="matrix(0.05,0,0,0.05,93.9,0)" xlink:href="#T"/><use transform="matrix(0.05,0,0,0.05,103.9,0)" xlink:href="#aa"/><use transform="matrix(0.05,0,0,0.05,107.85000000000001,0)" xlink:href="#F"/><use transform="matrix(0.05,0,0,0.05,117.85000000000001,0)" xlink:href="#W"/></g><path d="M33-154v-36h34v36H33zM33 0v-36h34V0H33" id="ac"/><g id="k"><use transform="matrix(0.05,0,0,0.05,0,0)" xlink:href="#ac"/><use transform="matrix(0.05,0,0,0.05,5,0)" xlink:href="#L"/><use transform="matrix(0.05,0,0,0.05,17,0)" xlink:href="#ab"/><use transform="matrix(0.05,0,0,0.05,27,0)" xlink:href="#P"/><use transform="matrix(0.05,0,0,0.05,37,0)" xlink:href="#T"/><use transform="matrix(0.05,0,0,0.05,47,0)" xlink:href="#T"/><use transform="matrix(0.05,0,0,0.05,57,0)" xlink:href="#aa"/><use transform="matrix(0.05,0,0,0.05,60.95,0)" xlink:href="#F"/><use transform="matrix(0.05,0,0,0.05,70.95,0)" xlink:href="#W"/></g><path d="M212-179c-10-28-35-45-73-45-59 0-87 40-87 99 0 60 29 101 89 101 43 0 62-24 78-52l27 14C228-24 195 4 139 4 59 4 22-46 18-125c-6-104 99-153 187-111 19 9 31 26 39 46" id="ad"/><g id="l"><use transform="matrix(0.05,0,0,0.05,0,0)" xlink:href="#ad"/><use transform="matrix(0.05,0,0,0.05,12.950000000000001,0)" xlink:href="#J"/><use transform="matrix(0.05,0,0,0.05,22.950000000000003,0)" xlink:href="#I"/><use transform="matrix(0.05,0,0,0.05,28.900000000000002,0)" xlink:href="#G"/></g><path d="M101-234c-31-9-42 10-38 44h38v23H63V0H32v-167H5v-23h27c-7-52 17-82 69-68v24" id="ae"/><g id="m"><use transform="matrix(0.05,0,0,0.05,0,0)" xlink:href="#ac"/><use transform="matrix(0.05,0,0,0.05,5,0)" xlink:href="#X"/><use transform="matrix(0.05,0,0,0.05,17,0)" xlink:href="#M"/><use transform="matrix(0.05,0,0,0.05,27,0)" xlink:href="#G"/><use transform="matrix(0.05,0,0,0.05,32,0)" xlink:href="#ab"/><use transform="matrix(0.05,0,0,0.05,42,0)" xlink:href="#H"/><use transform="matrix(0.05,0,0,0.05,52,0)" xlink:href="#F"/><use transform="matrix(0.05,0,0,0.05,62,0)" xlink:href="#G"/><use transform="matrix(0.05,0,0,0.05,67,0)" xlink:href="#aa"/><use transform="matrix(0.05,0,0,0.05,70.95,0)" xlink:href="#ae"/><use transform="matrix(0.05,0,0,0.05,75.95,0)" xlink:href="#aa"/><use transform="matrix(0.05,0,0,0.05,79.9,0)" xlink:href="#N"/><use transform="matrix(0.05,0,0,0.05,88.9,0)" xlink:href="#J"/><use transform="matrix(0.05,0,0,0.05,98.9,0)" xlink:href="#G"/><use transform="matrix(0.05,0,0,0.05,103.9,0)" xlink:href="#aa"/><use transform="matrix(0.05,0,0,0.05,107.85000000000001,0)" xlink:href="#P"/><use transform="matrix(0.05,0,0,0.05,117.85000000000001,0)" xlink:href="#F"/></g><path d="M266 0h-40l-56-210L115 0H75L2-248h35L96-30l15-64 43-154h32l59 218 59-218h35" id="af"/><g id="n"><use transform="matrix(0.05,0,0,0.05,0,0)" xlink:href="#af"/><use transform="matrix(0.05,0,0,0.05,16.3,0)" xlink:href="#J"/><use transform="matrix(0.05,0,0,0.05,26.3,0)" xlink:href="#I"/><use transform="matrix(0.05,0,0,0.05,32.25,0)" xlink:href="#H"/><use transform="matrix(0.05,0,0,0.05,42.25,0)" xlink:href="#ab"/><use transform="matrix(0.05,0,0,0.05,52.25,0)" xlink:href="#P"/><use transform="matrix(0.05,0,0,0.05,62.25,0)" xlink:href="#M"/><use transform="matrix(0.05,0,0,0.05,72.25,0)" xlink:href="#U"/><use transform="matrix(0.05,0,0,0.05,81.25,0)" xlink:href="#H"/><use transform="matrix(0.05,0,0,0.05,91.25,0)" xlink:href="#U"/></g><g id="o"><use transform="matrix(0.05,0,0,0.05,0,0)" xlink:href="#ac"/><use transform="matrix(0.05,0,0,0.05,5,0)" xlink:href="#ad"/><use transform="matrix(0.05,0,0,0.05,17.950000000000003,0)" xlink:href="#P"/><use transform="matrix(0.05,0,0,0.05,27.950000000000003,0)" xlink:href="#F"/><use transform="matrix(0.05,0,0,0.05,37.95,0)" xlink:href="#U"/><use transform="matrix(0.05,0,0,0.05,46.95,0)" xlink:href="#M"/><use transform="matrix(0.05,0,0,0.05,56.95,0)" xlink:href="#K"/><use transform="matrix(0.05,0,0,0.05,60.900000000000006,0)" xlink:href="#G"/></g><g id="p"><use transform="matrix(0.05,0,0,0.05,0,0)" xlink:href="#Y"/><use transform="matrix(0.05,0,0,0.05,14,0)" xlink:href="#I"/><use transform="matrix(0.05,0,0,0.05,19.95,0)" xlink:href="#R"/><use transform="matrix(0.05,0,0,0.05,29.950000000000003,0)" xlink:href="#H"/><use transform="matrix(0.05,0,0,0.05,39.95,0)" xlink:href="#I"/></g><g id="q"><use transform="matrix(0.05,0,0,0.05,0,0)" xlink:href="#X"/><use transform="matrix(0.05,0,0,0.05,12,0)" xlink:href="#N"/><use transform="matrix(0.05,0,0,0.05,21,0)" xlink:href="#N"/><use transform="matrix(0.05,0,0,0.05,30,0)" xlink:href="#P"/><use transform="matrix(0.05,0,0,0.05,40,0)" xlink:href="#M"/><use transform="matrix(0.05,0,0,0.05,50,0)" xlink:href="#F"/><use transform="matrix(0.05,0,0,0.05,60,0)" xlink:href="#G"/><use transform="matrix(0.05,0,0,0.05,65,0)" xlink:href="#aa"/><use transform="matrix(0.05,0,0,0.05,68.95,0)" xlink:href="#F"/><use transform="matrix(0.05,0,0,0.05,78.95,0)" xlink:href="#W"/></g><path d="M30 0v-248h187v28H63v79h144v27H63v87h162V0H30" id="ag"/><path d="M179-190L93 31C79 59 56 82 12 73V49c39 6 53-20 64-50L1-190h34L92-34l54-156h33" id="ah"/><g id="r"><use transform="matrix(0.05,0,0,0.05,0,0)" xlink:href="#ac"/><use transform="matrix(0.05,0,0,0.05,5,0)" xlink:href="#ag"/><use transform="matrix(0.05,0,0,0.05,17,0)" xlink:href="#S"/><use transform="matrix(0.05,0,0,0.05,31.950000000000003,0)" xlink:href="#T"/><use transform="matrix(0.05,0,0,0.05,41.95,0)" xlink:href="#K"/><use transform="matrix(0.05,0,0,0.05,45.900000000000006,0)" xlink:href="#P"/><use transform="matrix(0.05,0,0,0.05,55.900000000000006,0)" xlink:href="#ah"/><use transform="matrix(0.05,0,0,0.05,64.9,0)" xlink:href="#H"/></g><g id="s"><use transform="matrix(0.05,0,0,0.05,0,0)" xlink:href="#ac"/><use transform="matrix(0.05,0,0,0.05,5,0)" xlink:href="#ad"/><use transform="matrix(0.05,0,0,0.05,17.950000000000003,0)" xlink:href="#M"/><use transform="matrix(0.05,0,0,0.05,27.950000000000003,0)" xlink:href="#U"/><use transform="matrix(0.05,0,0,0.05,36.95,0)" xlink:href="#G"/><use transform="matrix(0.05,0,0,0.05,41.95,0)" xlink:href="#P"/><use transform="matrix(0.05,0,0,0.05,51.95,0)" xlink:href="#S"/><use transform="matrix(0.05,0,0,0.05,66.9,0)" xlink:href="#H"/><use transform="matrix(0.05,0,0,0.05,76.9,0)" xlink:href="#I"/><use transform="matrix(0.05,0,0,0.05,82.85000000000001,0)" xlink:href="#U"/></g><path d="M30-248c118-7 216 8 213 122C240-48 200 0 122 0H30v-248zM63-27c89 8 146-16 146-99s-60-101-146-95v194" id="ai"/><path d="M108 0H70L1-190h34L89-25l56-165h34" id="aj"/><g id="t"><use transform="matrix(0.05,0,0,0.05,0,0)" xlink:href="#ac"/><use transform="matrix(0.05,0,0,0.05,5,0)" xlink:href="#ai"/><use transform="matrix(0.05,0,0,0.05,17.950000000000003,0)" xlink:href="#H"/><use transform="matrix(0.05,0,0,0.05,27.950000000000003,0)" xlink:href="#K"/><use transform="matrix(0.05,0,0,0.05,31.900000000000002,0)" xlink:href="#aa"/><use transform="matrix(0.05,0,0,0.05,35.85,0)" xlink:href="#aj"/><use transform="matrix(0.05,0,0,0.05,44.85,0)" xlink:href="#H"/><use transform="matrix(0.05,0,0,0.05,54.85,0)" xlink:href="#I"/><use transform="matrix(0.05,0,0,0.05,60.800000000000004,0)" xlink:href="#ah"/></g><g id="u"><use transform="matrix(0.05,0,0,0.05,0,0)" xlink:href="#V"/><use transform="matrix(0.05,0,0,0.05,14.950000000000001,0)" xlink:href="#J"/><use transform="matrix(0.05,0,0,0.05,24.950000000000003,0)" xlink:href="#F"/></g><g id="v"><use transform="matrix(0.05,0,0,0.05,0,0)" xlink:href="#ac"/><use transform="matrix(0.05,0,0,0.05,5,0)" xlink:href="#ai"/><use transform="matrix(0.05,0,0,0.05,17.950000000000003,0)" xlink:href="#H"/><use transform="matrix(0.05,0,0,0.05,27.950000000000003,0)" xlink:href="#K"/><use transform="matrix(0.05,0,0,0.05,31.900000000000002,0)" xlink:href="#aa"/><use transform="matrix(0.05,0,0,0.05,35.85,0)" xlink:href="#aj"/><use transform="matrix(0.05,0,0,0.05,44.85,0)" xlink:href="#H"/><use transform="matrix(0.05,0,0,0.05,54.85,0)" xlink:href="#I"/></g><g id="w"><use transform="matrix(0.05,0,0,0.05,0,0)" xlink:href="#ac"/><use transform="matrix(0.05,0,0,0.05,5,0)" xlink:href="#Y"/><use transform="matrix(0.05,0,0,0.05,19,0)" xlink:href="#I"/><use transform="matrix(0.05,0,0,0.05,24.95,0)" xlink:href="#R"/><use transform="matrix(0.05,0,0,0.05,34.95,0)" xlink:href="#H"/><use transform="matrix(0.05,0,0,0.05,44.95,0)" xlink:href="#I"/></g><g id="x"><use transform="matrix(0.05,0,0,0.05,0,0)" xlink:href="#ac"/><use transform="matrix(0.05,0,0,0.05,5,0)" xlink:href="#Z"/><use transform="matrix(0.05,0,0,0.05,17.950000000000003,0)" xlink:href="#T"/><use transform="matrix(0.05,0,0,0.05,27.950000000000003,0)" xlink:href="#R"/><use transform="matrix(0.05,0,0,0.05,37.95,0)" xlink:href="#J"/><use transform="matrix(0.05,0,0,0.05,47.95,0)" xlink:href="#G"/><use transform="matrix(0.05,0,0,0.05,52.95,0)" xlink:href="#aa"/><use transform="matrix(0.05,0,0,0.05,56.900000000000006,0)" xlink:href="#F"/><use transform="matrix(0.05,0,0,0.05,66.9,0)" xlink:href="#W"/></g><g id="y"><use transform="matrix(0.05,0,0,0.05,0,0)" xlink:href="#Y"/><use transform="matrix(0.05,0,0,0.05,14,0)" xlink:href="#I"/><use transform="matrix(0.05,0,0,0.05,19.95,0)" xlink:href="#R"/><use transform="matrix(0.05,0,0,0.05,29.950000000000003,0)" xlink:href="#H"/><use transform="matrix(0.05,0,0,0.05,39.95,0)" xlink:href="#I"/><use transform="matrix(0.05,0,0,0.05,45.900000000000006,0)" xlink:href="#U"/></g><g id="z"><use transform="matrix(0.05,0,0,0.05,0,0)" xlink:href="#ac"/><use transform="matrix(0.05,0,0,0.05,5,0)" xlink:href="#E"/><use transform="matrix(0.05,0,0,0.05,10,0)" xlink:href="#F"/><use transform="matrix(0.05,0,0,0.05,20,0)" xlink:href="#aj"/><use transform="matrix(0.05,0,0,0.05,29,0)" xlink:href="#H"/><use transform="matrix(0.05,0,0,0.05,39,0)" xlink:href="#F"/><use transform="matrix(0.05,0,0,0.05,49,0)" xlink:href="#G"/><use transform="matrix(0.05,0,0,0.05,54,0)" xlink:href="#P"/><use transform="matrix(0.05,0,0,0.05,64,0)" xlink:href="#I"/><use transform="matrix(0.05,0,0,0.05,69.95,0)" xlink:href="#ah"/></g><g id="A"><use transform="matrix(0.05,0,0,0.05,0,0)" xlink:href="#ai"/><use transform="matrix(0.05,0,0,0.05,12.950000000000001,0)" xlink:href="#H"/><use transform="matrix(0.05,0,0,0.05,22.950000000000003,0)" xlink:href="#K"/><use transform="matrix(0.05,0,0,0.05,26.900000000000002,0)" xlink:href="#aa"/><use transform="matrix(0.05,0,0,0.05,30.85,0)" xlink:href="#aj"/><use transform="matrix(0.05,0,0,0.05,39.85,0)" xlink:href="#H"/><use transform="matrix(0.05,0,0,0.05,49.85,0)" xlink:href="#I"/><use transform="matrix(0.05,0,0,0.05,55.800000000000004,0)" xlink:href="#ah"/></g><path d="M30-248c87 1 191-15 191 75 0 78-77 80-158 76V0H30v-248zm33 125c57 0 124 11 124-50 0-59-68-47-124-48v98" id="ak"/><g id="B"><use transform="matrix(0.05,0,0,0.05,0,0)" xlink:href="#ak"/><use transform="matrix(0.05,0,0,0.05,12,0)" xlink:href="#J"/><use transform="matrix(0.05,0,0,0.05,22,0)" xlink:href="#ah"/><use transform="matrix(0.05,0,0,0.05,31,0)" xlink:href="#H"/><use transform="matrix(0.05,0,0,0.05,41,0)" xlink:href="#S"/><use transform="matrix(0.05,0,0,0.05,55.95,0)" xlink:href="#H"/><use transform="matrix(0.05,0,0,0.05,65.95,0)" xlink:href="#F"/><use transform="matrix(0.05,0,0,0.05,75.95,0)" xlink:href="#G"/></g><g id="C"><use transform="matrix(0.05,0,0,0.05,0,0)" xlink:href="#X"/><use transform="matrix(0.05,0,0,0.05,12,0)" xlink:href="#ak"/><use transform="matrix(0.05,0,0,0.05,24,0)" xlink:href="#E"/></g><g id="D"><use transform="matrix(0.05,0,0,0.05,0,0)" xlink:href="#E"/><use transform="matrix(0.05,0,0,0.05,5,0)" xlink:href="#F"/><use transform="matrix(0.05,0,0,0.05,15,0)" xlink:href="#aj"/><use transform="matrix(0.05,0,0,0.05,24,0)" xlink:href="#H"/><use transform="matrix(0.05,0,0,0.05,34,0)" xlink:href="#F"/><use transform="matrix(0.05,0,0,0.05,44,0)" xlink:href="#G"/><use transform="matrix(0.05,0,0,0.05,49,0)" xlink:href="#P"/><use transform="matrix(0.05,0,0,0.05,59,0)" xlink:href="#I"/><use transform="matrix(0.05,0,0,0.05,64.95,0)" xlink:href="#ah"/></g></defs></g></svg>