<svg xmlns="http://www.w3.org/2000/svg" xmlns:xlink="http://www.w3.org/1999/xlink" xmlns:lucid="lucid" width="1620" height="1120"><g transform="translate(-200 -480)" lucid:page-tab-id="wBCec53x3I4c"><path d="M0 0h2410.63v1919.15H0z" fill="#fff"/><path d="M220 644c0-4.42 2.75-10.3 6.15-13.12l30.9-25.76c3.4-2.83 9.73-5.12 14.15-5.12H572c4.42 0 8 3.58 8 8v300.8c0 4.42-2.3 10.75-5.12 14.15l-25.76 30.9c-2.83 3.4-8.7 6.15-13.12 6.15H228c-4.42 0-8-3.58-8-8z" stroke="#333" fill="#fff"/><path d="M228 636c-4.42 0-5.25-2.3-1.85-5.12l30.9-25.76c3.4-2.83 9.73-5.12 14.15-5.12H572c4.42 0 5.47 2.53 2.34 5.66l-24.68 24.68c-3.13 3.13-9.24 5.66-13.66 5.66z" stroke="#333" fill="#e6e6e6"/><path d="M544 644c0-4.42 2.53-10.53 5.66-13.66l24.68-24.68c3.13-3.13 5.66-2.08 5.66 2.34v300.8c0 4.42-2.3 10.75-5.12 14.15l-25.76 30.9c-2.83 3.4-5.12 2.57-5.12-1.85z" stroke="#333" fill="#ccc"/><use xlink:href="#a" transform="matrix(1,0,0,1,228,644) translate(76.025 14.4)"/><path d="M680 596c0-4.42 2.75-10.3 6.15-13.12l93.3-77.76c3.4-2.83 9.73-5.12 14.15-5.12H1752c4.42 0 8 3.58 8 8v758.4c0 4.42-2.3 10.75-5.12 14.15l-77.76 93.3c-2.83 3.4-8.7 6.15-13.12 6.15H688c-4.42 0-8-3.58-8-8z" stroke="#333" fill="#fff"/><path d="M688 588c-4.42 0-5.25-2.3-1.85-5.12l93.3-77.76c3.4-2.83 9.73-5.12 14.15-5.12H1752c4.42 0 5.47 2.53 2.34 5.66l-76.68 76.68c-3.13 3.13-9.24 5.66-13.66 5.66z" stroke="#333" fill="#e6e6e6"/><path d="M1672 596c0-4.42 2.53-10.53 5.66-13.66l76.68-76.68c3.13-3.13 5.66-2.08 5.66 2.34v758.4c0 4.42-2.3 10.75-5.12 14.15l-77.76 93.3c-2.83 3.4-5.12 2.57-5.12-1.85z" stroke="#333" fill="#ccc"/><use xlink:href="#b" transform="matrix(1,0,0,1,688,596) translate(339.17283950617286 17.77777777777778)"/><path d="M1360 1322c0 9.94-49.25 18-110 18s-110-8.06-110-18v-144c0-9.94 49.25-18 110-18s110 8.06 110 18z" stroke="#333" fill="#fff"/><path d="M1360 1178c0 9.94-49.25 18-110 18s-110-8.06-110-18" stroke="#333" fill="none"/><use xlink:href="#c" transform="matrix(1,0,0,1,1145,1201) translate(44.53703703703703 72.21527777777777)"/><path d="M740 734c0-4.42 2.75-10.3 6.15-13.12l18.9-15.76c3.4-2.83 9.73-5.12 14.15-5.12H992c4.42 0 8 3.58 8 8v212.8c0 4.42-2.3 10.75-5.12 14.15l-15.76 18.9c-2.83 3.4-8.7 6.15-13.12 6.15H748c-4.42 0-8-3.58-8-8z" stroke="#333" fill="#fff"/><path d="M748 726c-4.42 0-5.25-2.3-1.85-5.12l18.9-15.76c3.4-2.83 9.73-5.12 14.15-5.12H992c4.42 0 5.47 2.53 2.34 5.66l-14.68 14.68c-3.13 3.13-9.24 5.66-13.66 5.66z" stroke="#333" fill="#e6e6e6"/><path d="M974 734c0-4.42 2.53-10.53 5.66-13.66l14.68-14.68c3.13-3.13 5.66-2.08 5.66 2.34v212.8c0 4.42-2.3 10.75-5.12 14.15l-15.76 18.9c-2.83 3.4-5.12 2.57-5.12-1.85z" stroke="#333" fill="#ccc"/><use xlink:href="#d" transform="matrix(1,0,0,1,748,734) translate(26.493827160493836 17.77777777777778)"/><use xlink:href="#e" transform="matrix(1,0,0,1,748,734) translate(110.32098765432099 17.77777777777778)"/><path d="M1120 692c0-4.42 2.75-10.3 6.15-13.12l40.5-33.76c3.4-2.83 9.73-5.12 14.15-5.12H1612c4.42 0 8 3.58 8 8v371.2c0 4.42-2.3 10.75-5.12 14.15l-33.76 40.5c-2.83 3.4-8.7 6.15-13.12 6.15h-440c-4.42 0-8-3.58-8-8z" stroke="#333" fill="#fff"/><path d="M1128 684c-4.42 0-5.25-2.3-1.85-5.12l40.5-33.76c3.4-2.83 9.73-5.12 14.15-5.12H1612c4.42 0 5.47 2.53 2.34 5.66l-32.68 32.68c-3.13 3.13-9.24 5.66-13.66 5.66z" stroke="#333" fill="#e6e6e6"/><path d="M1576 692c0-4.42 2.53-10.53 5.66-13.66l32.68-32.68c3.13-3.13 5.66-2.08 5.66 2.34v371.2c0 4.42-2.3 10.75-5.12 14.15l-33.76 40.5c-2.83 3.4-5.12 2.57-5.12-1.85z" stroke="#333" fill="#ccc"/><use xlink:href="#d" transform="matrix(1,0,0,1,1128,692) translate(71.82098765432099 17.77777777777778)"/><use xlink:href="#f" transform="matrix(1,0,0,1,1128,692) translate(155.64814814814815 17.77777777777778)"/><path d="M1180 748c0-4.42 3.58-8 8-8h344c4.42 0 8 3.58 8 8v104c0 4.42-3.58 8-8 8h-344c-4.42 0-8-3.58-8-8z" stroke="#333" fill="#fff"/><path d="M1160 768c0-4.42 3.58-8 8-8h24c4.42 0 8 3.58 8 8v4c0 4.42-3.58 8-8 8h-24c-4.42 0-8-3.58-8-8zM1160 828c0-4.42 3.58-8 8-8h24c4.42 0 8 3.58 8 8v4c0 4.42-3.58 8-8 8h-24c-4.42 0-8-3.58-8-8z" stroke="#333" fill="#fff"/><use xlink:href="#g" transform="matrix(1,0,0,1,1236,752) translate(88 52.44444444444444)"/><path d="M1180 948c0-4.42 3.58-8 8-8h344c4.42 0 8 3.58 8 8v104c0 4.42-3.58 8-8 8h-344c-4.42 0-8-3.58-8-8z" stroke="#333" fill="#fff"/><path d="M1160 968c0-4.42 3.58-8 8-8h24c4.42 0 8 3.58 8 8v4c0 4.42-3.58 8-8 8h-24c-4.42 0-8-3.58-8-8zM1160 1028c0-4.42 3.58-8 8-8h24c4.42 0 8 3.58 8 8v4c0 4.42-3.58 8-8 8h-24c-4.42 0-8-3.58-8-8z" stroke="#333" fill="#fff"/><use xlink:href="#h" transform="matrix(1,0,0,1,1236,952) translate(97.87654320987654 52.44444444444444)"/><path d="M780 808c0-4.42 3.58-8 8-8h124c4.42 0 8 3.58 8 8v104c0 4.42-3.58 8-8 8H788c-4.42 0-8-3.58-8-8z" stroke="#333" fill="#fff"/><path d="M760 828c0-4.42 3.58-8 8-8h24c4.42 0 8 3.58 8 8v4c0 4.42-3.58 8-8 8h-24c-4.42 0-8-3.58-8-8zM760 888c0-4.42 3.58-8 8-8h24c4.42 0 8 3.58 8 8v4c0 4.42-3.58 8-8 8h-24c-4.42 0-8-3.58-8-8z" stroke="#333" fill="#fff"/><use xlink:href="#i" transform="matrix(1,0,0,1,792,812) translate(25.19753086419753 52.44444444444444)"/><path d="M1300 1508c0-4.42 3.58-8 8-8h144c4.42 0 8 3.58 8 8v64c0 4.42-3.58 8-8 8h-144c-4.42 0-8-3.58-8-8z" stroke="#333" fill="#fff"/><use xlink:href="#j" transform="matrix(1,0,0,1,1300,1500) translate(15.251913580246915 45.27777777777778)"/><use xlink:href="#k" transform="matrix(1,0,0,1,1300,1500) translate(57.227222222222224 45.27777777777778)"/><path d="M1540 1468c0-4.42 3.58-8 8-8h244c4.42 0 8 3.58 8 8v104c0 4.42-3.58 8-8 8h-244c-4.42 0-8-3.58-8-8z" stroke="#333" fill="#fff"/><use xlink:href="#j" transform="matrix(1,0,0,1,1540,1460) translate(43.0296913580247 62.77777777777778)"/><use xlink:href="#l" transform="matrix(1,0,0,1,1540,1460) translate(85.00500000000001 62.77777777777778)"/><use xlink:href="#m" transform="matrix(1,0,0,1,1540,1460) translate(162.72104938271605 62.77777777777778)"/><path d="M723.12 839.5v1h-56.87v-1zm-142.12 1v-1h27.4v1zM581 840.5h-.5v-1h.5zM737.88 840l-14.26 4.64v-9.27z" fill="#333"/><path d="M739.5 840l-16.38 5.33v-10.65zm-15.38 3.95l12.14-3.94-12.14-3.94z" fill="#333"/><use xlink:href="#n" transform="matrix(1,0,0,1,608.4135802469136,826.6666666666666) translate(0.004999999999999005 17.77777777777778)"/><path d="M1032.72 810.5H1001v-1h31.72zm130.4 0h-62.5v-1h62.5zM1001 810.5h-.5v-1h.5zM1177.88 810l-14.26 4.64v-9.28z" fill="#333"/><path d="M1179.5 810l-16.38 5.32v-10.64zm-15.38 3.95l12.14-3.95-12.14-3.95z" fill="#333"/><use xlink:href="#o" transform="matrix(1,0,0,1,1032.7160493827162,796.6666666666666) translate(0.005000000000002558 17.77777777777778)"/><path d="M1350.5 923.12h-1v-17.8h1zm0-44.45h-1V861h1zM1350.5 861h-1v-.5h1zM1350 937.88l-4.64-14.26h9.28z" fill="#333"/><path d="M1350 939.5l-5.32-16.38h10.64zm-3.95-15.38l3.95 12.14 3.95-12.14z" fill="#333"/><use xlink:href="#p" transform="matrix(1,0,0,1,1320.4012345679012,878.6666666666666) translate(0.004999999999999005 17.77777777777778)"/><path d="M1250.5 1143.12h-1v-13.1h1zm0-39.77h-1V1061h1zM1250.5 1061h-1v-.5h1zM1250 1157.88l-4.64-14.26h9.28z" fill="#333"/><path d="M1250 1159.5l-5.32-16.38h10.64zm-3.95-15.38l3.95 12.14 3.95-12.14z" fill="#333"/><use xlink:href="#q" transform="matrix(1,0,0,1,1214.2592592592594,1103.3502165827788) translate(0.005000000000002558 17.77777777777778)"/><path d="M1380.5 1483.12h-1v-24.45h1zm0-80.45h-1V1061h1zM1380.5 1061h-1v-.5h1zM1380 1497.88l-4.64-14.26h9.28z" fill="#333"/><path d="M1380 1499.5l-5.32-16.38h10.64zm-3.95-15.38l3.95 12.14 3.95-12.14z" fill="#333"/><use xlink:href="#r" transform="matrix(1,0,0,1,1329.4444444444443,1402.6666666666667) translate(21.640802469135807 17.77777777777778)"/><use xlink:href="#j" transform="matrix(1,0,0,1,1329.4444444444443,1402.6666666666667) translate(0.005000000000002558 47.111111111111114)"/><use xlink:href="#s" transform="matrix(1,0,0,1,1329.4444444444443,1402.6666666666667) translate(41.98030864197531 47.111111111111114)"/><path d="M1658.03 1409.5l3.2.42 3 1.24 2.6 2 2 2.6 1.25 3 .42 3.2v21.16h-1v-21.1l-.4-3-1.14-2.76-1.83-2.4-2.4-1.82-2.75-1.14-3-.4h-39.42v-1zm-167.6-8.52l1.14 2.76 1.83 2.4 2.4 1.82 2.75 1.14 3 .4h15.9v1h-15.95l-3.2-.42-3-1.24-2.6-2-2-2.6-1.25-3-.42-3.2V1061h1v336.97zM1490.03 1061h-1v-.5h1zM1670 1457.88l-4.64-14.26h9.28z" fill="#333"/><path d="M1670 1459.5l-5.32-16.38h10.64zm-3.95-15.38l3.95 12.14 3.95-12.14z" fill="#333"/><g><use xlink:href="#r" transform="matrix(1,0,0,1,1517.4444444444443,1382) translate(21.640802469135807 17.77777777777778)"/><use xlink:href="#j" transform="matrix(1,0,0,1,1517.4444444444443,1382) translate(0.005000000000002558 47.111111111111114)"/><use xlink:href="#s" transform="matrix(1,0,0,1,1517.4444444444443,1382) translate(41.98030864197531 47.111111111111114)"/></g><path d="M300 748c0-4.42 3.58-8 8-8h164c4.42 0 8 3.58 8 8v104c0 4.42-3.58 8-8 8H308c-4.42 0-8-3.58-8-8z" stroke="#333" fill="#fff"/><path d="M280 768c0-4.42 3.58-8 8-8h24c4.42 0 8 3.58 8 8v4c0 4.42-3.58 8-8 8h-24c-4.42 0-8-3.58-8-8zM280 828c0-4.42 3.58-8 8-8h24c4.42 0 8 3.58 8 8v4c0 4.42-3.58 8-8 8h-24c-4.42 0-8-3.58-8-8z" stroke="#333" fill="#fff"/><g><use xlink:href="#t" transform="matrix(1,0,0,1,320,752) translate(2.3249999999999886 40.8)"/><use xlink:href="#u" transform="matrix(1,0,0,1,320,752) translate(100.125 40.8)"/><use xlink:href="#v" transform="matrix(1,0,0,1,320,752) translate(20.65 62.4)"/></g><defs><path d="M15-91v-56l181-69v40L49-119l147 57v40" id="w"/><path d="M24-248c120-7 223 5 221 122C244-46 201 0 124 0H24v-248zM76-40c74 7 117-18 117-86 0-67-45-88-117-82v168" id="x"/><path d="M185-48c-13 30-37 53-82 52C43 2 14-33 14-96s30-98 90-98c62 0 83 45 84 108H66c0 31 8 55 39 56 18 0 30-7 34-22zm-45-69c5-46-57-63-70-21-2 6-4 13-4 21h74" id="y"/><path d="M128 0H69L1-190h53L99-40l48-150h52" id="z"/><path d="M25-224v-37h50v37H25zM25 0v-190h50V0H25" id="A"/><path d="M190-63c-7 42-38 67-86 67-59 0-84-38-90-98-12-110 154-137 174-36l-49 2c-2-19-15-32-35-32-30 0-35 28-38 64-6 74 65 87 74 30" id="B"/><path d="M15-22v-40l146-57-146-57v-40l181 69v56" id="C"/><g id="a"><use transform="matrix(0.05,0,0,0.05,0,0)" xlink:href="#w"/><use transform="matrix(0.05,0,0,0.05,10.5,0)" xlink:href="#w"/><use transform="matrix(0.05,0,0,0.05,21,0)" xlink:href="#x"/><use transform="matrix(0.05,0,0,0.05,33.95,0)" xlink:href="#y"/><use transform="matrix(0.05,0,0,0.05,43.95,0)" xlink:href="#z"/><use transform="matrix(0.05,0,0,0.05,53.95,0)" xlink:href="#A"/><use transform="matrix(0.05,0,0,0.05,58.95,0)" xlink:href="#B"/><use transform="matrix(0.05,0,0,0.05,68.95,0)" xlink:href="#y"/><use transform="matrix(0.05,0,0,0.05,78.95,0)" xlink:href="#C"/><use transform="matrix(0.05,0,0,0.05,89.45,0)" xlink:href="#C"/></g><path fill="#333" d="M185-189c-5-48-123-54-124 2 14 75 158 14 163 119 3 78-121 87-175 55-17-10-28-26-33-46l33-7c5 56 141 63 141-1 0-78-155-14-162-118-5-82 145-84 179-34 5 7 8 16 11 25" id="D"/><path fill="#333" d="M100-194c63 0 86 42 84 106H49c0 40 14 67 53 68 26 1 43-12 49-29l28 8c-11 28-37 45-77 45C44 4 14-33 15-96c1-61 26-98 85-98zm52 81c6-60-76-77-97-28-3 7-6 17-6 28h103" id="E"/><path fill="#333" d="M114-163C36-179 61-72 57 0H25l-1-190h30c1 12-1 29 2 39 6-27 23-49 58-41v29" id="F"/><path fill="#333" d="M108 0H70L1-190h34L89-25l56-165h34" id="G"/><path fill="#333" d="M84 4C-5 8 30-112 23-190h32v120c0 31 7 50 39 49 72-2 45-101 50-169h31l1 190h-30c-1-10 1-25-2-33-11 22-28 36-60 37" id="H"/><g id="b"><use transform="matrix(0.06172839506172839,0,0,0.06172839506172839,0,0)" xlink:href="#D"/><use transform="matrix(0.06172839506172839,0,0,0.06172839506172839,14.814814814814813,0)" xlink:href="#E"/><use transform="matrix(0.06172839506172839,0,0,0.06172839506172839,27.160493827160494,0)" xlink:href="#F"/><use transform="matrix(0.06172839506172839,0,0,0.06172839506172839,34.50617283950617,0)" xlink:href="#G"/><use transform="matrix(0.06172839506172839,0,0,0.06172839506172839,45.61728395061728,0)" xlink:href="#E"/><use transform="matrix(0.06172839506172839,0,0,0.06172839506172839,57.962962962962955,0)" xlink:href="#H"/><use transform="matrix(0.06172839506172839,0,0,0.06172839506172839,70.30864197530863,0)" xlink:href="#F"/></g><path fill="#333" d="M30-248c87 1 191-15 191 75 0 78-77 80-158 76V0H30v-248zm33 125c57 0 124 11 124-50 0-59-68-47-124-48v98" id="I"/><path fill="#333" d="M100-194c62-1 85 37 85 99 1 63-27 99-86 99S16-35 15-95c0-66 28-99 85-99zM99-20c44 1 53-31 53-75 0-43-8-75-51-75s-53 32-53 75 10 74 51 75" id="J"/><path fill="#333" d="M135-143c-3-34-86-38-87 0 15 53 115 12 119 90S17 21 10-45l28-5c4 36 97 45 98 0-10-56-113-15-118-90-4-57 82-63 122-42 12 7 21 19 24 35" id="K"/><path fill="#333" d="M59-47c-2 24 18 29 38 22v24C64 9 27 4 27-40v-127H5v-23h24l9-43h21v43h35v23H59v120" id="L"/><path fill="#333" d="M177-190C167-65 218 103 67 71c-23-6-38-20-44-43l32-5c15 47 100 32 89-28v-30C133-14 115 1 83 1 29 1 15-40 15-95c0-56 16-97 71-98 29-1 48 16 59 35 1-10 0-23 2-32h30zM94-22c36 0 50-32 50-73 0-42-14-75-50-75-39 0-46 34-46 75s6 73 46 73" id="M"/><path fill="#333" d="M140-251c81 0 123 46 123 126C263-53 228-8 163 1c7 30 30 48 69 40v23c-55 16-95-15-103-61C56-3 17-48 17-125c0-80 42-126 123-126zm0 227c63 0 89-41 89-101s-29-99-89-99c-61 0-89 39-89 99S79-25 140-24" id="N"/><path fill="#333" d="M30 0v-248h33v221h125V0H30" id="O"/><g id="c"><use transform="matrix(0.06172839506172839,0,0,0.06172839506172839,0,0)" xlink:href="#I"/><use transform="matrix(0.06172839506172839,0,0,0.06172839506172839,14.814814814814813,0)" xlink:href="#J"/><use transform="matrix(0.06172839506172839,0,0,0.06172839506172839,27.160493827160494,0)" xlink:href="#K"/><use transform="matrix(0.06172839506172839,0,0,0.06172839506172839,38.27160493827161,0)" xlink:href="#L"/><use transform="matrix(0.06172839506172839,0,0,0.06172839506172839,44.44444444444445,0)" xlink:href="#M"/><use transform="matrix(0.06172839506172839,0,0,0.06172839506172839,56.79012345679013,0)" xlink:href="#F"/><use transform="matrix(0.06172839506172839,0,0,0.06172839506172839,64.13580246913581,0)" xlink:href="#E"/><use transform="matrix(0.06172839506172839,0,0,0.06172839506172839,76.4814814814815,0)" xlink:href="#D"/><use transform="matrix(0.06172839506172839,0,0,0.06172839506172839,91.2962962962963,0)" xlink:href="#N"/><use transform="matrix(0.06172839506172839,0,0,0.06172839506172839,108.58024691358025,0)" xlink:href="#O"/></g><g id="d"><use transform="matrix(0.06172839506172839,0,0,0.06172839506172839,0,0)" xlink:href="#D"/><use transform="matrix(0.06172839506172839,0,0,0.06172839506172839,14.814814814814813,0)" xlink:href="#E"/><use transform="matrix(0.06172839506172839,0,0,0.06172839506172839,27.160493827160494,0)" xlink:href="#F"/><use transform="matrix(0.06172839506172839,0,0,0.06172839506172839,34.50617283950617,0)" xlink:href="#G"/><use transform="matrix(0.06172839506172839,0,0,0.06172839506172839,45.61728395061728,0)" xlink:href="#E"/><use transform="matrix(0.06172839506172839,0,0,0.06172839506172839,57.962962962962955,0)" xlink:href="#H"/><use transform="matrix(0.06172839506172839,0,0,0.06172839506172839,70.30864197530863,0)" xlink:href="#F"/></g><path fill="#333" d="M266 0h-40l-56-210L115 0H75L2-248h35L96-30l15-64 43-154h32l59 218 59-218h35" id="P"/><path fill="#333" d="M115-194c53 0 69 39 70 98 0 66-23 100-70 100C84 3 66-7 56-30L54 0H23l1-261h32v101c10-23 28-34 59-34zm-8 174c40 0 45-34 45-75 0-40-5-75-45-74-42 0-51 32-51 76 0 43 10 73 51 73" id="Q"/><g id="e"><use transform="matrix(0.06172839506172839,0,0,0.06172839506172839,0,0)" xlink:href="#P"/><use transform="matrix(0.06172839506172839,0,0,0.06172839506172839,20.493827160493826,0)" xlink:href="#E"/><use transform="matrix(0.06172839506172839,0,0,0.06172839506172839,32.839506172839506,0)" xlink:href="#Q"/></g><path fill="#333" d="M85-194c31 0 48 13 60 33l-1-100h32l1 261h-30c-2-10 0-23-3-31C134-8 116 4 85 4 32 4 16-35 15-94c0-66 23-100 70-100zm9 24c-40 0-46 34-46 75 0 40 6 74 45 74 42 0 51-32 51-76 0-42-9-74-50-73" id="R"/><path fill="#333" d="M47-170H22l-4-78h33" id="S"/><path fill="#333" d="M141-36C126-15 110 5 73 4 37 3 15-17 15-53c-1-64 63-63 125-63 3-35-9-54-41-54-24 1-41 7-42 31l-33-3c5-37 33-52 76-52 45 0 72 20 72 64v82c-1 20 7 32 28 27v20c-31 9-61-2-59-35zM48-53c0 20 12 33 32 33 41-3 63-29 60-74-43 2-92-5-92 41" id="T"/><path fill="#333" d="M115-194c55 1 70 41 70 98S169 2 115 4C84 4 66-9 55-30l1 105H24l-1-265h31l2 30c10-21 28-34 59-34zm-8 174c40 0 45-34 45-75s-6-73-45-74c-42 0-51 32-51 76 0 43 10 73 51 73" id="U"/><path fill="#333" d="M24 0v-261h32V0H24" id="V"/><path fill="#333" d="M24-231v-30h32v30H24zM24 0v-190h32V0H24" id="W"/><path fill="#333" d="M96-169c-40 0-48 33-48 73s9 75 48 75c24 0 41-14 43-38l32 2c-6 37-31 61-74 61-59 0-76-41-82-99-10-93 101-131 147-64 4 7 5 14 7 22l-32 3c-4-21-16-35-41-35" id="X"/><path fill="#333" d="M117-194c89-4 53 116 60 194h-32v-121c0-31-8-49-39-48C34-167 62-67 57 0H25l-1-190h30c1 10-1 24 2 32 11-22 29-35 61-36" id="Y"/><g id="f"><use transform="matrix(0.06172839506172839,0,0,0.06172839506172839,0,0)" xlink:href="#R"/><use transform="matrix(0.06172839506172839,0,0,0.06172839506172839,12.345679012345679,0)" xlink:href="#S"/><use transform="matrix(0.06172839506172839,0,0,0.06172839506172839,16.54320987654321,0)" xlink:href="#T"/><use transform="matrix(0.06172839506172839,0,0,0.06172839506172839,28.888888888888886,0)" xlink:href="#U"/><use transform="matrix(0.06172839506172839,0,0,0.06172839506172839,41.23456790123456,0)" xlink:href="#U"/><use transform="matrix(0.06172839506172839,0,0,0.06172839506172839,53.58024691358024,0)" xlink:href="#V"/><use transform="matrix(0.06172839506172839,0,0,0.06172839506172839,58.456790123456784,0)" xlink:href="#W"/><use transform="matrix(0.06172839506172839,0,0,0.06172839506172839,63.33333333333333,0)" xlink:href="#X"/><use transform="matrix(0.06172839506172839,0,0,0.06172839506172839,74.44444444444444,0)" xlink:href="#T"/><use transform="matrix(0.06172839506172839,0,0,0.06172839506172839,86.79012345679013,0)" xlink:href="#L"/><use transform="matrix(0.06172839506172839,0,0,0.06172839506172839,92.96296296296296,0)" xlink:href="#W"/><use transform="matrix(0.06172839506172839,0,0,0.06172839506172839,97.8395061728395,0)" xlink:href="#J"/><use transform="matrix(0.06172839506172839,0,0,0.06172839506172839,110.18518518518519,0)" xlink:href="#Y"/></g><path fill="#333" d="M143 4C61 4 22-44 18-125c-5-107 100-154 193-111 17 8 29 25 37 43l-32 9c-13-25-37-40-76-40-61 0-88 39-88 99 0 61 29 100 91 101 35 0 62-11 79-27v-45h-74v-28h105v86C228-13 192 4 143 4" id="Z"/><g id="g"><use transform="matrix(0.06172839506172839,0,0,0.06172839506172839,0,0)" xlink:href="#Z"/><use transform="matrix(0.06172839506172839,0,0,0.06172839506172839,17.28395061728395,0)" xlink:href="#H"/><use transform="matrix(0.06172839506172839,0,0,0.06172839506172839,29.629629629629626,0)" xlink:href="#Y"/><use transform="matrix(0.06172839506172839,0,0,0.06172839506172839,41.9753086419753,0)" xlink:href="#W"/><use transform="matrix(0.06172839506172839,0,0,0.06172839506172839,46.85185185185185,0)" xlink:href="#X"/><use transform="matrix(0.06172839506172839,0,0,0.06172839506172839,57.96296296296296,0)" xlink:href="#J"/><use transform="matrix(0.06172839506172839,0,0,0.06172839506172839,70.30864197530865,0)" xlink:href="#F"/><use transform="matrix(0.06172839506172839,0,0,0.06172839506172839,77.65432098765433,0)" xlink:href="#Y"/></g><path fill="#333" d="M30-248c118-7 216 8 213 122C240-48 200 0 122 0H30v-248zM63-27c89 8 146-16 146-99s-60-101-146-95v194" id="aa"/><path fill="#333" d="M24-231v-30h32v30H24zM-9 49c24 4 33-6 33-30v-209h32V24c2 40-23 58-65 49V49" id="ab"/><g id="h"><use transform="matrix(0.06172839506172839,0,0,0.06172839506172839,0,0)" xlink:href="#aa"/><use transform="matrix(0.06172839506172839,0,0,0.06172839506172839,15.987654320987653,0)" xlink:href="#ab"/><use transform="matrix(0.06172839506172839,0,0,0.06172839506172839,20.864197530864196,0)" xlink:href="#T"/><use transform="matrix(0.06172839506172839,0,0,0.06172839506172839,33.20987654320987,0)" xlink:href="#Y"/><use transform="matrix(0.06172839506172839,0,0,0.06172839506172839,45.55555555555555,0)" xlink:href="#M"/><use transform="matrix(0.06172839506172839,0,0,0.06172839506172839,57.90123456790123,0)" xlink:href="#J"/></g><path fill="#333" d="M190 0L58-211 59 0H30v-248h39L202-35l-2-213h31V0h-41" id="ac"/><path fill="#333" d="M141 0L90-78 38 0H4l68-98-65-92h35l48 74 47-74h35l-64 92 68 98h-35" id="ad"/><g id="i"><use transform="matrix(0.06172839506172839,0,0,0.06172839506172839,0,0)" xlink:href="#ac"/><use transform="matrix(0.06172839506172839,0,0,0.06172839506172839,15.987654320987653,0)" xlink:href="#Z"/><use transform="matrix(0.06172839506172839,0,0,0.06172839506172839,33.2716049382716,0)" xlink:href="#W"/><use transform="matrix(0.06172839506172839,0,0,0.06172839506172839,38.148148148148145,0)" xlink:href="#Y"/><use transform="matrix(0.06172839506172839,0,0,0.06172839506172839,50.49382716049382,0)" xlink:href="#ad"/></g><path fill="#333" d="M205 0l-28-72H64L36 0H1l101-248h38L239 0h-34zm-38-99l-47-123c-12 45-31 82-46 123h93" id="ae"/><path fill="#333" d="M33 0v-248h34V0H33" id="af"/><g id="j"><use transform="matrix(0.06172839506172839,0,0,0.06172839506172839,0,0)" xlink:href="#ae"/><use transform="matrix(0.06172839506172839,0,0,0.06172839506172839,14.814814814814813,0)" xlink:href="#I"/><use transform="matrix(0.06172839506172839,0,0,0.06172839506172839,29.629629629629626,0)" xlink:href="#af"/></g><path fill="#333" d="M160-131c35 5 61 23 61 61C221 17 115-2 30 0v-248c76 3 177-17 177 60 0 33-19 50-47 57zm-97-11c50-1 110 9 110-42 0-47-63-36-110-37v79zm0 115c55-2 124 14 124-45 0-56-70-42-124-44v89" id="ag"/><g id="k"><use transform="matrix(0.06172839506172839,0,0,0.06172839506172839,0,0)" xlink:href="#ag"/><use transform="matrix(0.06172839506172839,0,0,0.06172839506172839,14.814814814814813,0)" xlink:href="#T"/><use transform="matrix(0.06172839506172839,0,0,0.06172839506172839,27.160493827160494,0)" xlink:href="#Y"/><use transform="matrix(0.06172839506172839,0,0,0.06172839506172839,39.50617283950617,0)" xlink:href="#X"/><use transform="matrix(0.06172839506172839,0,0,0.06172839506172839,50.61728395061728,0)" xlink:href="#T"/><use transform="matrix(0.06172839506172839,0,0,0.06172839506172839,62.962962962962955,0)" xlink:href="#W"/><use transform="matrix(0.06172839506172839,0,0,0.06172839506172839,67.83950617283949,0)" xlink:href="#F"/><use transform="matrix(0.06172839506172839,0,0,0.06172839506172839,75.18518518518518,0)" xlink:href="#E"/></g><g id="l"><use transform="matrix(0.06172839506172839,0,0,0.06172839506172839,0,0)" xlink:href="#Z"/><use transform="matrix(0.06172839506172839,0,0,0.06172839506172839,17.28395061728395,0)" xlink:href="#J"/><use transform="matrix(0.06172839506172839,0,0,0.06172839506172839,29.629629629629626,0)" xlink:href="#J"/><use transform="matrix(0.06172839506172839,0,0,0.06172839506172839,41.9753086419753,0)" xlink:href="#M"/><use transform="matrix(0.06172839506172839,0,0,0.06172839506172839,54.32098765432098,0)" xlink:href="#V"/><use transform="matrix(0.06172839506172839,0,0,0.06172839506172839,59.197530864197525,0)" xlink:href="#E"/></g><path fill="#333" d="M240 0l2-218c-23 76-54 145-80 218h-23L58-218 59 0H30v-248h44l77 211c21-75 51-140 76-211h43V0h-30" id="ah"/><g id="m"><use transform="matrix(0.06172839506172839,0,0,0.06172839506172839,0,0)" xlink:href="#ah"/><use transform="matrix(0.06172839506172839,0,0,0.06172839506172839,18.456790123456788,0)" xlink:href="#T"/><use transform="matrix(0.06172839506172839,0,0,0.06172839506172839,30.80246913580247,0)" xlink:href="#U"/><use transform="matrix(0.06172839506172839,0,0,0.06172839506172839,43.148148148148145,0)" xlink:href="#K"/></g><path fill="#333" d="M197 0v-115H63V0H30v-248h33v105h134v-105h34V0h-34" id="ai"/><path fill="#333" d="M127-220V0H93v-220H8v-28h204v28h-85" id="aj"/><g id="n"><use transform="matrix(0.06172839506172839,0,0,0.06172839506172839,0,0)" xlink:href="#ai"/><use transform="matrix(0.06172839506172839,0,0,0.06172839506172839,15.987654320987653,0)" xlink:href="#aj"/><use transform="matrix(0.06172839506172839,0,0,0.06172839506172839,29.50617283950617,0)" xlink:href="#aj"/><use transform="matrix(0.06172839506172839,0,0,0.06172839506172839,43.02469135802469,0)" xlink:href="#I"/></g><path fill="#333" d="M143 0L79-87 56-68V0H24v-261h32v163l83-92h37l-77 82L181 0h-38" id="ak"/><g id="o"><use transform="matrix(0.06172839506172839,0,0,0.06172839506172839,0,0)" xlink:href="#D"/><use transform="matrix(0.06172839506172839,0,0,0.06172839506172839,14.814814814814813,0)" xlink:href="#J"/><use transform="matrix(0.06172839506172839,0,0,0.06172839506172839,27.160493827160494,0)" xlink:href="#X"/><use transform="matrix(0.06172839506172839,0,0,0.06172839506172839,38.27160493827161,0)" xlink:href="#ak"/><use transform="matrix(0.06172839506172839,0,0,0.06172839506172839,49.38271604938272,0)" xlink:href="#E"/><use transform="matrix(0.06172839506172839,0,0,0.06172839506172839,61.7283950617284,0)" xlink:href="#L"/></g><g id="p"><use transform="matrix(0.06172839506172839,0,0,0.06172839506172839,0,0)" xlink:href="#P"/><use transform="matrix(0.06172839506172839,0,0,0.06172839506172839,20.925925925925924,0)" xlink:href="#D"/><use transform="matrix(0.06172839506172839,0,0,0.06172839506172839,35.74074074074073,0)" xlink:href="#Z"/><use transform="matrix(0.06172839506172839,0,0,0.06172839506172839,53.02469135802468,0)" xlink:href="#af"/></g><path fill="#333" d="M212-179c-10-28-35-45-73-45-59 0-87 40-87 99 0 60 29 101 89 101 43 0 62-24 78-52l27 14C228-24 195 4 139 4 59 4 22-46 18-125c-6-104 99-153 187-111 19 9 31 26 39 46" id="al"/><path fill="#333" d="M0 4l72-265h28L28 4H0" id="am"/><g id="q"><use transform="matrix(0.06172839506172839,0,0,0.06172839506172839,0,0)" xlink:href="#aj"/><use transform="matrix(0.06172839506172839,0,0,0.06172839506172839,13.518518518518517,0)" xlink:href="#al"/><use transform="matrix(0.06172839506172839,0,0,0.06172839506172839,29.50617283950617,0)" xlink:href="#I"/><use transform="matrix(0.06172839506172839,0,0,0.06172839506172839,44.32098765432099,0)" xlink:href="#am"/><use transform="matrix(0.06172839506172839,0,0,0.06172839506172839,50.49382716049383,0)" xlink:href="#af"/><use transform="matrix(0.06172839506172839,0,0,0.06172839506172839,56.66666666666667,0)" xlink:href="#I"/></g><g id="r"><use transform="matrix(0.06172839506172839,0,0,0.06172839506172839,0,0)" xlink:href="#ai"/><use transform="matrix(0.06172839506172839,0,0,0.06172839506172839,15.987654320987653,0)" xlink:href="#aj"/><use transform="matrix(0.06172839506172839,0,0,0.06172839506172839,29.50617283950617,0)" xlink:href="#aj"/><use transform="matrix(0.06172839506172839,0,0,0.06172839506172839,43.02469135802469,0)" xlink:href="#I"/></g><path fill="#333" d="M233-177c-1 41-23 64-60 70L243 0h-38l-65-103H63V0H30v-248c88 3 205-21 203 71zM63-129c60-2 137 13 137-47 0-61-80-42-137-45v92" id="an"/><path fill="#333" d="M30 0v-248h187v28H63v79h144v27H63v87h162V0H30" id="ao"/><g id="s"><use transform="matrix(0.06172839506172839,0,0,0.06172839506172839,0,0)" xlink:href="#an"/><use transform="matrix(0.06172839506172839,0,0,0.06172839506172839,15.987654320987653,0)" xlink:href="#ao"/><use transform="matrix(0.06172839506172839,0,0,0.06172839506172839,30.80246913580247,0)" xlink:href="#D"/><use transform="matrix(0.06172839506172839,0,0,0.06172839506172839,45.61728395061728,0)" xlink:href="#aj"/></g><path d="M175 0L67-191c6 58 2 128 3 191H24v-248h59L193-55c-6-58-2-129-3-193h46V0h-61" id="ap"/><path d="M133-34C117-15 103 5 69 4 32 3 11-16 11-54c-1-60 55-63 116-61 1-26-3-47-28-47-18 1-26 9-28 27l-52-2c7-38 36-58 82-57s74 22 75 68l1 82c-1 14 12 18 25 15v27c-30 8-71 5-69-32zm-48 3c29 0 43-24 42-57-32 0-66-3-65 30 0 17 8 27 23 27" id="aq"/><path d="M195-6C206 82 75 100 31 46c-4-6-6-13-8-21l49-6c3 16 16 24 34 25 40 0 42-37 40-79-11 22-30 35-61 35-53 0-70-43-70-97 0-56 18-96 73-97 30 0 46 14 59 34l2-30h47zm-90-29c32 0 41-27 41-63 0-35-9-62-40-62-32 0-39 29-40 63 0 36 9 62 39 62" id="ar"/><path d="M115-3C79 11 28 4 28-45v-112H4v-33h27l15-45h31v45h36v33H77v99c-1 23 16 31 38 25v30" id="as"/><path d="M85 4C-2 5 27-109 22-190h50c7 57-23 150 33 157 60-5 35-97 40-157h50l1 190h-47c-2-12 1-28-3-38-12 25-28 42-61 42" id="at"/><path d="M135-150c-39-12-60 13-60 57V0H25l-1-190h47c2 13-1 29 3 40 6-28 27-53 61-41v41" id="au"/><g id="t"><use transform="matrix(0.05,0,0,0.05,0,0)" xlink:href="#ap"/><use transform="matrix(0.05,0,0,0.05,12.950000000000001,0)" xlink:href="#aq"/><use transform="matrix(0.05,0,0,0.05,22.950000000000003,0)" xlink:href="#z"/><use transform="matrix(0.05,0,0,0.05,32.95,0)" xlink:href="#A"/><use transform="matrix(0.05,0,0,0.05,37.95,0)" xlink:href="#ar"/><use transform="matrix(0.05,0,0,0.05,48.900000000000006,0)" xlink:href="#aq"/><use transform="matrix(0.05,0,0,0.05,58.900000000000006,0)" xlink:href="#as"/><use transform="matrix(0.05,0,0,0.05,64.85000000000001,0)" xlink:href="#y"/><use transform="matrix(0.05,0,0,0.05,74.85000000000001,0)" xlink:href="#at"/><use transform="matrix(0.05,0,0,0.05,85.80000000000001,0)" xlink:href="#au"/></g><path d="M275 0h-61l-44-196L126 0H64L0-248h53L97-49l45-199h58l43 199 44-199h52" id="av"/><path d="M135-194c52 0 70 43 70 98 0 56-19 99-73 100-30 1-46-15-58-35L72 0H24l1-261h50v104c11-23 29-37 60-37zM114-30c31 0 40-27 40-66 0-37-7-63-39-63s-41 28-41 65c0 36 8 64 40 64" id="aw"/><g id="u"><use transform="matrix(0.05,0,0,0.05,0,0)" xlink:href="#av"/><use transform="matrix(0.05,0,0,0.05,16.599999999999998,0)" xlink:href="#y"/><use transform="matrix(0.05,0,0,0.05,26.599999999999994,0)" xlink:href="#aw"/></g><path d="M67-93c0 74 22 123 53 168H70C40 30 18-18 18-93s22-123 52-168h50c-32 44-53 94-53 168" id="ax"/><path d="M24-248c93 1 206-16 204 79-1 75-69 88-152 82V0H24v-248zm52 121c47 0 100 7 100-41 0-47-54-39-100-39v80" id="ay"/><path d="M67-125c0 53 21 87 73 88 37 1 54-22 65-47l45 17C233-25 199 4 140 4 58 4 20-42 15-125 8-235 124-281 211-232c18 10 29 29 36 50l-46 12c-8-25-30-41-62-41-52 0-71 34-72 86" id="az"/><path d="M4 7l51-268h42L46 7H4" id="aA"/><path d="M230 0l2-204L168 0h-37L68-204 70 0H24v-248h70l56 185 57-185h69V0h-46" id="aB"/><path d="M110-194c64 0 96 36 96 99 0 64-35 99-97 99-61 0-95-36-95-99 0-62 34-99 96-99zm-1 164c35 0 45-28 45-65 0-40-10-65-43-65-34 0-45 26-45 65 0 36 10 65 43 65" id="aC"/><path d="M25 0v-261h50V0H25" id="aD"/><path d="M102-93c0 74-22 123-52 168H0C30 29 54-18 53-93c0-74-22-123-53-168h50c30 45 52 94 52 168" id="aE"/><g id="v"><use transform="matrix(0.05,0,0,0.05,0,0)" xlink:href="#ax"/><use transform="matrix(0.05,0,0,0.05,5.95,0)" xlink:href="#ay"/><use transform="matrix(0.05,0,0,0.05,17.95,0)" xlink:href="#az"/><use transform="matrix(0.05,0,0,0.05,30.899999999999995,0)" xlink:href="#aA"/><use transform="matrix(0.05,0,0,0.05,35.9,0)" xlink:href="#aB"/><use transform="matrix(0.05,0,0,0.05,50.85,0)" xlink:href="#aC"/><use transform="matrix(0.05,0,0,0.05,61.800000000000004,0)" xlink:href="#aw"/><use transform="matrix(0.05,0,0,0.05,72.75,0)" xlink:href="#A"/><use transform="matrix(0.05,0,0,0.05,77.75,0)" xlink:href="#aD"/><use transform="matrix(0.05,0,0,0.05,82.75,0)" xlink:href="#y"/><use transform="matrix(0.05,0,0,0.05,92.75,0)" xlink:href="#aE"/></g></defs></g></svg>