<svg xmlns="http://www.w3.org/2000/svg" xmlns:xlink="http://www.w3.org/1999/xlink" xmlns:lucid="lucid" width="2340" height="1300"><g transform="translate(40 -100)" lucid:page-tab-id="0_0"><path d="M-1806.4 0h5483.2v2582.4h-5483.2z" fill="#fff"/><path d="M300 180h1640v1200H300z" stroke="#000" stroke-width="2" fill="#fff"/><path d="M1930 190h-15v20h15z" stroke="#000" fill="#fff"/><path d="M1920 193.33h-10v3.34h10zm0 10h-10v3.34h10z" stroke="#000" fill="#fff"/><use xlink:href="#a" transform="matrix(1,0,0,1,300,180) translate(768.73 19.41)"/><use xlink:href="#b" transform="matrix(1,0,0,1,300,180) translate(804.6800000000001 19.41)"/><path d="M2025 728.45h240v60h-240z" fill="none"/><use xlink:href="#c" transform="matrix(1,0,0,1,2025,728.4500000000003) translate(62.525 33.6)"/><use xlink:href="#d" transform="matrix(1,0,0,1,2025,728.4500000000003) translate(148.475 33.6)"/><path d="M1694.03 378.4h240v60h-240z" fill="none"/><use xlink:href="#e" transform="matrix(1,0,0,1,1694.032132877609,378.40000000000003) translate(67.07499999999999 33.6)"/><path d="M640 571.6h240v60H640z" fill="none"/><use xlink:href="#f" transform="matrix(1,0,0,1,640,571.5999999999998) translate(63.574999999999996 33.6)"/><path d="M1694.03 727.6h240v60h-240z" fill="none"/><use xlink:href="#g" transform="matrix(1,0,0,1,1694.032132877609,727.5999999999535) translate(70.07499999999999 33.6)"/><path d="M1249.04 780h240v60h-240z" fill="none"/><use xlink:href="#h" transform="matrix(1,0,0,1,1249.0356858636223,780) translate(51.57499999999999 33.6)"/><path d="M2040 388.4h240v60h-240z" fill="none"/><use xlink:href="#i" transform="matrix(1,0,0,1,2040,388.40000000000003) translate(66.55 22.799999999999997)"/><use xlink:href="#j" transform="matrix(1,0,0,1,2040,388.40000000000003) translate(129.5 22.799999999999997)"/><use xlink:href="#k" transform="matrix(1,0,0,1,2040,388.40000000000003) translate(105.5 44.4)"/><path d="M820.95 720h240v60h-240z" fill="none"/><use xlink:href="#l" transform="matrix(1,0,0,1,820.9548542309971,720) translate(59.574999999999996 33.6)"/><path d="M1114.04 378.4h240v60h-240z" fill="none"/><use xlink:href="#m" transform="matrix(1,0,0,1,1114.0356858636223,378.40000000000003) translate(92.1 33.6)"/><path d="M200 1008c0 6.63-26.86 12-60 12s-60-5.37-60-12v-96c0-6.63 26.86-12 60-12s60 5.37 60 12z" stroke="#000" stroke-width="2" fill="#fff"/><path d="M200 912c0 6.63-26.86 12-60 12s-60-5.37-60-12" stroke="#000" stroke-width="2" fill="none"/><use xlink:href="#n" transform="matrix(1,0,0,1,85,929) translate(16.525 35.9)"/><use xlink:href="#o" transform="matrix(1,0,0,1,85,929) translate(6.024999999999999 57.5)"/><path d="M-20 120h160v120H-20z" stroke="#000" stroke-width="2" fill="#fff"/><path d="M130 130h-15v20h15z" stroke="#000" fill="#fff"/><path d="M120 133.33h-10v3.34h10zm0 10h-10v3.34h10z" stroke="#000" fill="#fff"/><use xlink:href="#p" transform="matrix(1,0,0,1,-20,120) translate(23.78 63.15)"/><use xlink:href="#q" transform="matrix(1,0,0,1,-20,120) translate(70.38 63.15)"/><path d="M585.84 340h220v118.4h-220z" stroke="#000" stroke-width="2" fill="#fff"/><path d="M795.84 350h-15v20h15z" stroke="#000" fill="#fff"/><path d="M785.84 353.33h-10v3.34h10zm0 10h-10v3.34h10z" stroke="#000" fill="#fff"/><use xlink:href="#r" transform="matrix(1,0,0,1,585.8402220728825,339.9999999999999) translate(46.07999999999999 62.74375)"/><path d="M1039.04 648.4h240v120h-240z" stroke="#000" stroke-width="2" fill="#fff"/><path d="M1269.04 658.4h-15v20h15z" stroke="#000" fill="#fff"/><path d="M1259.04 661.73h-10v3.34h10zm0 10h-10v3.34h10z" stroke="#000" fill="#fff"/><use xlink:href="#s" transform="matrix(1,0,0,1,1039.0356858636223,648.4000000000001) translate(39.605 63.15)"/><use xlink:href="#t" transform="matrix(1,0,0,1,1039.0356858636223,648.4000000000001) translate(95.505 63.15)"/><path d="M1249.04 948.4h260v160h-260z" stroke="#000" stroke-width="2" fill="#fff"/><path d="M1499.04 958.4h-15v20h15z" stroke="#000" fill="#fff"/><path d="M1489.04 961.73h-10v3.34h10zm0 10h-10v3.34h10z" stroke="#000" fill="#fff"/><use xlink:href="#u" transform="matrix(1,0,0,1,1249.0356858636223,948.4000000000001) translate(41.57999999999999 84.4)"/><use xlink:href="#t" transform="matrix(1,0,0,1,1249.0356858636223,948.4000000000001) translate(113.53 84.4)"/><path d="M1314.03 308.4h260v120h-260z" stroke="#000" stroke-width="2" fill="#fff"/><path d="M1564.03 318.4h-15v20h15z" stroke="#000" fill="#fff"/><path d="M1554.03 321.73h-10v3.34h10zm0 10h-10v3.34h10z" stroke="#000" fill="#fff"/><use xlink:href="#v" transform="matrix(1,0,0,1,1314.0321328776085,308.40000000000003) translate(40.15499999999998 63.15)"/><use xlink:href="#t" transform="matrix(1,0,0,1,1314.0321328776085,308.40000000000003) translate(114.955 63.15)"/><path d="M1649.04 1188.4h160v120.1h-160z" stroke="#000" stroke-width="2" fill="#fff"/><path d="M1799.04 1198.4h-15v20h15z" stroke="#000" fill="#fff"/><path d="M1789.04 1201.73h-10v3.34h10zm0 10h-10v3.34h10z" stroke="#000" fill="#fff"/><use xlink:href="#w" transform="matrix(1,0,0,1,1649.0356858636223,1188.4) translate(57.505 63.55625)"/><path d="M1489.04 1008.4h40v40h-40zM1920 688.45h40v40h-40zM280 380h40v40h-40zM1135 628.4h40v40h-40zM1294.03 348.4h40v40h-40zM1229.04 1008.4h40v40h-40zM1629.04 1228.5h40v40h-40zM1354.04 928.4h40v40h-40zM40 220h40v40H40zM280 940h40v40h-40zM700 440v40h-40v-40zM1014.04 688.4h40v40h-40zM963.97 708.4h-10m-40 0c0-11.05 8.96-20 20-20 11.05 0 20 8.95 20 20s-8.95 20-20 20c-11.04 0-20-8.95-20-20z" stroke="#000" stroke-width="2" fill="#fff"/><path d="M963.97 709.2h-10v-1.6h10z" fill="none"/><g fill="none"><path d="M815.84 707.6h-10m30 20c-11.05 0-20-8.95-20-20s8.95-20 20-20" stroke="#000" stroke-width="2"/><path d="M835.84 727.6c-11.05 0-20-8.95-20-20s8.95-20 20-20zM815.84 708.4h-10v-1.6h10z"/></g><path d="M821.9 707.6h3.73m7.45 0h7.45m7.44 0h7.45m7.45 0H867v-.04h3.28m7.45 0h7.45m7.45 0h7.45m7.45 0h3.72M821.93 707.6h-4.03M893.9 717.74l17.2-10.18-17.2-10.18M964.97 708.4h47.07" stroke="#000" stroke-width="2" fill="none"/><path d="M965 709.4h-1.03v-2H965zM1013.04 709.4H1012v-2h1.04z"/><g fill="none"><path d="M1155 578.4v10m20-30c0 11.05-8.96 20-20 20-11.05 0-20-8.95-20-20" stroke="#000" stroke-width="2"/><path d="M1175 558.4c0 11.05-8.96 20-20 20-11.05 0-20-8.95-20-20zM1155.8 578.4v10h-1.6v-10z"/></g><path d="M1264.04 368.4h-10m-40 0c0-11.05 8.95-20 20-20 11.04 0 20 8.95 20 20s-8.96 20-20 20c-11.05 0-20-8.95-20-20z" stroke="#000" stroke-width="2" fill="#fff"/><path d="M1264.04 369.2h-10v-1.6h10z" fill="none"/><path d="M1155 626.4v-37" stroke="#000" stroke-width="2" fill="none"/><path d="M1156 627.4h-2v-1.03h2zM1156 589.43h-2v-1.03h2z"/><path d="M1155 572.34v-4.05m0-8.1v-8.1m0-8.1v-8.1m0-8.1v-8.1m0-8.1v-8.1m0-8.1v-8.1m0-8.1v-8.1m0-8.1v-8.1m0-8.08v-8.1m0-8.1v-8.1m0-8.1v-8.1m0-8.1v-8.1m0-8.1v-8.1m3.62-4.46h8.1m8.1 0h8.1m8.1 0h8.1m8.1 0h4.04M1155 572.3v4.04M1193.9 379.64l17.2-10.18-17.2-10.18M1265.04 368.4h27" stroke="#000" stroke-width="2" fill="none"/><path d="M1265.06 369.4h-1.02v-2h1.02zM1293.03 369.4H1292v-2h1.03z"/><path d="M1135 748.4h40v40h-40zM1709.04 1168.4h40v40h-40z" stroke="#000" stroke-width="2" fill="#fff"/><path d="M1589.04 1128.4v11M1589.04 1173.4v5" stroke="#000" stroke-width="2" fill="none"/><path d="M1603.04 1153.4c0 7.73-6.27 14-14 14-7.74 0-14-6.27-14-14s6.26-14 14-14c7.73 0 14 6.27 14 14z" stroke="#000" stroke-width="2" fill="#fff"/><path d="M1569.04 1153.4c0 11.05 8.95 20 20 20 11.04 0 20-8.95 20-20" stroke="#000" stroke-width="2" fill="none"/><path d="M1589.84 1128.4v11h-1.6v-11z" fill="none"/><path d="M1649.04 1028.4h11M1694.04 1028.4h5" stroke="#000" stroke-width="2" fill="none"/><path d="M1674.04 1014.4c7.73 0 14 6.27 14 14s-6.27 14-14 14c-7.74 0-14-6.27-14-14s6.26-14 14-14z" stroke="#000" stroke-width="2" fill="#fff"/><path d="M1674.04 1048.4c11.04 0 20-8.95 20-20s-8.96-20-20-20" stroke="#000" stroke-width="2" fill="none"/><path d="M1649.04 1027.6h11v1.6h-11z" fill="none"/><path d="M1531.04 1028.4h117" stroke="#000" stroke-width="2" fill="none"/><path d="M1531.06 1029.4h-1.02v-2h1.02zM1649.04 1029.4H1648v-2h1.04zM1730.04 1166.4h-2v-63.2h2zm0-84.8h-2v-52.2h-28v-2h30z"/><path d="M1700.06 1029.4h-1.02v-2h-3 4.02zM1730.04 1167.4h-2v-1.03h2z"/><use xlink:href="#x" transform="matrix(1,0,0,1,1676.0606858636224,1081.6000000000001) translate(0.005000000000002558 14.4)"/><path d="M1531.04 1028.4h58v99" stroke="#000" stroke-width="2" fill="none"/><path d="M1531.06 1029.4h-1.02v-2h1.02zM1588.04 1128.4v-1.03h2v1.03zM1590.04 1247.5h37v2h-39v-30.3h2zm0-49.9h-2v-18.2h2z"/><path d="M1590.04 1179.43h-2v-1.03h2v-3zM1628.04 1249.5H1627v-2h1.04z"/><use xlink:href="#y" transform="matrix(1,0,0,1,1532.5633506031324,1197.6000000000001) translate(0.005000000000002558 14.4)"/><path d="M1554.03 348.4h40v40h-40zM1264.04 687.6h40v40h-40zM1920 348.4h40v40h-40zM2120 368.4h10m40 0c0 11.05-8.95 20-20 20s-20-8.95-20-20 8.95-20 20-20 20 8.95 20 20z" stroke="#000" stroke-width="2" fill="#fff"/><path d="M2120 367.6h10v1.6h-10z" fill="none"/><path d="M2120 708.45h10m40 0c0 11.05-8.95 20-20 20s-20-8.95-20-20 8.95-20 20-20 20 8.95 20 20z" stroke="#000" stroke-width="2" fill="#fff"/><path d="M2120 707.65h10v1.6h-10z" fill="none"/><g fill="none"><path d="M1664.03 368.4h-10m30 20c-11.04 0-20-8.95-20-20s8.96-20 20-20" stroke="#000" stroke-width="2"/><path d="M1684.03 388.4c-11.04 0-20-8.95-20-20s8.96-20 20-20zM1664.03 369.2h-10v-1.6h10z"/></g><path d="M1844.03 368.4h-10m-40 0c0-11.05 8.96-20 20-20 11.05 0 20 8.95 20 20s-8.95 20-20 20c-11.04 0-20-8.95-20-20z" stroke="#000" stroke-width="2" fill="#fff"/><path d="M1844.03 369.2h-10v-1.6h10z" fill="none"/><path d="M1596.03 368.4h57" stroke="#000" stroke-width="2" fill="none"/><path d="M1596.06 369.4h-1.03v-2h1.03zM1654.03 369.4H1653v-2h1.03z"/><path d="M1670.1 368.4h3.78m7.57 0h7.57m7.57 0h7.56m7.57 0h7.57m7.57 0h7.57m7.57 0h7.58m7.57 0h7.57m7.57 0h7.56m7.57 0h3.78M1670.12 368.4h-4.03M1773.85 378.58l17.22-10.18-17.22-10.18M1845.03 368.4H1918" stroke="#000" stroke-width="2" fill="none"/><path d="M1845.06 369.4h-1.03v-2h1.03zM1919 369.4h-1.03v-2h1.03z"/><path d="M1962 368.4h157" stroke="#000" stroke-width="2" fill="none"/><path d="M1962.03 369.4H1961v-2h1.03zM2120 369.4h-1.03v-2h1.03z"/><g fill="none"><path d="M1373.04 708.4h-10m30 20c-11.05 0-20-8.95-20-20s8.95-20 20-20" stroke="#000" stroke-width="2"/><path d="M1393.04 728.4c-11.05 0-20-8.95-20-20s8.95-20 20-20zM1373.04 709.2h-10v-1.6h10z"/></g><path d="M1844.03 708.45h-10m-40 0c0-11.05 8.96-20 20-20 11.05 0 20 8.95 20 20s-8.95 20-20 20c-11.04 0-20-8.95-20-20z" stroke="#000" stroke-width="2" fill="#fff"/><path d="M1844.03 709.25h-10v-1.6h10z" fill="none"/><path d="M1305.04 708.4h57M1305.06 708.4h-1.02" stroke="#000" stroke-width="2" fill="none"/><path d="M1363.04 709.4H1362v-2h1.04z"/><path d="M1379.1 708.4h3.96m7.93 0h7.92m7.92 0h7.93m7.93 0h7.92m7.93 0h7.92m7.93 0h7.93m7.92 0h7.93m7.92 0h7.93m7.93 0h7.92m7.93 0h7.94m7.92 0h7.93m7.9 0h7.94m7.93 0h7.92m7.92 0h4.35v.05h3.53m7.92 0h7.93m7.92 0h7.93m7.93 0h7.92m7.93 0h7.92m7.93 0h7.93m7.92 0h7.93m7.94 0h7.92m7.93 0h7.9m7.94 0h7.93m7.92 0h7.92m7.93 0h7.92m7.93 0h7.92m7.93 0h3.96M1379.13 708.4h-4.03M1773.85 718.63l17.22-10.18-17.22-10.18M1845.03 708.45H1918" stroke="#000" stroke-width="2" fill="none"/><path d="M1845.06 709.45h-1.03v-2h1.03zM1919 709.45h-1.03v-2h1.03z"/><path d="M1962 708.45h157" stroke="#000" stroke-width="2" fill="none"/><path d="M1962.03 709.45H1961v-2h1.03zM2120 709.45h-1.03v-2h1.03z"/><path d="M278 960h-76" stroke="#000" stroke-width="2" fill="none"/><path d="M279 961h-1.03v-2H279zM202.03 961H201v-2h1.03z"/><g fill="none"><path d="M60 330v-10m-20 30c0-11.05 8.95-20 20-20s20 8.95 20 20" stroke="#000" stroke-width="2"/><path d="M40 350c0-11.05 8.95-20 20-20s20 8.95 20 20zM59.2 330v-10h1.6v10z"/></g><path d="M190 400h-10m-40 0c0-11.05 8.95-20 20-20s20 8.95 20 20-8.95 20-20 20-20-8.95-20-20z" stroke="#000" stroke-width="2" fill="#fff"/><path d="M190 400.8h-10v-1.6h10z" fill="none"/><path d="M60 262v57" stroke="#000" stroke-width="2" fill="none"/><path d="M61 262.03h-2V261h2zM59 320v-1.03h2V320zM61 399.65h1.37v2H59v-6.5h2zm17.13 2h-7.88v-2h7.88zm15.75 0H86v-2h7.88zm15.75 0h-7.87v-2h7.87zm15.76 0h-7.9v-2h7.9zm11.8 0h-3.93v-2h3.93zM61 387.25h-2v-.45h2zm0-22.05h-2v-1.57h2zm0-9.45h-2v-7.87h2zM61 340h-2v-3.94h2z"/><path d="M61 336.1h-2v-4.04h2zM139.02 400.65l-18.67 11.04-1.02-1.73 15.76-9.32-15.77-9.32 1.02-1.73z"/><use xlink:href="#z" transform="matrix(1,0,0,1,-15.221447013986136,365.2) translate(0.0049999999999954525 14.4)"/><use xlink:href="#A" transform="matrix(1,0,0,1,-15.221447013986136,365.2) translate(85.905 14.4)"/><path d="M191 400h87" stroke="#000" stroke-width="2" fill="none"/><path d="M191.03 401H190v-2h1.03zM279 401h-1.03v-2H279z"/><path d="M457 400.05h-10m-40 0c0-11.05 8.95-20 20-20s20 8.95 20 20-8.95 20-20 20-20-8.95-20-20z" stroke="#000" stroke-width="2" fill="#fff"/><path d="M457 400.85h-10v-1.6h10z" fill="none"/><path d="M565.84 380h40v40h-40z" stroke="#000" stroke-width="2" fill="#fff"/><path d="M458 400.05h52.92V400h52.92" stroke="#000" stroke-width="2" fill="none"/><path d="M458.03 401.05H457v-2h1.03zM564.84 401h-1.03v-2h1.04z"/><path d="M322 400h4.1m8.23 0h8.2m8.23 0h8.22m8.22 0h8.22m8.2 0h8.23m8.22 0h4.1" stroke="#000" stroke-width="2" fill="none"/><path d="M322.03 401H321v-2h1.03z"/><path d="M386.82 410.18l17.2-10.18-17.2-10.18" stroke="#000" stroke-width="2" fill="none"/><path d="M1039.04 1048.4h240v60h-240z" fill="none"/><use xlink:href="#y" transform="matrix(1,0,0,1,1039.0356858636223,1048.4) translate(63.525 33.6)"/><g fill="none"><path d="M680 505.65v-10m-20 30c0-11.05 8.95-20 20-20s20 8.95 20 20" stroke="#000" stroke-width="2"/><path d="M660 525.65c0-11.05 8.95-20 20-20s20 8.95 20 20zM679.2 505.65v-10h1.6v10z"/></g><path d="M1184.04 1028.4h-10m-40 0c0-11.05 8.95-20 20-20 11.04 0 20 8.95 20 20s-8.96 20-20 20c-11.05 0-20-8.95-20-20z" stroke="#000" stroke-width="2" fill="#fff"/><path d="M1184.04 1029.2h-10v-1.6h10z" fill="none"/><path d="M680 482v12.65" stroke="#000" stroke-width="2" fill="none"/><path d="M681 482.03h-2V481h2zM679 495.65v-1.03h2v1.03z"/><path d="M1227.04 1028.4h-42" stroke="#000" stroke-width="2" fill="none"/><path d="M1228.04 1029.4H1227v-2h1.04zM1185.06 1029.4h-1.02v-2h1.02z"/><path d="M610.14 648.4h160v120h-160z" stroke="#000" stroke-width="2" fill="#fff"/><path d="M760.14 658.4h-15v20h15z" stroke="#000" fill="#fff"/><path d="M750.14 661.73h-10v3.34h10zm0 10h-10v3.34h10z" stroke="#000" fill="#fff"/><use xlink:href="#B" transform="matrix(1,0,0,1,610.1402220728826,648.4) translate(58.555 63.15)"/><path d="M680.8 611.8v-10m0-40c11.05 0 20 8.95 20 20s-8.95 20-20 20-20-8.95-20-20 8.95-20 20-20z" stroke="#000" stroke-width="2" fill="#fff"/><path d="M680 611.8v-10h1.6v10z" fill="none"/><path d="M700.8 631.6v40h-40v-40z" stroke="#000" stroke-width="2" fill="#fff"/><path d="M680.8 612.8v16.8" stroke="#000" stroke-width="2" fill="none"/><path d="M681.8 612.83h-2v-1.03h2zM681.8 630.6h-2v-1.03h2z"/><path d="M680 511.7v3.95m0 7.9v7.87m0 7.88v7.9m0 7.87V559M680 511.74v-4.03M669.82 541.65l10.18 17.2 10.18-17.2" stroke="#000" stroke-width="2" fill="none"/><path d="M750.14 687.6h40v40h-40z" stroke="#000" stroke-width="2" fill="#fff"/><path d="M792.14 707.6h12.69" stroke="#000" stroke-width="2" fill="none"/><path d="M792.17 708.6h-1.03v-2h1.03zM805.84 708.6h-1.03v-2h1.04z"/><path d="M1374.04 874.4v52" stroke="#000" stroke-width="2" fill="none"/><path d="M1375.04 874.43h-2v-1.03h2zM1375.04 927.4h-2v-1.03h2z"/><g fill="none"><path d="M1155 923.4v-10m-20 30c0-11.05 8.95-20 20-20 11.04 0 20 8.95 20 20" stroke="#000" stroke-width="2"/><path d="M1135 943.4c0-11.05 8.95-20 20-20 11.04 0 20 8.95 20 20zM1154.2 923.4v-10h1.6v10z"/></g><g fill="none"><path d="M1229.04 848.4h-10m30 20c-11.05 0-20-8.95-20-20s8.95-20 20-20" stroke="#000" stroke-width="2"/><path d="M1249.04 868.4c-11.05 0-20-8.95-20-20s8.95-20 20-20zM1229.04 849.2h-10v-1.6h10z"/></g><g><path d="M1374.04 873.4v-10m0-40c11.04 0 20 8.95 20 20s-8.96 20-20 20c-11.05 0-20-8.95-20-20s8.95-20 20-20z" stroke="#000" stroke-width="2" fill="#fff"/><path d="M1373.24 873.4v-10h1.6v10z" fill="none"/></g><path d="M1155 790.4v122" stroke="#000" stroke-width="2" fill="none"/><path d="M1156 790.43h-2v-1.03h2zM1154 913.4v-1.03h2v1.03z"/><path d="M1155 790.4v58h63.04" stroke="#000" stroke-width="2" fill="none"/><path d="M1156 790.43h-2v-1.03h2zM1219.04 849.4H1218v-2h1.04z"/><path d="M1235.1 848.4h4.17m8.35 0h8.34m8.35 0h8.36m8.35 0h8.35m8.35 0h8.35m8.34 0h8.34m8.35 0h8.33m8.35 0h4.17M1235.12 848.4h-4.02M1334.6 858.58l17.2-10.18-17.2-10.18M1155 929.46v3.8m0 7.64v7.62m0 7.62v7.63m0 7.62v7.6m0 7.64v7.62m0 7.62v3.8M1155 929.5v-4.04M1144.82 988.33l10.18 17.22 10.18-17.22" stroke="#000" stroke-width="2" fill="none"/><path d="M454 400h111.84v31.6H454z" fill="#fff" fill-opacity="0"/><g><use xlink:href="#C" transform="matrix(1,0,0,1,458.9902220728825,405) translate(0.07499999999999574 14.4)"/></g><defs><path d="M185-189c-5-48-123-54-124 2 14 75 158 14 163 119 3 78-121 87-175 55-17-10-28-26-33-46l33-7c5 56 141 63 141-1 0-78-155-14-162-118-5-82 145-84 179-34 5 7 8 16 11 25" id="D"/><path d="M24-231v-30h32v30H24zM24 0v-190h32V0H24" id="E"/><path d="M59-47c-2 24 18 29 38 22v24C64 9 27 4 27-40v-127H5v-23h24l9-43h21v43h35v23H59v120" id="F"/><path d="M100-194c63 0 86 42 84 106H49c0 40 14 67 53 68 26 1 43-12 49-29l28 8c-11 28-37 45-77 45C44 4 14-33 15-96c1-61 26-98 85-98zm52 81c6-60-76-77-97-28-3 7-6 17-6 28h103" id="G"/><g id="a"><use transform="matrix(0.05,0,0,0.05,0,0)" xlink:href="#D"/><use transform="matrix(0.05,0,0,0.05,12,0)" xlink:href="#E"/><use transform="matrix(0.05,0,0,0.05,15.949999999999998,0)" xlink:href="#F"/><use transform="matrix(0.05,0,0,0.05,20.95,0)" xlink:href="#G"/></g><path d="M266 0h-40l-56-210L115 0H75L2-248h35L96-30l15-64 43-154h32l59 218 59-218h35" id="H"/><path d="M115-194c53 0 69 39 70 98 0 66-23 100-70 100C84 3 66-7 56-30L54 0H23l1-261h32v101c10-23 28-34 59-34zm-8 174c40 0 45-34 45-75 0-40-5-75-45-74-42 0-51 32-51 76 0 43 10 73 51 73" id="I"/><g id="b"><use transform="matrix(0.05,0,0,0.05,0,0)" xlink:href="#H"/><use transform="matrix(0.05,0,0,0.05,16.599999999999998,0)" xlink:href="#G"/><use transform="matrix(0.05,0,0,0.05,26.599999999999994,0)" xlink:href="#I"/></g><path d="M30-248c87 1 191-15 191 75 0 78-77 80-158 76V0H30v-248zm33 125c57 0 124 11 124-50 0-59-68-47-124-48v98" id="J"/><path d="M141-36C126-15 110 5 73 4 37 3 15-17 15-53c-1-64 63-63 125-63 3-35-9-54-41-54-24 1-41 7-42 31l-33-3c5-37 33-52 76-52 45 0 72 20 72 64v82c-1 20 7 32 28 27v20c-31 9-61-2-59-35zM48-53c0 20 12 33 32 33 41-3 63-29 60-74-43 2-92-5-92 41" id="K"/><path d="M179-190L93 31C79 59 56 82 12 73V49c39 6 53-20 64-50L1-190h34L92-34l54-156h33" id="L"/><path d="M210-169c-67 3-38 105-44 169h-31v-121c0-29-5-50-35-48C34-165 62-65 56 0H25l-1-190h30c1 10-1 24 2 32 10-44 99-50 107 0 11-21 27-35 58-36 85-2 47 119 55 194h-31v-121c0-29-5-49-35-48" id="M"/><path d="M117-194c89-4 53 116 60 194h-32v-121c0-31-8-49-39-48C34-167 62-67 57 0H25l-1-190h30c1 10-1 24 2 32 11-22 29-35 61-36" id="N"/><g id="c"><use transform="matrix(0.05,0,0,0.05,0,0)" xlink:href="#J"/><use transform="matrix(0.05,0,0,0.05,12,0)" xlink:href="#K"/><use transform="matrix(0.05,0,0,0.05,22,0)" xlink:href="#L"/><use transform="matrix(0.05,0,0,0.05,31,0)" xlink:href="#G"/><use transform="matrix(0.05,0,0,0.05,41,0)" xlink:href="#M"/><use transform="matrix(0.05,0,0,0.05,55.95,0)" xlink:href="#G"/><use transform="matrix(0.05,0,0,0.05,65.95,0)" xlink:href="#N"/><use transform="matrix(0.05,0,0,0.05,75.95,0)" xlink:href="#F"/></g><path d="M205 0l-28-72H64L36 0H1l101-248h38L239 0h-34zm-38-99l-47-123c-12 45-31 82-46 123h93" id="O"/><path d="M33 0v-248h34V0H33" id="P"/><g id="d"><use transform="matrix(0.05,0,0,0.05,0,0)" xlink:href="#O"/><use transform="matrix(0.05,0,0,0.05,12,0)" xlink:href="#J"/><use transform="matrix(0.05,0,0,0.05,24,0)" xlink:href="#P"/></g><path d="M212-179c-10-28-35-45-73-45-59 0-87 40-87 99 0 60 29 101 89 101 43 0 62-24 78-52l27 14C228-24 195 4 139 4 59 4 22-46 18-125c-6-104 99-153 187-111 19 9 31 26 39 46" id="Q"/><path d="M100-194c62-1 85 37 85 99 1 63-27 99-86 99S16-35 15-95c0-66 28-99 85-99zM99-20c44 1 53-31 53-75 0-43-8-75-51-75s-53 32-53 75 10 74 51 75" id="R"/><path d="M135-143c-3-34-86-38-87 0 15 53 115 12 119 90S17 21 10-45l28-5c4 36 97 45 98 0-10-56-113-15-118-90-4-57 82-63 122-42 12 7 21 19 24 35" id="S"/><path d="M84 4C-5 8 30-112 23-190h32v120c0 31 7 50 39 49 72-2 45-101 50-169h31l1 190h-30c-1-10 1-25-2-33-11 22-28 36-60 37" id="T"/><path d="M24 0v-261h32V0H24" id="U"/><path d="M-5 72V49h209v23H-5" id="V"/><path d="M240 0l2-218c-23 76-54 145-80 218h-23L58-218 59 0H30v-248h44l77 211c21-75 51-140 76-211h43V0h-30" id="W"/><path d="M115-194c55 1 70 41 70 98S169 2 115 4C84 4 66-9 55-30l1 105H24l-1-265h31l2 30c10-21 28-34 59-34zm-8 174c40 0 45-34 45-75s-6-73-45-74c-42 0-51 32-51 76 0 43 10 73 51 73" id="X"/><g id="e"><use transform="matrix(0.05,0,0,0.05,0,0)" xlink:href="#Q"/><use transform="matrix(0.05,0,0,0.05,12.950000000000001,0)" xlink:href="#R"/><use transform="matrix(0.05,0,0,0.05,22.950000000000003,0)" xlink:href="#N"/><use transform="matrix(0.05,0,0,0.05,32.95,0)" xlink:href="#S"/><use transform="matrix(0.05,0,0,0.05,41.95,0)" xlink:href="#T"/><use transform="matrix(0.05,0,0,0.05,51.95,0)" xlink:href="#U"/><use transform="matrix(0.05,0,0,0.05,55.900000000000006,0)" xlink:href="#F"/><use transform="matrix(0.05,0,0,0.05,60.900000000000006,0)" xlink:href="#V"/><use transform="matrix(0.05,0,0,0.05,70.9,0)" xlink:href="#W"/><use transform="matrix(0.05,0,0,0.05,85.85000000000001,0)" xlink:href="#K"/><use transform="matrix(0.05,0,0,0.05,95.85000000000001,0)" xlink:href="#X"/></g><path d="M177-190C167-65 218 103 67 71c-23-6-38-20-44-43l32-5c15 47 100 32 89-28v-30C133-14 115 1 83 1 29 1 15-40 15-95c0-56 16-97 71-98 29-1 48 16 59 35 1-10 0-23 2-32h30zM94-22c36 0 50-32 50-73 0-42-14-75-50-75-39 0-46 34-46 75s6 73 46 73" id="Y"/><path d="M232-93c-1 65-40 97-104 97C67 4 28-28 28-90v-158h33c8 89-33 224 67 224 102 0 64-133 71-224h33v155" id="Z"/><path d="M114-163C36-179 61-72 57 0H25l-1-190h30c1 12-1 29 2 39 6-27 23-49 58-41v29" id="aa"/><g id="f"><use transform="matrix(0.05,0,0,0.05,0,0)" xlink:href="#W"/><use transform="matrix(0.05,0,0,0.05,14.950000000000001,0)" xlink:href="#K"/><use transform="matrix(0.05,0,0,0.05,24.950000000000003,0)" xlink:href="#N"/><use transform="matrix(0.05,0,0,0.05,34.95,0)" xlink:href="#K"/><use transform="matrix(0.05,0,0,0.05,44.95,0)" xlink:href="#Y"/><use transform="matrix(0.05,0,0,0.05,54.95,0)" xlink:href="#G"/><use transform="matrix(0.05,0,0,0.05,64.95,0)" xlink:href="#V"/><use transform="matrix(0.05,0,0,0.05,74.95,0)" xlink:href="#Z"/><use transform="matrix(0.05,0,0,0.05,87.9,0)" xlink:href="#S"/><use transform="matrix(0.05,0,0,0.05,96.9,0)" xlink:href="#G"/><use transform="matrix(0.05,0,0,0.05,106.9,0)" xlink:href="#aa"/></g><path d="M143 0L79-87 56-68V0H24v-261h32v163l83-92h37l-77 82L181 0h-38" id="ab"/><path d="M140-251c81 0 123 46 123 126C263-46 219 4 140 4 59 4 17-45 17-125s42-126 123-126zm0 227c63 0 89-41 89-101s-29-99-89-99c-61 0-89 39-89 99S79-25 140-24" id="ac"/><path d="M85-194c31 0 48 13 60 33l-1-100h32l1 261h-30c-2-10 0-23-3-31C134-8 116 4 85 4 32 4 16-35 15-94c0-66 23-100 70-100zm9 24c-40 0-46 34-46 75 0 40 6 74 45 74 42 0 51-32 51-76 0-42-9-74-50-73" id="ad"/><g id="g"><use transform="matrix(0.05,0,0,0.05,0,0)" xlink:href="#W"/><use transform="matrix(0.05,0,0,0.05,14.950000000000001,0)" xlink:href="#K"/><use transform="matrix(0.05,0,0,0.05,24.950000000000003,0)" xlink:href="#ab"/><use transform="matrix(0.05,0,0,0.05,33.95,0)" xlink:href="#G"/><use transform="matrix(0.05,0,0,0.05,43.95,0)" xlink:href="#V"/><use transform="matrix(0.05,0,0,0.05,53.95,0)" xlink:href="#ac"/><use transform="matrix(0.05,0,0,0.05,67.95,0)" xlink:href="#aa"/><use transform="matrix(0.05,0,0,0.05,73.9,0)" xlink:href="#ad"/><use transform="matrix(0.05,0,0,0.05,83.9,0)" xlink:href="#G"/><use transform="matrix(0.05,0,0,0.05,93.9,0)" xlink:href="#aa"/></g><path d="M106-169C34-169 62-67 57 0H25v-261h32l-1 103c12-21 28-36 61-36 89 0 53 116 60 194h-32v-121c2-32-8-49-39-48" id="ae"/><path d="M206 0h-36l-40-164L89 0H53L-1-190h32L70-26l43-164h34l41 164 42-164h31" id="af"/><g id="h"><use transform="matrix(0.05,0,0,0.05,0,0)" xlink:href="#D"/><use transform="matrix(0.05,0,0,0.05,12,0)" xlink:href="#ae"/><use transform="matrix(0.05,0,0,0.05,22,0)" xlink:href="#R"/><use transform="matrix(0.05,0,0,0.05,32,0)" xlink:href="#af"/><use transform="matrix(0.05,0,0,0.05,44.95,0)" xlink:href="#V"/><use transform="matrix(0.05,0,0,0.05,54.95,0)" xlink:href="#Q"/><use transform="matrix(0.05,0,0,0.05,67.9,0)" xlink:href="#K"/><use transform="matrix(0.05,0,0,0.05,77.9,0)" xlink:href="#F"/><use transform="matrix(0.05,0,0,0.05,82.9,0)" xlink:href="#K"/><use transform="matrix(0.05,0,0,0.05,92.9,0)" xlink:href="#U"/><use transform="matrix(0.05,0,0,0.05,96.85000000000001,0)" xlink:href="#R"/><use transform="matrix(0.05,0,0,0.05,106.85000000000001,0)" xlink:href="#Y"/><use transform="matrix(0.05,0,0,0.05,116.85000000000001,0)" xlink:href="#T"/><use transform="matrix(0.05,0,0,0.05,126.85000000000001,0)" xlink:href="#G"/></g><path d="M143 4C61 4 22-44 18-125c-5-107 100-154 193-111 17 8 29 25 37 43l-32 9c-13-25-37-40-76-40-61 0-88 39-88 99 0 61 29 100 91 101 35 0 62-11 79-27v-45h-74v-28h105v86C228-13 192 4 143 4" id="ag"/><g id="i"><use transform="matrix(0.05,0,0,0.05,0,0)" xlink:href="#ag"/><use transform="matrix(0.05,0,0,0.05,14,0)" xlink:href="#R"/><use transform="matrix(0.05,0,0,0.05,24,0)" xlink:href="#R"/><use transform="matrix(0.05,0,0,0.05,34,0)" xlink:href="#Y"/><use transform="matrix(0.05,0,0,0.05,44,0)" xlink:href="#U"/><use transform="matrix(0.05,0,0,0.05,47.95,0)" xlink:href="#G"/></g><g id="j"><use transform="matrix(0.05,0,0,0.05,0,0)" xlink:href="#W"/><use transform="matrix(0.05,0,0,0.05,14.950000000000001,0)" xlink:href="#K"/><use transform="matrix(0.05,0,0,0.05,24.950000000000003,0)" xlink:href="#X"/><use transform="matrix(0.05,0,0,0.05,34.95,0)" xlink:href="#S"/></g><g id="k"><use transform="matrix(0.05,0,0,0.05,0,0)" xlink:href="#O"/><use transform="matrix(0.05,0,0,0.05,12,0)" xlink:href="#J"/><use transform="matrix(0.05,0,0,0.05,24,0)" xlink:href="#P"/></g><g id="l"><use transform="matrix(0.05,0,0,0.05,0,0)" xlink:href="#W"/><use transform="matrix(0.05,0,0,0.05,14.950000000000001,0)" xlink:href="#K"/><use transform="matrix(0.05,0,0,0.05,24.950000000000003,0)" xlink:href="#N"/><use transform="matrix(0.05,0,0,0.05,34.95,0)" xlink:href="#K"/><use transform="matrix(0.05,0,0,0.05,44.95,0)" xlink:href="#Y"/><use transform="matrix(0.05,0,0,0.05,54.95,0)" xlink:href="#G"/><use transform="matrix(0.05,0,0,0.05,64.95,0)" xlink:href="#V"/><use transform="matrix(0.05,0,0,0.05,74.95,0)" xlink:href="#ac"/><use transform="matrix(0.05,0,0,0.05,88.95,0)" xlink:href="#aa"/><use transform="matrix(0.05,0,0,0.05,94.9,0)" xlink:href="#ad"/><use transform="matrix(0.05,0,0,0.05,104.9,0)" xlink:href="#G"/><use transform="matrix(0.05,0,0,0.05,114.9,0)" xlink:href="#aa"/></g><path d="M30-248c118-7 216 8 213 122C240-48 200 0 122 0H30v-248zM63-27c89 8 146-16 146-99s-60-101-146-95v194" id="ah"/><path d="M108 0H70L1-190h34L89-25l56-165h34" id="ai"/><g id="m"><use transform="matrix(0.05,0,0,0.05,0,0)" xlink:href="#ah"/><use transform="matrix(0.05,0,0,0.05,12.950000000000001,0)" xlink:href="#G"/><use transform="matrix(0.05,0,0,0.05,22.950000000000003,0)" xlink:href="#U"/><use transform="matrix(0.05,0,0,0.05,26.900000000000002,0)" xlink:href="#E"/><use transform="matrix(0.05,0,0,0.05,30.85,0)" xlink:href="#ai"/><use transform="matrix(0.05,0,0,0.05,39.85,0)" xlink:href="#G"/><use transform="matrix(0.05,0,0,0.05,49.85,0)" xlink:href="#aa"/></g><g id="n"><use transform="matrix(0.05,0,0,0.05,0,0)" xlink:href="#ah"/><use transform="matrix(0.05,0,0,0.05,12.950000000000001,0)" xlink:href="#K"/><use transform="matrix(0.05,0,0,0.05,22.950000000000003,0)" xlink:href="#F"/><use transform="matrix(0.05,0,0,0.05,27.950000000000003,0)" xlink:href="#K"/><use transform="matrix(0.05,0,0,0.05,37.95,0)" xlink:href="#I"/><use transform="matrix(0.05,0,0,0.05,47.95,0)" xlink:href="#K"/><use transform="matrix(0.05,0,0,0.05,57.95,0)" xlink:href="#S"/><use transform="matrix(0.05,0,0,0.05,66.95,0)" xlink:href="#G"/></g><path d="M140-251c81 0 123 46 123 126C263-53 228-8 163 1c7 30 30 48 69 40v23c-55 16-95-15-103-61C56-3 17-48 17-125c0-80 42-126 123-126zm0 227c63 0 89-41 89-101s-29-99-89-99c-61 0-89 39-89 99S79-25 140-24" id="aj"/><path d="M30 0v-248h33v221h125V0H30" id="ak"/><g id="o"><use transform="matrix(0.05,0,0,0.05,0,0)" xlink:href="#J"/><use transform="matrix(0.05,0,0,0.05,12,0)" xlink:href="#R"/><use transform="matrix(0.05,0,0,0.05,22,0)" xlink:href="#S"/><use transform="matrix(0.05,0,0,0.05,31,0)" xlink:href="#F"/><use transform="matrix(0.05,0,0,0.05,36,0)" xlink:href="#Y"/><use transform="matrix(0.05,0,0,0.05,46,0)" xlink:href="#aa"/><use transform="matrix(0.05,0,0,0.05,51.95,0)" xlink:href="#G"/><use transform="matrix(0.05,0,0,0.05,61.95,0)" xlink:href="#D"/><use transform="matrix(0.05,0,0,0.05,73.95,0)" xlink:href="#aj"/><use transform="matrix(0.05,0,0,0.05,87.95,0)" xlink:href="#ak"/></g><path d="M33-154v-36h34v36H33zM33 0v-36h34V0H33" id="al"/><g id="p"><use transform="matrix(0.05,0,0,0.05,0,0)" xlink:href="#al"/><use transform="matrix(0.05,0,0,0.05,5,0)" xlink:href="#H"/><use transform="matrix(0.05,0,0,0.05,21.6,0)" xlink:href="#G"/><use transform="matrix(0.05,0,0,0.05,31.6,0)" xlink:href="#I"/></g><path d="M160-131c35 5 61 23 61 61C221 17 115-2 30 0v-248c76 3 177-17 177 60 0 33-19 50-47 57zm-97-11c50-1 110 9 110-42 0-47-63-36-110-37v79zm0 115c55-2 124 14 124-45 0-56-70-42-124-44v89" id="am"/><g id="q"><use transform="matrix(0.05,0,0,0.05,0,0)" xlink:href="#am"/><use transform="matrix(0.05,0,0,0.05,12,0)" xlink:href="#aa"/><use transform="matrix(0.05,0,0,0.05,17.95,0)" xlink:href="#R"/><use transform="matrix(0.05,0,0,0.05,27.950000000000003,0)" xlink:href="#af"/><use transform="matrix(0.05,0,0,0.05,40.9,0)" xlink:href="#S"/><use transform="matrix(0.05,0,0,0.05,49.9,0)" xlink:href="#G"/><use transform="matrix(0.05,0,0,0.05,59.900000000000006,0)" xlink:href="#aa"/></g><path d="M101-234c-31-9-42 10-38 44h38v23H63V0H32v-167H5v-23h27c-7-52 17-82 69-68v24" id="an"/><path d="M96-169c-40 0-48 33-48 73s9 75 48 75c24 0 41-14 43-38l32 2c-6 37-31 61-74 61-59 0-76-41-82-99-10-93 101-131 147-64 4 7 5 14 7 22l-32 3c-4-21-16-35-41-35" id="ao"/><g id="r"><use transform="matrix(0.05,0,0,0.05,0,0)" xlink:href="#al"/><use transform="matrix(0.05,0,0,0.05,5,0)" xlink:href="#O"/><use transform="matrix(0.05,0,0,0.05,17,0)" xlink:href="#T"/><use transform="matrix(0.05,0,0,0.05,27,0)" xlink:href="#F"/><use transform="matrix(0.05,0,0,0.05,32,0)" xlink:href="#ae"/><use transform="matrix(0.05,0,0,0.05,42,0)" xlink:href="#G"/><use transform="matrix(0.05,0,0,0.05,52,0)" xlink:href="#N"/><use transform="matrix(0.05,0,0,0.05,62,0)" xlink:href="#F"/><use transform="matrix(0.05,0,0,0.05,67,0)" xlink:href="#E"/><use transform="matrix(0.05,0,0,0.05,70.95,0)" xlink:href="#an"/><use transform="matrix(0.05,0,0,0.05,75.95,0)" xlink:href="#E"/><use transform="matrix(0.05,0,0,0.05,79.9,0)" xlink:href="#ao"/><use transform="matrix(0.05,0,0,0.05,88.9,0)" xlink:href="#K"/><use transform="matrix(0.05,0,0,0.05,98.9,0)" xlink:href="#F"/><use transform="matrix(0.05,0,0,0.05,103.9,0)" xlink:href="#E"/><use transform="matrix(0.05,0,0,0.05,107.85000000000001,0)" xlink:href="#R"/><use transform="matrix(0.05,0,0,0.05,117.85000000000001,0)" xlink:href="#N"/></g><g id="s"><use transform="matrix(0.05,0,0,0.05,0,0)" xlink:href="#al"/><use transform="matrix(0.05,0,0,0.05,5,0)" xlink:href="#ac"/><use transform="matrix(0.05,0,0,0.05,19,0)" xlink:href="#aa"/><use transform="matrix(0.05,0,0,0.05,24.95,0)" xlink:href="#ad"/><use transform="matrix(0.05,0,0,0.05,34.95,0)" xlink:href="#G"/><use transform="matrix(0.05,0,0,0.05,44.95,0)" xlink:href="#aa"/></g><g id="t"><use transform="matrix(0.05,0,0,0.05,0,0)" xlink:href="#W"/><use transform="matrix(0.05,0,0,0.05,14.950000000000001,0)" xlink:href="#K"/><use transform="matrix(0.05,0,0,0.05,24.950000000000003,0)" xlink:href="#N"/><use transform="matrix(0.05,0,0,0.05,34.95,0)" xlink:href="#K"/><use transform="matrix(0.05,0,0,0.05,44.95,0)" xlink:href="#Y"/><use transform="matrix(0.05,0,0,0.05,54.95,0)" xlink:href="#G"/><use transform="matrix(0.05,0,0,0.05,64.95,0)" xlink:href="#M"/><use transform="matrix(0.05,0,0,0.05,79.9,0)" xlink:href="#G"/><use transform="matrix(0.05,0,0,0.05,89.9,0)" xlink:href="#N"/><use transform="matrix(0.05,0,0,0.05,99.9,0)" xlink:href="#F"/></g><g id="u"><use transform="matrix(0.05,0,0,0.05,0,0)" xlink:href="#al"/><use transform="matrix(0.05,0,0,0.05,5,0)" xlink:href="#J"/><use transform="matrix(0.05,0,0,0.05,17,0)" xlink:href="#aa"/><use transform="matrix(0.05,0,0,0.05,22.95,0)" xlink:href="#R"/><use transform="matrix(0.05,0,0,0.05,32.95,0)" xlink:href="#ad"/><use transform="matrix(0.05,0,0,0.05,42.95,0)" xlink:href="#T"/><use transform="matrix(0.05,0,0,0.05,52.95,0)" xlink:href="#ao"/><use transform="matrix(0.05,0,0,0.05,61.95,0)" xlink:href="#F"/></g><g id="v"><use transform="matrix(0.05,0,0,0.05,0,0)" xlink:href="#al"/><use transform="matrix(0.05,0,0,0.05,5,0)" xlink:href="#ah"/><use transform="matrix(0.05,0,0,0.05,17.950000000000003,0)" xlink:href="#G"/><use transform="matrix(0.05,0,0,0.05,27.950000000000003,0)" xlink:href="#U"/><use transform="matrix(0.05,0,0,0.05,31.900000000000002,0)" xlink:href="#E"/><use transform="matrix(0.05,0,0,0.05,35.85,0)" xlink:href="#ai"/><use transform="matrix(0.05,0,0,0.05,44.85,0)" xlink:href="#G"/><use transform="matrix(0.05,0,0,0.05,54.85,0)" xlink:href="#aa"/><use transform="matrix(0.05,0,0,0.05,60.800000000000004,0)" xlink:href="#L"/></g><g id="w"><use transform="matrix(0.05,0,0,0.05,0,0)" xlink:href="#D"/><use transform="matrix(0.05,0,0,0.05,12,0)" xlink:href="#F"/><use transform="matrix(0.05,0,0,0.05,17,0)" xlink:href="#R"/><use transform="matrix(0.05,0,0,0.05,27,0)" xlink:href="#ao"/><use transform="matrix(0.05,0,0,0.05,36,0)" xlink:href="#ab"/></g><g id="x"><use transform="matrix(0.05,0,0,0.05,0,0)" xlink:href="#Q"/><use transform="matrix(0.05,0,0,0.05,12.950000000000001,0)" xlink:href="#ae"/><use transform="matrix(0.05,0,0,0.05,22.950000000000003,0)" xlink:href="#G"/><use transform="matrix(0.05,0,0,0.05,32.95,0)" xlink:href="#ao"/><use transform="matrix(0.05,0,0,0.05,41.95,0)" xlink:href="#ab"/><use transform="matrix(0.05,0,0,0.05,50.95,0)" xlink:href="#V"/><use transform="matrix(0.05,0,0,0.05,60.95,0)" xlink:href="#D"/><use transform="matrix(0.05,0,0,0.05,72.95,0)" xlink:href="#F"/><use transform="matrix(0.05,0,0,0.05,77.95,0)" xlink:href="#R"/><use transform="matrix(0.05,0,0,0.05,87.95,0)" xlink:href="#ao"/><use transform="matrix(0.05,0,0,0.05,96.95,0)" xlink:href="#ab"/></g><g id="y"><use transform="matrix(0.05,0,0,0.05,0,0)" xlink:href="#Z"/><use transform="matrix(0.05,0,0,0.05,12.950000000000001,0)" xlink:href="#X"/><use transform="matrix(0.05,0,0,0.05,22.950000000000003,0)" xlink:href="#ad"/><use transform="matrix(0.05,0,0,0.05,32.95,0)" xlink:href="#K"/><use transform="matrix(0.05,0,0,0.05,42.95,0)" xlink:href="#F"/><use transform="matrix(0.05,0,0,0.05,47.95,0)" xlink:href="#G"/><use transform="matrix(0.05,0,0,0.05,57.95,0)" xlink:href="#V"/><use transform="matrix(0.05,0,0,0.05,67.95,0)" xlink:href="#D"/><use transform="matrix(0.05,0,0,0.05,79.95,0)" xlink:href="#F"/><use transform="matrix(0.05,0,0,0.05,84.95,0)" xlink:href="#R"/><use transform="matrix(0.05,0,0,0.05,94.95,0)" xlink:href="#ao"/><use transform="matrix(0.05,0,0,0.05,103.95,0)" xlink:href="#ab"/></g><path d="M9 0v-24l116-142H16v-24h144v24L44-24h123V0H9" id="ap"/><g id="z"><use transform="matrix(0.05,0,0,0.05,0,0)" xlink:href="#ac"/><use transform="matrix(0.05,0,0,0.05,14,0)" xlink:href="#Q"/><use transform="matrix(0.05,0,0,0.05,26.950000000000003,0)" xlink:href="#V"/><use transform="matrix(0.05,0,0,0.05,36.95,0)" xlink:href="#J"/><use transform="matrix(0.05,0,0,0.05,48.95,0)" xlink:href="#E"/><use transform="matrix(0.05,0,0,0.05,52.900000000000006,0)" xlink:href="#ap"/><use transform="matrix(0.05,0,0,0.05,61.900000000000006,0)" xlink:href="#ap"/><use transform="matrix(0.05,0,0,0.05,70.9,0)" xlink:href="#K"/></g><g id="A"><use transform="matrix(0.05,0,0,0.05,0,0)" xlink:href="#H"/><use transform="matrix(0.05,0,0,0.05,16.599999999999998,0)" xlink:href="#G"/><use transform="matrix(0.05,0,0,0.05,26.599999999999994,0)" xlink:href="#I"/><use transform="matrix(0.05,0,0,0.05,36.599999999999994,0)" xlink:href="#S"/><use transform="matrix(0.05,0,0,0.05,45.599999999999994,0)" xlink:href="#E"/><use transform="matrix(0.05,0,0,0.05,49.55,0)" xlink:href="#F"/><use transform="matrix(0.05,0,0,0.05,54.54999999999999,0)" xlink:href="#G"/></g><g id="B"><use transform="matrix(0.05,0,0,0.05,0,0)" xlink:href="#al"/><use transform="matrix(0.05,0,0,0.05,5,0)" xlink:href="#Z"/><use transform="matrix(0.05,0,0,0.05,17.950000000000003,0)" xlink:href="#S"/><use transform="matrix(0.05,0,0,0.05,26.950000000000003,0)" xlink:href="#G"/><use transform="matrix(0.05,0,0,0.05,36.95,0)" xlink:href="#aa"/></g><g id="C"><use transform="matrix(0.05,0,0,0.05,0,0)" xlink:href="#Z"/><use transform="matrix(0.05,0,0,0.05,12.950000000000001,0)" xlink:href="#S"/><use transform="matrix(0.05,0,0,0.05,21.950000000000003,0)" xlink:href="#G"/><use transform="matrix(0.05,0,0,0.05,31.950000000000003,0)" xlink:href="#aa"/><use transform="matrix(0.05,0,0,0.05,37.900000000000006,0)" xlink:href="#D"/><use transform="matrix(0.05,0,0,0.05,49.900000000000006,0)" xlink:href="#G"/><use transform="matrix(0.05,0,0,0.05,59.900000000000006,0)" xlink:href="#S"/><use transform="matrix(0.05,0,0,0.05,68.9,0)" xlink:href="#S"/><use transform="matrix(0.05,0,0,0.05,77.9,0)" xlink:href="#E"/><use transform="matrix(0.05,0,0,0.05,81.85000000000001,0)" xlink:href="#R"/><use transform="matrix(0.05,0,0,0.05,91.85000000000001,0)" xlink:href="#N"/></g></defs></g></svg>