<svg xmlns="http://www.w3.org/2000/svg" xmlns:xlink="http://www.w3.org/1999/xlink" xmlns:lucid="lucid" width="2180" height="1489"><g transform="translate(0 68)" lucid:page-tab-id="0_0"><path d="M0-1259.2h3676.8v3841.6H0z" fill="#fff"/><path d="M20 302h360v199H20z" stroke="#000" stroke-width="2" fill="#fff"/><path d="M20 339.6h360M20 441.9h360" stroke="#000" stroke-width="2" fill="none"/><use xlink:href="#a" transform="matrix(1,0,0,1,28,309.99999999999994) translate(153.05 14.6)"/><use xlink:href="#b" transform="matrix(1,0,0,1,32,347.59999999999997) translate(107.85 25.5)"/><use xlink:href="#c" transform="matrix(1,0,0,1,32,347.59999999999997) translate(123.35 25.5)"/><use xlink:href="#d" transform="matrix(1,0,0,1,32,347.59999999999997) translate(181.25 25.5)"/><use xlink:href="#e" transform="matrix(1,0,0,1,32,347.59999999999997) translate(94.85 47.1)"/><use xlink:href="#d" transform="matrix(1,0,0,1,32,347.59999999999997) translate(194.25 47.1)"/><use xlink:href="#f" transform="matrix(1,0,0,1,32,347.59999999999997) translate(111.875 68.7)"/><use xlink:href="#g" transform="matrix(1,0,0,1,32,347.59999999999997) translate(177.22500000000002 68.7)"/><use xlink:href="#h" transform="matrix(1,0,0,1,32,449.9) translate(105.1 25.6)"/><path d="M520 301h360v199H520z" stroke="#000" stroke-width="2" fill="#fff"/><path d="M520 338.6h360m-360 70.1h360" stroke="#000" stroke-width="2" fill="none"/><use xlink:href="#i" transform="matrix(1,0,0,1,528,309) translate(133.075 14.6)"/><use xlink:href="#j" transform="matrix(1,0,0,1,532,346.6) translate(108.3 31.1)"/><use xlink:href="#g" transform="matrix(1,0,0,1,532,346.6) translate(180.8 31.1)"/><use xlink:href="#k" transform="matrix(1,0,0,1,532,416.70000000000005) translate(133.85 30.799999999999997)"/><use xlink:href="#l" transform="matrix(1,0,0,1,532,416.70000000000005) translate(73.9 52.4)"/><path d="M1080 301h360v200h-360z" stroke="#000" stroke-width="2" fill="#fff"/><path d="M1080 338.6h360" stroke="#000" stroke-width="2" fill="none"/><use xlink:href="#m" transform="matrix(1,0,0,1,1088,308.99999999999994) translate(144.025 14.6)"/><use xlink:href="#n" transform="matrix(1,0,0,1,1092,346.59999999999997) translate(110.35 33.39999999999999)"/><use xlink:href="#d" transform="matrix(1,0,0,1,1092,346.59999999999997) translate(178.75 33.39999999999999)"/><use xlink:href="#o" transform="matrix(1,0,0,1,1092,346.59999999999997) translate(106.325 54.99999999999999)"/><use xlink:href="#d" transform="matrix(1,0,0,1,1092,346.59999999999997) translate(182.775 54.99999999999999)"/><use xlink:href="#p" transform="matrix(1,0,0,1,1092,346.59999999999997) translate(113.82499999999999 76.6)"/><use xlink:href="#q" transform="matrix(1,0,0,1,1092,346.59999999999997) translate(202.175 76.6)"/><use xlink:href="#r" transform="matrix(1,0,0,1,1092,346.59999999999997) translate(118.85 98.20000000000002)"/><use xlink:href="#d" transform="matrix(1,0,0,1,1092,346.59999999999997) translate(170.25 98.20000000000002)"/><use xlink:href="#s" transform="matrix(1,0,0,1,1092,346.59999999999997) translate(102.85 119.80000000000001)"/><use xlink:href="#g" transform="matrix(1,0,0,1,1092,346.59999999999997) translate(186.25 119.80000000000001)"/><path d="M20-48h360v199H20z" stroke="#000" stroke-width="2" fill="#fff"/><path d="M20-10.4h360M20 48.7h360" stroke="#000" stroke-width="2" fill="none"/><use xlink:href="#t" transform="matrix(1,0,0,1,28,-40) translate(137.05 14.6)"/><use xlink:href="#u" transform="matrix(1,0,0,1,32,-2.3999999999999986) translate(115.85 25.6)"/><use xlink:href="#g" transform="matrix(1,0,0,1,32,-2.3999999999999986) translate(173.25 25.6)"/><use xlink:href="#v" transform="matrix(1,0,0,1,32,56.7) translate(73.87500000000003 25.5)"/><use xlink:href="#w" transform="matrix(1,0,0,1,32,56.7) translate(98.4 47.1)"/><use xlink:href="#x" transform="matrix(1,0,0,1,32,56.7) translate(93.4 68.7)"/><path d="M520 669.25h360v242H520z" stroke="#000" stroke-width="2" fill="#fff"/><path d="M520 706.85h360m-360 102.3h360" stroke="#000" stroke-width="2" fill="none"/><use xlink:href="#y" transform="matrix(1,0,0,1,528,677.25) translate(149.05 14.6)"/><use xlink:href="#z" transform="matrix(1,0,0,1,532,714.85) translate(110.8 25.5)"/><use xlink:href="#d" transform="matrix(1,0,0,1,532,714.85) translate(178.3 25.5)"/><use xlink:href="#A" transform="matrix(1,0,0,1,532,714.85) translate(113.8 47.1)"/><use xlink:href="#B" transform="matrix(1,0,0,1,532,714.85) translate(172.25 47.1)"/><use xlink:href="#C" transform="matrix(1,0,0,1,532,714.85) translate(94.375 68.7)"/><use xlink:href="#D" transform="matrix(1,0,0,1,532,714.85) translate(201.72500000000002 68.7)"/><use xlink:href="#E" transform="matrix(1,0,0,1,532,817.15) translate(105.875 25.5)"/><use xlink:href="#F" transform="matrix(1,0,0,1,532,817.15) translate(100.325 47.1)"/><use xlink:href="#G" transform="matrix(1,0,0,1,532,817.15) translate(116.85 68.7)"/><path d="M520.05 1001h360v277h-360z" stroke="#000" stroke-width="2" fill="#fff"/><path d="M520.05 1038.6h360m-360 152.1h360" stroke="#000" stroke-width="2" fill="none"/><use xlink:href="#H" transform="matrix(1,0,0,1,528.0546560087449,1009) translate(142.075 14.6)"/><use xlink:href="#n" transform="matrix(1,0,0,1,532.0546560087449,1046.6) translate(110.35 28.89999999999999)"/><use xlink:href="#d" transform="matrix(1,0,0,1,532.0546560087449,1046.6) translate(178.75 28.89999999999999)"/><use xlink:href="#I" transform="matrix(1,0,0,1,532.0546560087449,1046.6) translate(89.39999999999999 50.49999999999999)"/><use xlink:href="#d" transform="matrix(1,0,0,1,532.0546560087449,1046.6) translate(199.7 50.49999999999999)"/><use xlink:href="#J" transform="matrix(1,0,0,1,532.0546560087449,1046.6) translate(117.35 72.1)"/><use xlink:href="#K" transform="matrix(1,0,0,1,532.0546560087449,1046.6) translate(178.75 72.1)"/><use xlink:href="#L" transform="matrix(1,0,0,1,532.0546560087449,1046.6) translate(97.85 93.70000000000002)"/><use xlink:href="#d" transform="matrix(1,0,0,1,532.0546560087449,1046.6) translate(191.25 93.70000000000002)"/><use xlink:href="#M" transform="matrix(1,0,0,1,532.0546560087449,1046.6) translate(106.35 115.30000000000001)"/><use xlink:href="#g" transform="matrix(1,0,0,1,532.0546560087449,1046.6) translate(182.75 115.30000000000001)"/><use xlink:href="#N" transform="matrix(1,0,0,1,532.0546560087449,1198.6994152046784) translate(104.875 28.799999999999997)"/><use xlink:href="#O" transform="matrix(1,0,0,1,532.0546560087449,1198.6994152046784) translate(81.42500000000001 50.4)"/><path d="M1080.1 1003.17h360v177h-360z" stroke="#000" stroke-width="2" fill="#fff"/><path d="M1080.1 1040.77h360m-360 80.7h360" stroke="#000" stroke-width="2" fill="none"/><use xlink:href="#P" transform="matrix(1,0,0,1,1088.088086831567,1011.1727350201302) translate(77.62500000000001 14.6)"/><use xlink:href="#Q" transform="matrix(1,0,0,1,1092.088086831567,1048.77273502013) translate(89.85 25.299999999999997)"/><use xlink:href="#R" transform="matrix(1,0,0,1,1092.088086831567,1048.77273502013) translate(180.2 25.299999999999997)"/><use xlink:href="#S" transform="matrix(1,0,0,1,1092.088086831567,1048.77273502013) translate(104.32499999999999 46.9)"/><use xlink:href="#D" transform="matrix(1,0,0,1,1092.088086831567,1048.77273502013) translate(191.77499999999998 46.9)"/><path d="M1639.88 678.4h360v156h-360z" stroke="#000" stroke-width="2" fill="#fff"/><path d="M1639.88 716h360m-360 59.1h360" stroke="#000" stroke-width="2" fill="none"/><use xlink:href="#T" transform="matrix(1,0,0,1,1647.8839681164895,686.3939393939395) translate(63.60000000000001 14.6)"/><use xlink:href="#S" transform="matrix(1,0,0,1,1651.8839681164895,723.9939393939395) translate(104.32499999999999 25.6)"/><use xlink:href="#D" transform="matrix(1,0,0,1,1651.8839681164895,723.9939393939395) translate(191.77499999999998 25.6)"/><path d="M1639.88 967h360v233h-360z" stroke="#000" stroke-width="2" fill="#fff"/><path d="M1639.88 1004.6h360m-360 130.02h360" stroke="#000" stroke-width="2" fill="none"/><use xlink:href="#U" transform="matrix(1,0,0,1,1647.8839681164895,975) translate(132.05 14.6)"/><use xlink:href="#n" transform="matrix(1,0,0,1,1651.8839681164895,1012.6) translate(110.35 28.69999999999999)"/><use xlink:href="#d" transform="matrix(1,0,0,1,1651.8839681164895,1012.6) translate(178.75 28.69999999999999)"/><use xlink:href="#V" transform="matrix(1,0,0,1,1651.8839681164895,1012.6) translate(118.35 50.29999999999999)"/><use xlink:href="#d" transform="matrix(1,0,0,1,1651.8839681164895,1012.6) translate(170.75 50.29999999999999)"/><use xlink:href="#W" transform="matrix(1,0,0,1,1651.8839681164895,1012.6) translate(78.425 71.89999999999999)"/><use xlink:href="#K" transform="matrix(1,0,0,1,1651.8839681164895,1012.6) translate(217.675 71.89999999999999)"/><use xlink:href="#X" transform="matrix(1,0,0,1,1651.8839681164895,1012.6) translate(66.875 93.5)"/><use xlink:href="#D" transform="matrix(1,0,0,1,1651.8839681164895,1012.6) translate(229.225 93.5)"/><use xlink:href="#Y" transform="matrix(1,0,0,1,1651.8839681164895,1142.6244194457136) translate(127.82499999999999 28.6)"/><path d="M518 400.5H399.5" stroke="#000" stroke-width="2" fill="none"/><path d="M519 401.5h-1.03v-2H519z"/><path d="M384.24 400.5l14.26-4.64v9.28z" stroke="#000" stroke-width="2" fill="#fff"/><path d="M200 153v129.5" stroke="#000" stroke-width="2" fill="none"/><path d="M201 153.03h-2V152h2z"/><path d="M200 297.76l-4.64-14.26h9.28z" stroke="#000" stroke-width="2" fill="#fff"/><path d="M700 502v165.25" stroke="#000" stroke-width="2" fill="none"/><path d="M701 502.03h-2V501h2zM701 668.25h-2v-1.03h2z"/><path d="M882 400.5h196" stroke="#000" stroke-width="2" fill="none"/><path d="M882.03 401.5H881v-2h1.03zM1079 401.5h-1.03v-2h1.03z"/><path d="M1639.88 310.34h360v270h-360z" stroke="#000" stroke-width="2" fill="#fff"/><path d="M1639.88 347.94h360m-360 137.56h360" stroke="#000" stroke-width="2" fill="none"/><use xlink:href="#Z" transform="matrix(1,0,0,1,1647.8839681164895,318.3383838383838) translate(128.05 14.6)"/><use xlink:href="#n" transform="matrix(1,0,0,1,1651.8839681164895,355.9383838383838) translate(110.35 32.19999999999999)"/><use xlink:href="#d" transform="matrix(1,0,0,1,1651.8839681164895,355.9383838383838) translate(178.75 32.19999999999999)"/><use xlink:href="#I" transform="matrix(1,0,0,1,1651.8839681164895,355.9383838383838) translate(89.39999999999999 53.79999999999999)"/><use xlink:href="#d" transform="matrix(1,0,0,1,1651.8839681164895,355.9383838383838) translate(199.7 53.79999999999999)"/><use xlink:href="#j" transform="matrix(1,0,0,1,1651.8839681164895,355.9383838383838) translate(108.3 75.39999999999999)"/><use xlink:href="#d" transform="matrix(1,0,0,1,1651.8839681164895,355.9383838383838) translate(180.8 75.39999999999999)"/><use xlink:href="#aa" transform="matrix(1,0,0,1,1651.8839681164895,355.9383838383838) translate(109.325 97)"/><use xlink:href="#g" transform="matrix(1,0,0,1,1651.8839681164895,355.9383838383838) translate(179.775 97)"/><use xlink:href="#ab" transform="matrix(1,0,0,1,1651.8839681164895,493.5) translate(98.32499999999999 32.3)"/><use xlink:href="#ac" transform="matrix(1,0,0,1,1651.8839681164895,493.5) translate(106.275 53.9)"/><path d="M1442 401h195.88" stroke="#000" stroke-width="2" fill="none"/><path d="M1442.03 402H1441v-2h1.03zM1638.88 402h-1.02v-2h1.02z"/><path d="M1836.14 582.34v94.05" stroke="#000" stroke-width="2" fill="none"/><path d="M1837.14 582.36h-2v-1.02h2zM1837.14 677.4h-2v-1.03h2z"/><path d="M1819.88 965V836.4" stroke="#000" stroke-width="2" fill="none"/><path d="M1820.88 966h-2v-1.03h2zM1820.88 836.42h-2v-1.03h2z"/><path d="M1637.88 1091.67h-195.8" stroke="#000" stroke-width="2" fill="none"/><path d="M1638.88 1092.67h-1.02v-2h1.02zM1442.1 1092.67h-1v-2h1z"/><path d="M882.05 1136.87h196.04" stroke="#000" stroke-width="2" fill="none"/><path d="M882.08 1137.87h-1.03v-2h1.03zM1079.1 1137.87h-1.04v-2h1.03z"/><path d="M700 943v56" stroke="#000" stroke-width="2" fill="none"/><path d="M700 913.66l14.85 14.85L700 943.67l-14.85-15.15z" stroke="#000" stroke-width="2" fill="#fff"/><path d="M701 1000h-2v-1.03h2z"/><path d="M540-48h360v156H540z" stroke="#000" stroke-width="2" fill="#fff"/><path d="M540-10.4h360M540 48.7h360" stroke="#000" stroke-width="2" fill="none"/><use xlink:href="#ad" transform="matrix(1,0,0,1,548,-40) translate(139.6 14.6)"/><use xlink:href="#ae" transform="matrix(1,0,0,1,552,-2.3999999999999986) translate(100.35 25.6)"/><use xlink:href="#g" transform="matrix(1,0,0,1,552,-2.3999999999999986) translate(188.75 25.6)"/><use xlink:href="#af" transform="matrix(1,0,0,1,552,56.7) translate(93.375 25.6)"/><path d="M882 874.8h558v-340h197.88" stroke="#000" stroke-width="2" fill="none"/><path d="M882.03 875.8H881v-2h1.03zM1638.88 535.8h-1.02v-2h1.02z"/><path d="M538 30H399.5" stroke="#000" stroke-width="2" fill="none"/><path d="M539 31h-1.03v-2H539z"/><path d="M384.24 30l14.26-4.64v9.28z" stroke="#000" stroke-width="2" fill="#fff"/><path d="M344.14 153v77H1865.2v78.34" stroke="#000" stroke-width="2" fill="none"/><path d="M345.14 153.03h-2V152h2zM1866.2 309.34h-2v-1.03h2z"/><path d="M2001.88 445.34H2090V1410H700.05v-130" stroke="#000" stroke-width="2" fill="none"/><path d="M2001.9 446.34h-1.02v-2h1.03zM701.05 1280.03h-2V1279h2z"/><path d="M280 151h240v60H280z" stroke="#000" stroke-opacity="0" stroke-width="2" fill="#fff" fill-opacity="0"/><g><use xlink:href="#ag" transform="matrix(1,0,0,1,285,156) translate(94.83333333333334 30.886111111111106)"/></g><path d="M1699.88 241h240v60h-240z" stroke="#000" stroke-opacity="0" stroke-width="2" fill="#fff" fill-opacity="0"/><g><use xlink:href="#ah" transform="matrix(1,0,0,1,1704.8839681164895,246) translate(107.53086419753086 30.886111111111106)"/></g><path d="M780 340h240v60H780z" stroke="#000" stroke-opacity="0" stroke-width="2" fill="#fff" fill-opacity="0"/><g><use xlink:href="#ah" transform="matrix(1,0,0,1,785,345) translate(107.53086419753086 30.886111111111106)"/></g><path d="M920 400h240v60H920z" stroke="#000" stroke-opacity="0" stroke-width="2" fill="#fff" fill-opacity="0"/><g><use xlink:href="#ai" transform="matrix(1,0,0,1,925,405) translate(109.77160493827161 30.886111111111106)"/></g><path d="M1340 340h240v60h-240z" stroke="#000" stroke-opacity="0" stroke-width="2" fill="#fff" fill-opacity="0"/><g><use xlink:href="#ah" transform="matrix(1,0,0,1,1345,345) translate(107.53086419753086 30.886111111111106)"/></g><path d="M1480 400h240v60h-240z" stroke="#000" stroke-opacity="0" stroke-width="2" fill="#fff" fill-opacity="0"/><g><use xlink:href="#ah" transform="matrix(1,0,0,1,1485,405) translate(107.53086419753086 30.886111111111106)"/></g><path d="M540 501h240v60H540z" stroke="#000" stroke-opacity="0" stroke-width="2" fill="#fff" fill-opacity="0"/><g><use xlink:href="#ah" transform="matrix(1,0,0,1,545,506) translate(107.53086419753086 30.886111111111106)"/></g><path d="M600 618.4h240v60H600z" stroke="#000" stroke-opacity="0" stroke-width="2" fill="#fff" fill-opacity="0"/><g><use xlink:href="#ai" transform="matrix(1,0,0,1,605,623.3939393939395) translate(109.77160493827161 30.886111111111106)"/></g><path d="M540 907h240v60H540z" stroke="#000" stroke-opacity="0" stroke-width="2" fill="#fff" fill-opacity="0"/><g><use xlink:href="#ag" transform="matrix(1,0,0,1,545,912) translate(94.83333333333334 30.886111111111106)"/></g><path d="M600 941h240v60H600z" stroke="#000" stroke-opacity="0" stroke-width="2" fill="#fff" fill-opacity="0"/><g><use xlink:href="#ai" transform="matrix(1,0,0,1,605,946) translate(109.77160493827161 30.886111111111106)"/></g><path d="M780 1043.64h240v106.8H780z" stroke="#000" stroke-opacity="0" stroke-width="2" fill="#fff" fill-opacity="0"/><g><use xlink:href="#ah" transform="matrix(1,0,0,1,785,1048.6352052660966) translate(107.53086419753086 54.854861111111106)"/></g><path d="M920 1140h240v60H920z" stroke="#000" stroke-opacity="0" stroke-width="2" fill="#fff" fill-opacity="0"/><g><use xlink:href="#ag" transform="matrix(1,0,0,1,925,1145) translate(94.83333333333334 30.886111111111106)"/></g><path d="M520 1290.75h240v60H520z" stroke="#000" stroke-opacity="0" stroke-width="2" fill="#fff" fill-opacity="0"/><g><use xlink:href="#ag" transform="matrix(1,0,0,1,525,1295.75) translate(94.83333333333334 30.886111111111106)"/></g><path d="M1920 460h240v60h-240z" stroke="#000" stroke-opacity="0" stroke-width="2" fill="#fff" fill-opacity="0"/><g><use xlink:href="#ah" transform="matrix(1,0,0,1,1925,465) translate(107.53086419753086 30.886111111111106)"/></g><path d="M1360 1043.64h240v60h-240z" stroke="#000" stroke-opacity="0" stroke-width="2" fill="#fff" fill-opacity="0"/><g><use xlink:href="#ag" transform="matrix(1,0,0,1,1365,1048.6352052660966) translate(94.83333333333334 30.886111111111106)"/></g><path d="M1500.18 1090.44h240v60h-240z" stroke="#000" stroke-opacity="0" stroke-width="2" fill="#fff" fill-opacity="0"/><g><use xlink:href="#ah" transform="matrix(1,0,0,1,1505.1761736631338,1095.4352052660965) translate(107.53086419753086 30.886111111111106)"/></g><path d="M1660 834.4h240v60h-240z" stroke="#000" stroke-opacity="0" stroke-width="2" fill="#fff" fill-opacity="0"/><g><use xlink:href="#ag" transform="matrix(1,0,0,1,1665,839.3939393939395) translate(94.83333333333334 30.886111111111106)"/></g><path d="M1720 913.6h240v60h-240z" stroke="#000" stroke-opacity="0" stroke-width="2" fill="#fff" fill-opacity="0"/><g><use xlink:href="#ah" transform="matrix(1,0,0,1,1725,918.5909090909092) translate(107.53086419753086 30.886111111111106)"/></g><path d="M800 820h240v60H800z" stroke="#000" stroke-opacity="0" stroke-width="2" fill="#fff" fill-opacity="0"/><g><use xlink:href="#ag" transform="matrix(1,0,0,1,805,825) translate(94.83333333333334 30.886111111111106)"/></g><path d="M1480 539.2h240v60h-240z" stroke="#000" stroke-opacity="0" stroke-width="2" fill="#fff" fill-opacity="0"/><g><use xlink:href="#ah" transform="matrix(1,0,0,1,1485,544.1969696969697) translate(107.53086419753086 30.886111111111106)"/></g><path d="M882 754.8h378V503" stroke="#000" stroke-width="2" fill="none"/><path d="M882.03 755.8H881v-2h1.03zM1261 503.03h-2V502h2z"/><path d="M800 699h240v60H800z" stroke="#000" stroke-opacity="0" stroke-width="2" fill="#fff" fill-opacity="0"/><g><use xlink:href="#ag" transform="matrix(1,0,0,1,805,704) translate(94.83333333333334 30.886111111111106)"/></g><path d="M1180 501h240v60h-240z" stroke="#000" stroke-opacity="0" stroke-width="2" fill="#fff" fill-opacity="0"/><g><use xlink:href="#ah" transform="matrix(1,0,0,1,1185,506) translate(107.53086419753086 30.886111111111106)"/></g><path d="M1680 580.34h240v60h-240z" stroke="#000" stroke-opacity="0" stroke-width="2" fill="#fff" fill-opacity="0"/><g><use xlink:href="#ah" transform="matrix(1,0,0,1,1685,585.3383838383838) translate(107.53086419753086 30.886111111111106)"/></g><path d="M1759.88 631.6h240v60h-240z" stroke="#000" stroke-opacity="0" stroke-width="2" fill="#fff" fill-opacity="0"/><g><use xlink:href="#ag" transform="matrix(1,0,0,1,1764.8839681164895,636.5999999999999) translate(94.83333333333334 30.886111111111106)"/></g><defs><path d="M232-93c-1 65-40 97-104 97C67 4 28-28 28-90v-158h33c8 89-33 224 67 224 102 0 64-133 71-224h33v155" id="aj"/><path d="M135-143c-3-34-86-38-87 0 15 53 115 12 119 90S17 21 10-45l28-5c4 36 97 45 98 0-10-56-113-15-118-90-4-57 82-63 122-42 12 7 21 19 24 35" id="ak"/><path d="M100-194c63 0 86 42 84 106H49c0 40 14 67 53 68 26 1 43-12 49-29l28 8c-11 28-37 45-77 45C44 4 14-33 15-96c1-61 26-98 85-98zm52 81c6-60-76-77-97-28-3 7-6 17-6 28h103" id="al"/><path d="M114-163C36-179 61-72 57 0H25l-1-190h30c1 12-1 29 2 39 6-27 23-49 58-41v29" id="am"/><g id="a"><use transform="matrix(0.05,0,0,0.05,0,0)" xlink:href="#aj"/><use transform="matrix(0.05,0,0,0.05,12.950000000000001,0)" xlink:href="#ak"/><use transform="matrix(0.05,0,0,0.05,21.950000000000003,0)" xlink:href="#al"/><use transform="matrix(0.05,0,0,0.05,31.950000000000003,0)" xlink:href="#am"/></g><path d="M118-107v75H92v-75H18v-26h74v-75h26v75h74v26h-74" id="an"/><use transform="matrix(0.05,0,0,0.05,0,0)" xlink:href="#an" id="b"/><path d="M190 0L58-211 59 0H30v-248h39L202-35l-2-213h31V0h-41" id="ao"/><path d="M141-36C126-15 110 5 73 4 37 3 15-17 15-53c-1-64 63-63 125-63 3-35-9-54-41-54-24 1-41 7-42 31l-33-3c5-37 33-52 76-52 45 0 72 20 72 64v82c-1 20 7 32 28 27v20c-31 9-61-2-59-35zM48-53c0 20 12 33 32 33 41-3 63-29 60-74-43 2-92-5-92 41" id="ap"/><path d="M210-169c-67 3-38 105-44 169h-31v-121c0-29-5-50-35-48C34-165 62-65 56 0H25l-1-190h30c1 10-1 24 2 32 10-44 99-50 107 0 11-21 27-35 58-36 85-2 47 119 55 194h-31v-121c0-29-5-49-35-48" id="aq"/><path d="M33-154v-36h34v36H33zM33 0v-36h34V0H33" id="ar"/><g id="c"><use transform="matrix(0.05,0,0,0.05,0,0)" xlink:href="#ao"/><use transform="matrix(0.05,0,0,0.05,12.950000000000001,0)" xlink:href="#ap"/><use transform="matrix(0.05,0,0,0.05,22.950000000000003,0)" xlink:href="#aq"/><use transform="matrix(0.05,0,0,0.05,37.900000000000006,0)" xlink:href="#al"/><use transform="matrix(0.05,0,0,0.05,47.900000000000006,0)" xlink:href="#ar"/></g><path d="M185-189c-5-48-123-54-124 2 14 75 158 14 163 119 3 78-121 87-175 55-17-10-28-26-33-46l33-7c5 56 141 63 141-1 0-78-155-14-162-118-5-82 145-84 179-34 5 7 8 16 11 25" id="as"/><path d="M59-47c-2 24 18 29 38 22v24C64 9 27 4 27-40v-127H5v-23h24l9-43h21v43h35v23H59v120" id="at"/><path d="M24-231v-30h32v30H24zM24 0v-190h32V0H24" id="au"/><path d="M117-194c89-4 53 116 60 194h-32v-121c0-31-8-49-39-48C34-167 62-67 57 0H25l-1-190h30c1 10-1 24 2 32 11-22 29-35 61-36" id="av"/><path d="M177-190C167-65 218 103 67 71c-23-6-38-20-44-43l32-5c15 47 100 32 89-28v-30C133-14 115 1 83 1 29 1 15-40 15-95c0-56 16-97 71-98 29-1 48 16 59 35 1-10 0-23 2-32h30zM94-22c36 0 50-32 50-73 0-42-14-75-50-75-39 0-46 34-46 75s6 73 46 73" id="aw"/><g id="d"><use transform="matrix(0.05,0,0,0.05,0,0)" xlink:href="#as"/><use transform="matrix(0.05,0,0,0.05,12,0)" xlink:href="#at"/><use transform="matrix(0.05,0,0,0.05,17,0)" xlink:href="#am"/><use transform="matrix(0.05,0,0,0.05,22.95,0)" xlink:href="#au"/><use transform="matrix(0.05,0,0,0.05,26.899999999999995,0)" xlink:href="#av"/><use transform="matrix(0.05,0,0,0.05,36.9,0)" xlink:href="#aw"/></g><path d="M30-248c87 1 191-15 191 75 0 78-77 80-158 76V0H30v-248zm33 125c57 0 124 11 124-50 0-59-68-47-124-48v98" id="ax"/><path d="M206 0h-36l-40-164L89 0H53L-1-190h32L70-26l43-164h34l41 164 42-164h31" id="ay"/><path d="M100-194c62-1 85 37 85 99 1 63-27 99-86 99S16-35 15-95c0-66 28-99 85-99zM99-20c44 1 53-31 53-75 0-43-8-75-51-75s-53 32-53 75 10 74 51 75" id="az"/><path d="M85-194c31 0 48 13 60 33l-1-100h32l1 261h-30c-2-10 0-23-3-31C134-8 116 4 85 4 32 4 16-35 15-94c0-66 23-100 70-100zm9 24c-40 0-46 34-46 75 0 40 6 74 45 74 42 0 51-32 51-76 0-42-9-74-50-73" id="aA"/><g id="e"><use transform="matrix(0.05,0,0,0.05,0,0)" xlink:href="#an"/><use transform="matrix(0.05,0,0,0.05,10.5,0)" xlink:href="#ax"/><use transform="matrix(0.05,0,0,0.05,22.5,0)" xlink:href="#ap"/><use transform="matrix(0.05,0,0,0.05,32.5,0)" xlink:href="#ak"/><use transform="matrix(0.05,0,0,0.05,41.5,0)" xlink:href="#ak"/><use transform="matrix(0.05,0,0,0.05,50.5,0)" xlink:href="#ay"/><use transform="matrix(0.05,0,0,0.05,63.45,0)" xlink:href="#az"/><use transform="matrix(0.05,0,0,0.05,73.45,0)" xlink:href="#am"/><use transform="matrix(0.05,0,0,0.05,79.4,0)" xlink:href="#aA"/><use transform="matrix(0.05,0,0,0.05,89.4,0)" xlink:href="#ar"/></g><path d="M30 0v-248h187v28H63v79h144v27H63v87h162V0H30" id="aB"/><path d="M24 0v-261h32V0H24" id="aC"/><g id="f"><use transform="matrix(0.05,0,0,0.05,0,0)" xlink:href="#an"/><use transform="matrix(0.05,0,0,0.05,10.5,0)" xlink:href="#aB"/><use transform="matrix(0.05,0,0,0.05,22.5,0)" xlink:href="#aq"/><use transform="matrix(0.05,0,0,0.05,37.45,0)" xlink:href="#ap"/><use transform="matrix(0.05,0,0,0.05,47.45,0)" xlink:href="#au"/><use transform="matrix(0.05,0,0,0.05,51.400000000000006,0)" xlink:href="#aC"/><use transform="matrix(0.05,0,0,0.05,55.35,0)" xlink:href="#ar"/></g><g id="g"><use transform="matrix(0.05,0,0,0.05,0,0)" xlink:href="#as"/><use transform="matrix(0.05,0,0,0.05,12,0)" xlink:href="#at"/><use transform="matrix(0.05,0,0,0.05,17,0)" xlink:href="#am"/><use transform="matrix(0.05,0,0,0.05,22.95,0)" xlink:href="#au"/><use transform="matrix(0.05,0,0,0.05,26.899999999999995,0)" xlink:href="#av"/><use transform="matrix(0.05,0,0,0.05,36.9,0)" xlink:href="#aw"/></g><path d="M205 0l-28-72H64L36 0H1l101-248h38L239 0h-34zm-38-99l-47-123c-12 45-31 82-46 123h93" id="aD"/><path d="M84 4C-5 8 30-112 23-190h32v120c0 31 7 50 39 49 72-2 45-101 50-169h31l1 190h-30c-1-10 1-25-2-33-11 22-28 36-60 37" id="aE"/><path d="M106-169C34-169 62-67 57 0H25v-261h32l-1 103c12-21 28-36 61-36 89 0 53 116 60 194h-32v-121c2-32-8-49-39-48" id="aF"/><path d="M101-234c-31-9-42 10-38 44h38v23H63V0H32v-167H5v-23h27c-7-52 17-82 69-68v24" id="aG"/><path d="M96-169c-40 0-48 33-48 73s9 75 48 75c24 0 41-14 43-38l32 2c-6 37-31 61-74 61-59 0-76-41-82-99-10-93 101-131 147-64 4 7 5 14 7 22l-32 3c-4-21-16-35-41-35" id="aH"/><path d="M87 75C49 33 22-17 22-94c0-76 28-126 65-167h31c-38 41-64 92-64 168S80 34 118 75H87" id="aI"/><path d="M33-261c38 41 65 92 65 168S71 34 33 75H2C39 34 66-17 66-93S39-220 2-261h31" id="aJ"/><g id="h"><use transform="matrix(0.05,0,0,0.05,0,0)" xlink:href="#aD"/><use transform="matrix(0.05,0,0,0.05,12,0)" xlink:href="#aE"/><use transform="matrix(0.05,0,0,0.05,22,0)" xlink:href="#at"/><use transform="matrix(0.05,0,0,0.05,27,0)" xlink:href="#aF"/><use transform="matrix(0.05,0,0,0.05,37,0)" xlink:href="#al"/><use transform="matrix(0.05,0,0,0.05,47,0)" xlink:href="#av"/><use transform="matrix(0.05,0,0,0.05,57,0)" xlink:href="#aG"/><use transform="matrix(0.05,0,0,0.05,62,0)" xlink:href="#au"/><use transform="matrix(0.05,0,0,0.05,65.95,0)" xlink:href="#aH"/><use transform="matrix(0.05,0,0,0.05,74.95,0)" xlink:href="#ap"/><use transform="matrix(0.05,0,0,0.05,84.95,0)" xlink:href="#at"/><use transform="matrix(0.05,0,0,0.05,89.95,0)" xlink:href="#au"/><use transform="matrix(0.05,0,0,0.05,93.9,0)" xlink:href="#az"/><use transform="matrix(0.05,0,0,0.05,103.9,0)" xlink:href="#av"/><use transform="matrix(0.05,0,0,0.05,113.9,0)" xlink:href="#aI"/><use transform="matrix(0.05,0,0,0.05,119.85000000000001,0)" xlink:href="#aJ"/></g><path d="M212-179c-10-28-35-45-73-45-59 0-87 40-87 99 0 60 29 101 89 101 43 0 62-24 78-52l27 14C228-24 195 4 139 4 59 4 22-46 18-125c-6-104 99-153 187-111 19 9 31 26 39 46" id="aK"/><g id="i"><use transform="matrix(0.05,0,0,0.05,0,0)" xlink:href="#aK"/><use transform="matrix(0.05,0,0,0.05,12.950000000000001,0)" xlink:href="#aE"/><use transform="matrix(0.05,0,0,0.05,22.950000000000003,0)" xlink:href="#ak"/><use transform="matrix(0.05,0,0,0.05,31.950000000000003,0)" xlink:href="#at"/><use transform="matrix(0.05,0,0,0.05,36.95,0)" xlink:href="#az"/><use transform="matrix(0.05,0,0,0.05,46.95,0)" xlink:href="#aq"/><use transform="matrix(0.05,0,0,0.05,61.900000000000006,0)" xlink:href="#al"/><use transform="matrix(0.05,0,0,0.05,71.9,0)" xlink:href="#am"/></g><g id="j"><use transform="matrix(0.05,0,0,0.05,0,0)" xlink:href="#an"/><use transform="matrix(0.05,0,0,0.05,10.5,0)" xlink:href="#ax"/><use transform="matrix(0.05,0,0,0.05,22.5,0)" xlink:href="#aF"/><use transform="matrix(0.05,0,0,0.05,32.5,0)" xlink:href="#az"/><use transform="matrix(0.05,0,0,0.05,42.5,0)" xlink:href="#av"/><use transform="matrix(0.05,0,0,0.05,52.5,0)" xlink:href="#al"/><use transform="matrix(0.05,0,0,0.05,62.5,0)" xlink:href="#ar"/></g><path d="M140-251c81 0 123 46 123 126C263-46 219 4 140 4 59 4 17-45 17-125s42-126 123-126zm0 227c63 0 89-41 89-101s-29-99-89-99c-61 0-89 39-89 99S79-25 140-24" id="aL"/><g id="k"><use transform="matrix(0.05,0,0,0.05,0,0)" xlink:href="#an"/><use transform="matrix(0.05,0,0,0.05,10.5,0)" xlink:href="#aL"/><use transform="matrix(0.05,0,0,0.05,24.5,0)" xlink:href="#am"/><use transform="matrix(0.05,0,0,0.05,30.450000000000003,0)" xlink:href="#aA"/><use transform="matrix(0.05,0,0,0.05,40.45,0)" xlink:href="#al"/><use transform="matrix(0.05,0,0,0.05,50.45,0)" xlink:href="#am"/><use transform="matrix(0.05,0,0,0.05,56.400000000000006,0)" xlink:href="#aI"/><use transform="matrix(0.05,0,0,0.05,62.35,0)" xlink:href="#aJ"/></g><path d="M-5 72V49h209v23H-5" id="aM"/><g id="l"><use transform="matrix(0.05,0,0,0.05,0,0)" xlink:href="#an"/><use transform="matrix(0.05,0,0,0.05,10.5,0)" xlink:href="#aK"/><use transform="matrix(0.05,0,0,0.05,23.450000000000003,0)" xlink:href="#az"/><use transform="matrix(0.05,0,0,0.05,33.45,0)" xlink:href="#av"/><use transform="matrix(0.05,0,0,0.05,43.45,0)" xlink:href="#ak"/><use transform="matrix(0.05,0,0,0.05,52.45,0)" xlink:href="#aE"/><use transform="matrix(0.05,0,0,0.05,62.45,0)" xlink:href="#aC"/><use transform="matrix(0.05,0,0,0.05,66.4,0)" xlink:href="#at"/><use transform="matrix(0.05,0,0,0.05,71.4,0)" xlink:href="#aM"/><use transform="matrix(0.05,0,0,0.05,81.4,0)" xlink:href="#aL"/><use transform="matrix(0.05,0,0,0.05,95.4,0)" xlink:href="#am"/><use transform="matrix(0.05,0,0,0.05,101.35000000000001,0)" xlink:href="#aA"/><use transform="matrix(0.05,0,0,0.05,111.35000000000001,0)" xlink:href="#al"/><use transform="matrix(0.05,0,0,0.05,121.35000000000001,0)" xlink:href="#am"/><use transform="matrix(0.05,0,0,0.05,127.30000000000001,0)" xlink:href="#aM"/><use transform="matrix(0.05,0,0,0.05,137.3,0)" xlink:href="#ak"/><use transform="matrix(0.05,0,0,0.05,146.3,0)" xlink:href="#at"/><use transform="matrix(0.05,0,0,0.05,151.3,0)" xlink:href="#ap"/><use transform="matrix(0.05,0,0,0.05,161.3,0)" xlink:href="#at"/><use transform="matrix(0.05,0,0,0.05,166.3,0)" xlink:href="#al"/><use transform="matrix(0.05,0,0,0.05,176.3,0)" xlink:href="#aI"/><use transform="matrix(0.05,0,0,0.05,182.25,0)" xlink:href="#aJ"/></g><g id="m"><use transform="matrix(0.05,0,0,0.05,0,0)" xlink:href="#aD"/><use transform="matrix(0.05,0,0,0.05,12,0)" xlink:href="#aA"/><use transform="matrix(0.05,0,0,0.05,22,0)" xlink:href="#am"/><use transform="matrix(0.05,0,0,0.05,27.950000000000003,0)" xlink:href="#al"/><use transform="matrix(0.05,0,0,0.05,37.95,0)" xlink:href="#ak"/><use transform="matrix(0.05,0,0,0.05,46.95,0)" xlink:href="#ak"/></g><g id="n"><use transform="matrix(0.05,0,0,0.05,0,0)" xlink:href="#an"/><use transform="matrix(0.05,0,0,0.05,10.5,0)" xlink:href="#ao"/><use transform="matrix(0.05,0,0,0.05,23.450000000000003,0)" xlink:href="#ap"/><use transform="matrix(0.05,0,0,0.05,33.45,0)" xlink:href="#aq"/><use transform="matrix(0.05,0,0,0.05,48.400000000000006,0)" xlink:href="#al"/><use transform="matrix(0.05,0,0,0.05,58.400000000000006,0)" xlink:href="#ar"/></g><g id="o"><use transform="matrix(0.05,0,0,0.05,0,0)" xlink:href="#an"/><use transform="matrix(0.05,0,0,0.05,10.5,0)" xlink:href="#aD"/><use transform="matrix(0.05,0,0,0.05,22.5,0)" xlink:href="#aA"/><use transform="matrix(0.05,0,0,0.05,32.5,0)" xlink:href="#am"/><use transform="matrix(0.05,0,0,0.05,38.45,0)" xlink:href="#al"/><use transform="matrix(0.05,0,0,0.05,48.45,0)" xlink:href="#ak"/><use transform="matrix(0.05,0,0,0.05,57.45,0)" xlink:href="#ak"/><use transform="matrix(0.05,0,0,0.05,66.45,0)" xlink:href="#ar"/></g><path d="M209 0H11v-25l151-195H24v-28h176v25L50-27h159V0" id="aN"/><path d="M115-194c55 1 70 41 70 98S169 2 115 4C84 4 66-9 55-30l1 105H24l-1-265h31l2 30c10-21 28-34 59-34zm-8 174c40 0 45-34 45-75s-6-73-45-74c-42 0-51 32-51 76 0 43 10 73 51 73" id="aO"/><g id="p"><use transform="matrix(0.05,0,0,0.05,0,0)" xlink:href="#an"/><use transform="matrix(0.05,0,0,0.05,10.5,0)" xlink:href="#aN"/><use transform="matrix(0.05,0,0,0.05,21.450000000000003,0)" xlink:href="#au"/><use transform="matrix(0.05,0,0,0.05,25.400000000000002,0)" xlink:href="#aO"/><use transform="matrix(0.05,0,0,0.05,35.400000000000006,0)" xlink:href="#aK"/><use transform="matrix(0.05,0,0,0.05,48.35000000000001,0)" xlink:href="#az"/><use transform="matrix(0.05,0,0,0.05,58.35,0)" xlink:href="#aA"/><use transform="matrix(0.05,0,0,0.05,68.35000000000001,0)" xlink:href="#al"/><use transform="matrix(0.05,0,0,0.05,78.35000000000001,0)" xlink:href="#ar"/></g><path d="M33 0v-248h34V0H33" id="aP"/><g id="q"><use transform="matrix(0.05,0,0,0.05,0,0)" xlink:href="#aP"/><use transform="matrix(0.05,0,0,0.05,5,0)" xlink:href="#av"/><use transform="matrix(0.05,0,0,0.05,15,0)" xlink:href="#at"/></g><path d="M179-190L93 31C79 59 56 82 12 73V49c39 6 53-20 64-50L1-190h34L92-34l54-156h33" id="aQ"/><g id="r"><use transform="matrix(0.05,0,0,0.05,0,0)" xlink:href="#an"/><use transform="matrix(0.05,0,0,0.05,10.5,0)" xlink:href="#aK"/><use transform="matrix(0.05,0,0,0.05,23.450000000000003,0)" xlink:href="#au"/><use transform="matrix(0.05,0,0,0.05,27.400000000000002,0)" xlink:href="#at"/><use transform="matrix(0.05,0,0,0.05,32.400000000000006,0)" xlink:href="#aQ"/><use transform="matrix(0.05,0,0,0.05,41.400000000000006,0)" xlink:href="#ar"/></g><g id="s"><use transform="matrix(0.05,0,0,0.05,0,0)" xlink:href="#an"/><use transform="matrix(0.05,0,0,0.05,10.5,0)" xlink:href="#aK"/><use transform="matrix(0.05,0,0,0.05,23.450000000000003,0)" xlink:href="#az"/><use transform="matrix(0.05,0,0,0.05,33.45,0)" xlink:href="#aE"/><use transform="matrix(0.05,0,0,0.05,43.45,0)" xlink:href="#av"/><use transform="matrix(0.05,0,0,0.05,53.45,0)" xlink:href="#at"/><use transform="matrix(0.05,0,0,0.05,58.45,0)" xlink:href="#am"/><use transform="matrix(0.05,0,0,0.05,64.4,0)" xlink:href="#aQ"/><use transform="matrix(0.05,0,0,0.05,73.4,0)" xlink:href="#ar"/></g><g id="t"><use transform="matrix(0.05,0,0,0.05,0,0)" xlink:href="#aB"/><use transform="matrix(0.05,0,0,0.05,12,0)" xlink:href="#aq"/><use transform="matrix(0.05,0,0,0.05,26.950000000000003,0)" xlink:href="#aO"/><use transform="matrix(0.05,0,0,0.05,36.95,0)" xlink:href="#aC"/><use transform="matrix(0.05,0,0,0.05,40.900000000000006,0)" xlink:href="#az"/><use transform="matrix(0.05,0,0,0.05,50.900000000000006,0)" xlink:href="#aQ"/><use transform="matrix(0.05,0,0,0.05,59.900000000000006,0)" xlink:href="#al"/></g><path d="M233-177c-1 41-23 64-60 70L243 0h-38l-65-103H63V0H30v-248c88 3 205-21 203 71zM63-129c60-2 137 13 137-47 0-61-80-42-137-45v92" id="aR"/><g id="u"><use transform="matrix(0.05,0,0,0.05,0,0)" xlink:href="#an"/><use transform="matrix(0.05,0,0,0.05,10.5,0)" xlink:href="#aR"/><use transform="matrix(0.05,0,0,0.05,23.450000000000003,0)" xlink:href="#az"/><use transform="matrix(0.05,0,0,0.05,33.45,0)" xlink:href="#aC"/><use transform="matrix(0.05,0,0,0.05,37.400000000000006,0)" xlink:href="#al"/><use transform="matrix(0.05,0,0,0.05,47.400000000000006,0)" xlink:href="#ar"/></g><g id="v"><use transform="matrix(0.05,0,0,0.05,0,0)" xlink:href="#an"/><use transform="matrix(0.05,0,0,0.05,10.5,0)" xlink:href="#aj"/><use transform="matrix(0.05,0,0,0.05,23.450000000000003,0)" xlink:href="#aO"/><use transform="matrix(0.05,0,0,0.05,33.45,0)" xlink:href="#aA"/><use transform="matrix(0.05,0,0,0.05,43.45,0)" xlink:href="#ap"/><use transform="matrix(0.05,0,0,0.05,53.45,0)" xlink:href="#at"/><use transform="matrix(0.05,0,0,0.05,58.45,0)" xlink:href="#al"/><use transform="matrix(0.05,0,0,0.05,68.45,0)" xlink:href="#aM"/><use transform="matrix(0.05,0,0,0.05,78.45,0)" xlink:href="#as"/><use transform="matrix(0.05,0,0,0.05,90.45,0)" xlink:href="#at"/><use transform="matrix(0.05,0,0,0.05,95.45,0)" xlink:href="#ap"/><use transform="matrix(0.05,0,0,0.05,105.45,0)" xlink:href="#at"/><use transform="matrix(0.05,0,0,0.05,110.45,0)" xlink:href="#al"/><use transform="matrix(0.05,0,0,0.05,120.45,0)" xlink:href="#aM"/><use transform="matrix(0.05,0,0,0.05,130.45,0)" xlink:href="#aL"/><use transform="matrix(0.05,0,0,0.05,144.45,0)" xlink:href="#am"/><use transform="matrix(0.05,0,0,0.05,150.39999999999998,0)" xlink:href="#aA"/><use transform="matrix(0.05,0,0,0.05,160.39999999999998,0)" xlink:href="#al"/><use transform="matrix(0.05,0,0,0.05,170.39999999999998,0)" xlink:href="#am"/><use transform="matrix(0.05,0,0,0.05,176.34999999999997,0)" xlink:href="#aI"/><use transform="matrix(0.05,0,0,0.05,182.29999999999995,0)" xlink:href="#aJ"/></g><g id="w"><use transform="matrix(0.05,0,0,0.05,0,0)" xlink:href="#an"/><use transform="matrix(0.05,0,0,0.05,10.5,0)" xlink:href="#aK"/><use transform="matrix(0.05,0,0,0.05,23.450000000000003,0)" xlink:href="#az"/><use transform="matrix(0.05,0,0,0.05,33.45,0)" xlink:href="#av"/><use transform="matrix(0.05,0,0,0.05,43.45,0)" xlink:href="#ak"/><use transform="matrix(0.05,0,0,0.05,52.45,0)" xlink:href="#aE"/><use transform="matrix(0.05,0,0,0.05,62.45,0)" xlink:href="#aC"/><use transform="matrix(0.05,0,0,0.05,66.4,0)" xlink:href="#at"/><use transform="matrix(0.05,0,0,0.05,71.4,0)" xlink:href="#aM"/><use transform="matrix(0.05,0,0,0.05,81.4,0)" xlink:href="#aL"/><use transform="matrix(0.05,0,0,0.05,95.4,0)" xlink:href="#am"/><use transform="matrix(0.05,0,0,0.05,101.35000000000001,0)" xlink:href="#aA"/><use transform="matrix(0.05,0,0,0.05,111.35000000000001,0)" xlink:href="#al"/><use transform="matrix(0.05,0,0,0.05,121.35000000000001,0)" xlink:href="#am"/><use transform="matrix(0.05,0,0,0.05,127.30000000000001,0)" xlink:href="#aI"/><use transform="matrix(0.05,0,0,0.05,133.25,0)" xlink:href="#aJ"/></g><g id="x"><use transform="matrix(0.05,0,0,0.05,0,0)" xlink:href="#an"/><use transform="matrix(0.05,0,0,0.05,10.5,0)" xlink:href="#aK"/><use transform="matrix(0.05,0,0,0.05,23.450000000000003,0)" xlink:href="#az"/><use transform="matrix(0.05,0,0,0.05,33.45,0)" xlink:href="#av"/><use transform="matrix(0.05,0,0,0.05,43.45,0)" xlink:href="#ak"/><use transform="matrix(0.05,0,0,0.05,52.45,0)" xlink:href="#aE"/><use transform="matrix(0.05,0,0,0.05,62.45,0)" xlink:href="#aC"/><use transform="matrix(0.05,0,0,0.05,66.4,0)" xlink:href="#at"/><use transform="matrix(0.05,0,0,0.05,71.4,0)" xlink:href="#aM"/><use transform="matrix(0.05,0,0,0.05,81.4,0)" xlink:href="#aR"/><use transform="matrix(0.05,0,0,0.05,94.35000000000001,0)" xlink:href="#al"/><use transform="matrix(0.05,0,0,0.05,104.35000000000001,0)" xlink:href="#aH"/><use transform="matrix(0.05,0,0,0.05,113.35000000000001,0)" xlink:href="#au"/><use transform="matrix(0.05,0,0,0.05,117.30000000000001,0)" xlink:href="#aO"/><use transform="matrix(0.05,0,0,0.05,127.30000000000001,0)" xlink:href="#al"/><use transform="matrix(0.05,0,0,0.05,137.3,0)" xlink:href="#aI"/><use transform="matrix(0.05,0,0,0.05,143.25,0)" xlink:href="#aJ"/></g><g id="y"><use transform="matrix(0.05,0,0,0.05,0,0)" xlink:href="#aL"/><use transform="matrix(0.05,0,0,0.05,14,0)" xlink:href="#am"/><use transform="matrix(0.05,0,0,0.05,19.95,0)" xlink:href="#aA"/><use transform="matrix(0.05,0,0,0.05,29.950000000000003,0)" xlink:href="#al"/><use transform="matrix(0.05,0,0,0.05,39.95,0)" xlink:href="#am"/></g><g id="z"><use transform="matrix(0.05,0,0,0.05,0,0)" xlink:href="#an"/><use transform="matrix(0.05,0,0,0.05,10.5,0)" xlink:href="#as"/><use transform="matrix(0.05,0,0,0.05,22.5,0)" xlink:href="#at"/><use transform="matrix(0.05,0,0,0.05,27.5,0)" xlink:href="#ap"/><use transform="matrix(0.05,0,0,0.05,37.5,0)" xlink:href="#at"/><use transform="matrix(0.05,0,0,0.05,42.5,0)" xlink:href="#aE"/><use transform="matrix(0.05,0,0,0.05,52.5,0)" xlink:href="#at"/><use transform="matrix(0.05,0,0,0.05,57.5,0)" xlink:href="#ar"/></g><path d="M30-248c118-7 216 8 213 122C240-48 200 0 122 0H30v-248zM63-27c89 8 146-16 146-99s-60-101-146-95v194" id="aS"/><g id="A"><use transform="matrix(0.05,0,0,0.05,0,0)" xlink:href="#an"/><use transform="matrix(0.05,0,0,0.05,10.5,0)" xlink:href="#aS"/><use transform="matrix(0.05,0,0,0.05,23.450000000000003,0)" xlink:href="#ap"/><use transform="matrix(0.05,0,0,0.05,33.45,0)" xlink:href="#at"/><use transform="matrix(0.05,0,0,0.05,38.45,0)" xlink:href="#al"/><use transform="matrix(0.05,0,0,0.05,48.45,0)" xlink:href="#ar"/></g><g id="B"><use transform="matrix(0.05,0,0,0.05,0,0)" xlink:href="#aB"/><use transform="matrix(0.05,0,0,0.05,12,0)" xlink:href="#aS"/><use transform="matrix(0.05,0,0,0.05,24.950000000000003,0)" xlink:href="#ap"/><use transform="matrix(0.05,0,0,0.05,34.95,0)" xlink:href="#at"/><use transform="matrix(0.05,0,0,0.05,39.95,0)" xlink:href="#al"/></g><g id="C"><use transform="matrix(0.05,0,0,0.05,0,0)" xlink:href="#an"/><use transform="matrix(0.05,0,0,0.05,10.5,0)" xlink:href="#ax"/><use transform="matrix(0.05,0,0,0.05,22.5,0)" xlink:href="#ap"/><use transform="matrix(0.05,0,0,0.05,32.5,0)" xlink:href="#au"/><use transform="matrix(0.05,0,0,0.05,36.45,0)" xlink:href="#aA"/><use transform="matrix(0.05,0,0,0.05,46.45,0)" xlink:href="#aM"/><use transform="matrix(0.05,0,0,0.05,56.45,0)" xlink:href="#ax"/><use transform="matrix(0.05,0,0,0.05,68.45,0)" xlink:href="#am"/><use transform="matrix(0.05,0,0,0.05,74.4,0)" xlink:href="#au"/><use transform="matrix(0.05,0,0,0.05,78.35000000000001,0)" xlink:href="#aH"/><use transform="matrix(0.05,0,0,0.05,87.35000000000001,0)" xlink:href="#al"/><use transform="matrix(0.05,0,0,0.05,97.35000000000001,0)" xlink:href="#ar"/></g><path d="M63-220v92h138v28H63V0H30v-248h175v28H63" id="aT"/><g id="D"><use transform="matrix(0.05,0,0,0.05,0,0)" xlink:href="#aT"/><use transform="matrix(0.05,0,0,0.05,10.950000000000001,0)" xlink:href="#aC"/><use transform="matrix(0.05,0,0,0.05,14.9,0)" xlink:href="#az"/><use transform="matrix(0.05,0,0,0.05,24.900000000000002,0)" xlink:href="#ap"/><use transform="matrix(0.05,0,0,0.05,34.900000000000006,0)" xlink:href="#at"/></g><g id="E"><use transform="matrix(0.05,0,0,0.05,0,0)" xlink:href="#an"/><use transform="matrix(0.05,0,0,0.05,10.5,0)" xlink:href="#aD"/><use transform="matrix(0.05,0,0,0.05,22.5,0)" xlink:href="#aA"/><use transform="matrix(0.05,0,0,0.05,32.5,0)" xlink:href="#aA"/><use transform="matrix(0.05,0,0,0.05,42.5,0)" xlink:href="#aM"/><use transform="matrix(0.05,0,0,0.05,52.5,0)" xlink:href="#aD"/><use transform="matrix(0.05,0,0,0.05,64.5,0)" xlink:href="#aC"/><use transform="matrix(0.05,0,0,0.05,68.45,0)" xlink:href="#au"/><use transform="matrix(0.05,0,0,0.05,72.4,0)" xlink:href="#aq"/><use transform="matrix(0.05,0,0,0.05,87.35000000000001,0)" xlink:href="#al"/><use transform="matrix(0.05,0,0,0.05,97.35000000000001,0)" xlink:href="#av"/><use transform="matrix(0.05,0,0,0.05,107.35000000000001,0)" xlink:href="#at"/><use transform="matrix(0.05,0,0,0.05,112.35000000000001,0)" xlink:href="#aI"/><use transform="matrix(0.05,0,0,0.05,118.30000000000001,0)" xlink:href="#aJ"/></g><path d="M143 0L79-87 56-68V0H24v-261h32v163l83-92h37l-77 82L181 0h-38" id="aU"/><g id="F"><use transform="matrix(0.05,0,0,0.05,0,0)" xlink:href="#an"/><use transform="matrix(0.05,0,0,0.05,10.5,0)" xlink:href="#aj"/><use transform="matrix(0.05,0,0,0.05,23.450000000000003,0)" xlink:href="#aO"/><use transform="matrix(0.05,0,0,0.05,33.45,0)" xlink:href="#aA"/><use transform="matrix(0.05,0,0,0.05,43.45,0)" xlink:href="#ap"/><use transform="matrix(0.05,0,0,0.05,53.45,0)" xlink:href="#at"/><use transform="matrix(0.05,0,0,0.05,58.45,0)" xlink:href="#al"/><use transform="matrix(0.05,0,0,0.05,68.45,0)" xlink:href="#aM"/><use transform="matrix(0.05,0,0,0.05,78.45,0)" xlink:href="#as"/><use transform="matrix(0.05,0,0,0.05,90.45,0)" xlink:href="#at"/><use transform="matrix(0.05,0,0,0.05,95.45,0)" xlink:href="#az"/><use transform="matrix(0.05,0,0,0.05,105.45,0)" xlink:href="#aH"/><use transform="matrix(0.05,0,0,0.05,114.45,0)" xlink:href="#aU"/><use transform="matrix(0.05,0,0,0.05,123.45,0)" xlink:href="#aI"/><use transform="matrix(0.05,0,0,0.05,129.4,0)" xlink:href="#aJ"/></g><path d="M143 4C61 4 22-44 18-125c-5-107 100-154 193-111 17 8 29 25 37 43l-32 9c-13-25-37-40-76-40-61 0-88 39-88 99 0 61 29 100 91 101 35 0 62-11 79-27v-45h-74v-28h105v86C228-13 192 4 143 4" id="aV"/><g id="G"><use transform="matrix(0.05,0,0,0.05,0,0)" xlink:href="#an"/><use transform="matrix(0.05,0,0,0.05,10.5,0)" xlink:href="#aV"/><use transform="matrix(0.05,0,0,0.05,24.5,0)" xlink:href="#al"/><use transform="matrix(0.05,0,0,0.05,34.5,0)" xlink:href="#at"/><use transform="matrix(0.05,0,0,0.05,39.5,0)" xlink:href="#aM"/><use transform="matrix(0.05,0,0,0.05,49.5,0)" xlink:href="#ax"/><use transform="matrix(0.05,0,0,0.05,61.5,0)" xlink:href="#am"/><use transform="matrix(0.05,0,0,0.05,67.45,0)" xlink:href="#au"/><use transform="matrix(0.05,0,0,0.05,71.4,0)" xlink:href="#aH"/><use transform="matrix(0.05,0,0,0.05,80.4,0)" xlink:href="#al"/><use transform="matrix(0.05,0,0,0.05,90.4,0)" xlink:href="#aI"/><use transform="matrix(0.05,0,0,0.05,96.35000000000001,0)" xlink:href="#aJ"/></g><g id="H"><use transform="matrix(0.05,0,0,0.05,0,0)" xlink:href="#aD"/><use transform="matrix(0.05,0,0,0.05,12,0)" xlink:href="#aC"/><use transform="matrix(0.05,0,0,0.05,15.949999999999998,0)" xlink:href="#au"/><use transform="matrix(0.05,0,0,0.05,19.9,0)" xlink:href="#aq"/><use transform="matrix(0.05,0,0,0.05,34.85,0)" xlink:href="#al"/><use transform="matrix(0.05,0,0,0.05,44.85,0)" xlink:href="#av"/><use transform="matrix(0.05,0,0,0.05,54.85,0)" xlink:href="#at"/></g><g id="I"><use transform="matrix(0.05,0,0,0.05,0,0)" xlink:href="#an"/><use transform="matrix(0.05,0,0,0.05,10.5,0)" xlink:href="#aS"/><use transform="matrix(0.05,0,0,0.05,23.450000000000003,0)" xlink:href="#al"/><use transform="matrix(0.05,0,0,0.05,33.45,0)" xlink:href="#ak"/><use transform="matrix(0.05,0,0,0.05,42.45,0)" xlink:href="#aH"/><use transform="matrix(0.05,0,0,0.05,51.45,0)" xlink:href="#am"/><use transform="matrix(0.05,0,0,0.05,57.400000000000006,0)" xlink:href="#au"/><use transform="matrix(0.05,0,0,0.05,61.35,0)" xlink:href="#aO"/><use transform="matrix(0.05,0,0,0.05,71.35000000000001,0)" xlink:href="#at"/><use transform="matrix(0.05,0,0,0.05,76.35000000000001,0)" xlink:href="#au"/><use transform="matrix(0.05,0,0,0.05,80.30000000000001,0)" xlink:href="#az"/><use transform="matrix(0.05,0,0,0.05,90.30000000000001,0)" xlink:href="#av"/><use transform="matrix(0.05,0,0,0.05,100.30000000000001,0)" xlink:href="#ar"/></g><g id="J"><use transform="matrix(0.05,0,0,0.05,0,0)" xlink:href="#an"/><use transform="matrix(0.05,0,0,0.05,10.5,0)" xlink:href="#ax"/><use transform="matrix(0.05,0,0,0.05,22.5,0)" xlink:href="#am"/><use transform="matrix(0.05,0,0,0.05,28.450000000000003,0)" xlink:href="#au"/><use transform="matrix(0.05,0,0,0.05,32.4,0)" xlink:href="#aH"/><use transform="matrix(0.05,0,0,0.05,41.4,0)" xlink:href="#al"/><use transform="matrix(0.05,0,0,0.05,51.400000000000006,0)" xlink:href="#ar"/></g><g id="K"><use transform="matrix(0.05,0,0,0.05,0,0)" xlink:href="#aT"/><use transform="matrix(0.05,0,0,0.05,10.950000000000001,0)" xlink:href="#aC"/><use transform="matrix(0.05,0,0,0.05,14.9,0)" xlink:href="#az"/><use transform="matrix(0.05,0,0,0.05,24.900000000000002,0)" xlink:href="#ap"/><use transform="matrix(0.05,0,0,0.05,34.900000000000006,0)" xlink:href="#at"/></g><g id="L"><use transform="matrix(0.05,0,0,0.05,0,0)" xlink:href="#an"/><use transform="matrix(0.05,0,0,0.05,10.5,0)" xlink:href="#aK"/><use transform="matrix(0.05,0,0,0.05,23.450000000000003,0)" xlink:href="#ap"/><use transform="matrix(0.05,0,0,0.05,33.45,0)" xlink:href="#at"/><use transform="matrix(0.05,0,0,0.05,38.45,0)" xlink:href="#al"/><use transform="matrix(0.05,0,0,0.05,48.45,0)" xlink:href="#aw"/><use transform="matrix(0.05,0,0,0.05,58.45,0)" xlink:href="#az"/><use transform="matrix(0.05,0,0,0.05,68.45,0)" xlink:href="#am"/><use transform="matrix(0.05,0,0,0.05,74.4,0)" xlink:href="#aQ"/><use transform="matrix(0.05,0,0,0.05,83.4,0)" xlink:href="#ar"/></g><g id="M"><use transform="matrix(0.05,0,0,0.05,0,0)" xlink:href="#an"/><use transform="matrix(0.05,0,0,0.05,10.5,0)" xlink:href="#ax"/><use transform="matrix(0.05,0,0,0.05,22.5,0)" xlink:href="#au"/><use transform="matrix(0.05,0,0,0.05,26.450000000000003,0)" xlink:href="#aH"/><use transform="matrix(0.05,0,0,0.05,35.45,0)" xlink:href="#at"/><use transform="matrix(0.05,0,0,0.05,40.45,0)" xlink:href="#aE"/><use transform="matrix(0.05,0,0,0.05,50.45,0)" xlink:href="#am"/><use transform="matrix(0.05,0,0,0.05,56.400000000000006,0)" xlink:href="#al"/><use transform="matrix(0.05,0,0,0.05,66.4,0)" xlink:href="#ar"/></g><g id="N"><use transform="matrix(0.05,0,0,0.05,0,0)" xlink:href="#an"/><use transform="matrix(0.05,0,0,0.05,10.5,0)" xlink:href="#as"/><use transform="matrix(0.05,0,0,0.05,22.5,0)" xlink:href="#aF"/><use transform="matrix(0.05,0,0,0.05,32.5,0)" xlink:href="#az"/><use transform="matrix(0.05,0,0,0.05,42.5,0)" xlink:href="#ay"/><use transform="matrix(0.05,0,0,0.05,55.45,0)" xlink:href="#aM"/><use transform="matrix(0.05,0,0,0.05,65.45,0)" xlink:href="#am"/><use transform="matrix(0.05,0,0,0.05,71.4,0)" xlink:href="#al"/><use transform="matrix(0.05,0,0,0.05,81.4,0)" xlink:href="#aH"/><use transform="matrix(0.05,0,0,0.05,90.4,0)" xlink:href="#au"/><use transform="matrix(0.05,0,0,0.05,94.35000000000001,0)" xlink:href="#aO"/><use transform="matrix(0.05,0,0,0.05,104.35000000000001,0)" xlink:href="#al"/><use transform="matrix(0.05,0,0,0.05,114.35000000000001,0)" xlink:href="#aI"/><use transform="matrix(0.05,0,0,0.05,120.30000000000001,0)" xlink:href="#aJ"/></g><path d="M108 0H70L1-190h34L89-25l56-165h34" id="aW"/><path d="M115-194c53 0 69 39 70 98 0 66-23 100-70 100C84 3 66-7 56-30L54 0H23l1-261h32v101c10-23 28-34 59-34zm-8 174c40 0 45-34 45-75 0-40-5-75-45-74-42 0-51 32-51 76 0 43 10 73 51 73" id="aX"/><g id="O"><use transform="matrix(0.05,0,0,0.05,0,0)" xlink:href="#an"/><use transform="matrix(0.05,0,0,0.05,10.5,0)" xlink:href="#aK"/><use transform="matrix(0.05,0,0,0.05,23.450000000000003,0)" xlink:href="#aF"/><use transform="matrix(0.05,0,0,0.05,33.45,0)" xlink:href="#al"/><use transform="matrix(0.05,0,0,0.05,43.45,0)" xlink:href="#aH"/><use transform="matrix(0.05,0,0,0.05,52.45,0)" xlink:href="#aU"/><use transform="matrix(0.05,0,0,0.05,61.45,0)" xlink:href="#aM"/><use transform="matrix(0.05,0,0,0.05,71.45,0)" xlink:href="#au"/><use transform="matrix(0.05,0,0,0.05,75.4,0)" xlink:href="#aG"/><use transform="matrix(0.05,0,0,0.05,80.4,0)" xlink:href="#aM"/><use transform="matrix(0.05,0,0,0.05,90.4,0)" xlink:href="#ap"/><use transform="matrix(0.05,0,0,0.05,100.4,0)" xlink:href="#aW"/><use transform="matrix(0.05,0,0,0.05,109.4,0)" xlink:href="#ap"/><use transform="matrix(0.05,0,0,0.05,119.4,0)" xlink:href="#au"/><use transform="matrix(0.05,0,0,0.05,123.35000000000001,0)" xlink:href="#aC"/><use transform="matrix(0.05,0,0,0.05,127.30000000000001,0)" xlink:href="#ap"/><use transform="matrix(0.05,0,0,0.05,137.3,0)" xlink:href="#aX"/><use transform="matrix(0.05,0,0,0.05,147.3,0)" xlink:href="#aC"/><use transform="matrix(0.05,0,0,0.05,151.25,0)" xlink:href="#al"/><use transform="matrix(0.05,0,0,0.05,161.25,0)" xlink:href="#aI"/><use transform="matrix(0.05,0,0,0.05,167.2,0)" xlink:href="#aJ"/></g><g id="P"><use transform="matrix(0.05,0,0,0.05,0,0)" xlink:href="#aD"/><use transform="matrix(0.05,0,0,0.05,12,0)" xlink:href="#aC"/><use transform="matrix(0.05,0,0,0.05,15.949999999999998,0)" xlink:href="#au"/><use transform="matrix(0.05,0,0,0.05,19.9,0)" xlink:href="#aq"/><use transform="matrix(0.05,0,0,0.05,34.85,0)" xlink:href="#al"/><use transform="matrix(0.05,0,0,0.05,44.85,0)" xlink:href="#av"/><use transform="matrix(0.05,0,0,0.05,54.85,0)" xlink:href="#at"/><use transform="matrix(0.05,0,0,0.05,59.85,0)" xlink:href="#aM"/><use transform="matrix(0.05,0,0,0.05,69.85,0)" xlink:href="#aF"/><use transform="matrix(0.05,0,0,0.05,79.85,0)" xlink:href="#ap"/><use transform="matrix(0.05,0,0,0.05,89.85,0)" xlink:href="#ak"/><use transform="matrix(0.05,0,0,0.05,98.85,0)" xlink:href="#aM"/><use transform="matrix(0.05,0,0,0.05,108.84999999999998,0)" xlink:href="#aP"/><use transform="matrix(0.05,0,0,0.05,113.84999999999998,0)" xlink:href="#av"/><use transform="matrix(0.05,0,0,0.05,123.84999999999998,0)" xlink:href="#aw"/><use transform="matrix(0.05,0,0,0.05,133.85,0)" xlink:href="#am"/><use transform="matrix(0.05,0,0,0.05,139.79999999999998,0)" xlink:href="#al"/><use transform="matrix(0.05,0,0,0.05,149.79999999999998,0)" xlink:href="#aA"/><use transform="matrix(0.05,0,0,0.05,159.79999999999998,0)" xlink:href="#au"/><use transform="matrix(0.05,0,0,0.05,163.74999999999997,0)" xlink:href="#al"/><use transform="matrix(0.05,0,0,0.05,173.74999999999997,0)" xlink:href="#av"/><use transform="matrix(0.05,0,0,0.05,183.74999999999997,0)" xlink:href="#at"/></g><g id="Q"><use transform="matrix(0.05,0,0,0.05,0,0)" xlink:href="#an"/><use transform="matrix(0.05,0,0,0.05,10.5,0)" xlink:href="#au"/><use transform="matrix(0.05,0,0,0.05,14.449999999999998,0)" xlink:href="#ak"/><use transform="matrix(0.05,0,0,0.05,23.45,0)" xlink:href="#aM"/><use transform="matrix(0.05,0,0,0.05,33.45,0)" xlink:href="#aO"/><use transform="matrix(0.05,0,0,0.05,43.45,0)" xlink:href="#aE"/><use transform="matrix(0.05,0,0,0.05,53.45,0)" xlink:href="#aX"/><use transform="matrix(0.05,0,0,0.05,63.45,0)" xlink:href="#aC"/><use transform="matrix(0.05,0,0,0.05,67.4,0)" xlink:href="#au"/><use transform="matrix(0.05,0,0,0.05,71.35000000000001,0)" xlink:href="#aH"/><use transform="matrix(0.05,0,0,0.05,80.35000000000001,0)" xlink:href="#ar"/></g><path d="M160-131c35 5 61 23 61 61C221 17 115-2 30 0v-248c76 3 177-17 177 60 0 33-19 50-47 57zm-97-11c50-1 110 9 110-42 0-47-63-36-110-37v79zm0 115c55-2 124 14 124-45 0-56-70-42-124-44v89" id="aY"/><g id="R"><use transform="matrix(0.05,0,0,0.05,0,0)" xlink:href="#aY"/><use transform="matrix(0.05,0,0,0.05,12,0)" xlink:href="#az"/><use transform="matrix(0.05,0,0,0.05,22,0)" xlink:href="#az"/><use transform="matrix(0.05,0,0,0.05,32,0)" xlink:href="#aC"/><use transform="matrix(0.05,0,0,0.05,35.95,0)" xlink:href="#al"/><use transform="matrix(0.05,0,0,0.05,45.95,0)" xlink:href="#ap"/><use transform="matrix(0.05,0,0,0.05,55.95,0)" xlink:href="#av"/></g><path d="M140-251c81 0 123 46 123 126C263-53 228-8 163 1c7 30 30 48 69 40v23c-55 16-95-15-103-61C56-3 17-48 17-125c0-80 42-126 123-126zm0 227c63 0 89-41 89-101s-29-99-89-99c-61 0-89 39-89 99S79-25 140-24" id="aZ"/><g id="S"><use transform="matrix(0.05,0,0,0.05,0,0)" xlink:href="#an"/><use transform="matrix(0.05,0,0,0.05,10.5,0)" xlink:href="#aZ"/><use transform="matrix(0.05,0,0,0.05,24.5,0)" xlink:href="#aE"/><use transform="matrix(0.05,0,0,0.05,34.5,0)" xlink:href="#ap"/><use transform="matrix(0.05,0,0,0.05,44.5,0)" xlink:href="#av"/><use transform="matrix(0.05,0,0,0.05,54.5,0)" xlink:href="#at"/><use transform="matrix(0.05,0,0,0.05,59.5,0)" xlink:href="#au"/><use transform="matrix(0.05,0,0,0.05,63.45,0)" xlink:href="#at"/><use transform="matrix(0.05,0,0,0.05,68.45,0)" xlink:href="#aQ"/><use transform="matrix(0.05,0,0,0.05,77.45,0)" xlink:href="#ar"/></g><g id="T"><use transform="matrix(0.05,0,0,0.05,0,0)" xlink:href="#aR"/><use transform="matrix(0.05,0,0,0.05,12.950000000000001,0)" xlink:href="#al"/><use transform="matrix(0.05,0,0,0.05,22.950000000000003,0)" xlink:href="#ak"/><use transform="matrix(0.05,0,0,0.05,31.950000000000003,0)" xlink:href="#at"/><use transform="matrix(0.05,0,0,0.05,36.95,0)" xlink:href="#ap"/><use transform="matrix(0.05,0,0,0.05,46.95,0)" xlink:href="#aE"/><use transform="matrix(0.05,0,0,0.05,56.95,0)" xlink:href="#am"/><use transform="matrix(0.05,0,0,0.05,62.900000000000006,0)" xlink:href="#ap"/><use transform="matrix(0.05,0,0,0.05,72.9,0)" xlink:href="#av"/><use transform="matrix(0.05,0,0,0.05,82.9,0)" xlink:href="#at"/><use transform="matrix(0.05,0,0,0.05,87.9,0)" xlink:href="#aM"/><use transform="matrix(0.05,0,0,0.05,97.9,0)" xlink:href="#aF"/><use transform="matrix(0.05,0,0,0.05,107.9,0)" xlink:href="#ap"/><use transform="matrix(0.05,0,0,0.05,117.9,0)" xlink:href="#ak"/><use transform="matrix(0.05,0,0,0.05,126.9,0)" xlink:href="#aM"/><use transform="matrix(0.05,0,0,0.05,136.9,0)" xlink:href="#aP"/><use transform="matrix(0.05,0,0,0.05,141.9,0)" xlink:href="#av"/><use transform="matrix(0.05,0,0,0.05,151.9,0)" xlink:href="#aw"/><use transform="matrix(0.05,0,0,0.05,161.9,0)" xlink:href="#am"/><use transform="matrix(0.05,0,0,0.05,167.85,0)" xlink:href="#al"/><use transform="matrix(0.05,0,0,0.05,177.85,0)" xlink:href="#aA"/><use transform="matrix(0.05,0,0,0.05,187.85,0)" xlink:href="#au"/><use transform="matrix(0.05,0,0,0.05,191.79999999999998,0)" xlink:href="#al"/><use transform="matrix(0.05,0,0,0.05,201.79999999999998,0)" xlink:href="#av"/><use transform="matrix(0.05,0,0,0.05,211.79999999999995,0)" xlink:href="#at"/></g><g id="U"><use transform="matrix(0.05,0,0,0.05,0,0)" xlink:href="#aP"/><use transform="matrix(0.05,0,0,0.05,5,0)" xlink:href="#av"/><use transform="matrix(0.05,0,0,0.05,15,0)" xlink:href="#aw"/><use transform="matrix(0.05,0,0,0.05,25,0)" xlink:href="#am"/><use transform="matrix(0.05,0,0,0.05,30.950000000000003,0)" xlink:href="#al"/><use transform="matrix(0.05,0,0,0.05,40.95,0)" xlink:href="#aA"/><use transform="matrix(0.05,0,0,0.05,50.95,0)" xlink:href="#au"/><use transform="matrix(0.05,0,0,0.05,54.900000000000006,0)" xlink:href="#al"/><use transform="matrix(0.05,0,0,0.05,64.9,0)" xlink:href="#av"/><use transform="matrix(0.05,0,0,0.05,74.9,0)" xlink:href="#at"/></g><g id="V"><use transform="matrix(0.05,0,0,0.05,0,0)" xlink:href="#an"/><use transform="matrix(0.05,0,0,0.05,10.5,0)" xlink:href="#aj"/><use transform="matrix(0.05,0,0,0.05,23.450000000000003,0)" xlink:href="#av"/><use transform="matrix(0.05,0,0,0.05,33.45,0)" xlink:href="#au"/><use transform="matrix(0.05,0,0,0.05,37.400000000000006,0)" xlink:href="#at"/><use transform="matrix(0.05,0,0,0.05,42.400000000000006,0)" xlink:href="#ar"/></g><g id="W"><use transform="matrix(0.05,0,0,0.05,0,0)" xlink:href="#an"/><use transform="matrix(0.05,0,0,0.05,10.5,0)" xlink:href="#ax"/><use transform="matrix(0.05,0,0,0.05,22.5,0)" xlink:href="#am"/><use transform="matrix(0.05,0,0,0.05,28.450000000000003,0)" xlink:href="#au"/><use transform="matrix(0.05,0,0,0.05,32.4,0)" xlink:href="#aH"/><use transform="matrix(0.05,0,0,0.05,41.4,0)" xlink:href="#al"/><use transform="matrix(0.05,0,0,0.05,51.400000000000006,0)" xlink:href="#aM"/><use transform="matrix(0.05,0,0,0.05,61.400000000000006,0)" xlink:href="#aO"/><use transform="matrix(0.05,0,0,0.05,71.4,0)" xlink:href="#al"/><use transform="matrix(0.05,0,0,0.05,81.4,0)" xlink:href="#am"/><use transform="matrix(0.05,0,0,0.05,87.35000000000001,0)" xlink:href="#aM"/><use transform="matrix(0.05,0,0,0.05,97.35000000000001,0)" xlink:href="#aj"/><use transform="matrix(0.05,0,0,0.05,110.30000000000001,0)" xlink:href="#av"/><use transform="matrix(0.05,0,0,0.05,120.30000000000001,0)" xlink:href="#au"/><use transform="matrix(0.05,0,0,0.05,124.25,0)" xlink:href="#at"/><use transform="matrix(0.05,0,0,0.05,129.25,0)" xlink:href="#ar"/></g><g id="X"><use transform="matrix(0.05,0,0,0.05,0,0)" xlink:href="#an"/><use transform="matrix(0.05,0,0,0.05,10.5,0)" xlink:href="#ak"/><use transform="matrix(0.05,0,0,0.05,19.5,0)" xlink:href="#az"/><use transform="matrix(0.05,0,0,0.05,29.5,0)" xlink:href="#aC"/><use transform="matrix(0.05,0,0,0.05,33.45,0)" xlink:href="#aA"/><use transform="matrix(0.05,0,0,0.05,43.45,0)" xlink:href="#az"/><use transform="matrix(0.05,0,0,0.05,53.45,0)" xlink:href="#aE"/><use transform="matrix(0.05,0,0,0.05,63.45,0)" xlink:href="#at"/><use transform="matrix(0.05,0,0,0.05,68.45,0)" xlink:href="#aM"/><use transform="matrix(0.05,0,0,0.05,78.45,0)" xlink:href="#at"/><use transform="matrix(0.05,0,0,0.05,83.45,0)" xlink:href="#aF"/><use transform="matrix(0.05,0,0,0.05,93.45,0)" xlink:href="#am"/><use transform="matrix(0.05,0,0,0.05,99.4,0)" xlink:href="#al"/><use transform="matrix(0.05,0,0,0.05,109.4,0)" xlink:href="#ak"/><use transform="matrix(0.05,0,0,0.05,118.4,0)" xlink:href="#aF"/><use transform="matrix(0.05,0,0,0.05,128.4,0)" xlink:href="#az"/><use transform="matrix(0.05,0,0,0.05,138.4,0)" xlink:href="#aC"/><use transform="matrix(0.05,0,0,0.05,142.35,0)" xlink:href="#aA"/><use transform="matrix(0.05,0,0,0.05,152.35,0)" xlink:href="#ar"/></g><g id="Y"><use transform="matrix(0.05,0,0,0.05,0,0)" xlink:href="#an"/><use transform="matrix(0.05,0,0,0.05,10.5,0)" xlink:href="#aj"/><use transform="matrix(0.05,0,0,0.05,23.450000000000003,0)" xlink:href="#aO"/><use transform="matrix(0.05,0,0,0.05,33.45,0)" xlink:href="#aA"/><use transform="matrix(0.05,0,0,0.05,43.45,0)" xlink:href="#ap"/><use transform="matrix(0.05,0,0,0.05,53.45,0)" xlink:href="#at"/><use transform="matrix(0.05,0,0,0.05,58.45,0)" xlink:href="#al"/><use transform="matrix(0.05,0,0,0.05,68.45,0)" xlink:href="#aI"/><use transform="matrix(0.05,0,0,0.05,74.4,0)" xlink:href="#aJ"/></g><g id="Z"><use transform="matrix(0.05,0,0,0.05,0,0)" xlink:href="#aR"/><use transform="matrix(0.05,0,0,0.05,12.950000000000001,0)" xlink:href="#al"/><use transform="matrix(0.05,0,0,0.05,22.950000000000003,0)" xlink:href="#ak"/><use transform="matrix(0.05,0,0,0.05,31.950000000000003,0)" xlink:href="#at"/><use transform="matrix(0.05,0,0,0.05,36.95,0)" xlink:href="#ap"/><use transform="matrix(0.05,0,0,0.05,46.95,0)" xlink:href="#aE"/><use transform="matrix(0.05,0,0,0.05,56.95,0)" xlink:href="#am"/><use transform="matrix(0.05,0,0,0.05,62.900000000000006,0)" xlink:href="#ap"/><use transform="matrix(0.05,0,0,0.05,72.9,0)" xlink:href="#av"/><use transform="matrix(0.05,0,0,0.05,82.9,0)" xlink:href="#at"/></g><g id="aa"><use transform="matrix(0.05,0,0,0.05,0,0)" xlink:href="#an"/><use transform="matrix(0.05,0,0,0.05,10.5,0)" xlink:href="#aP"/><use transform="matrix(0.05,0,0,0.05,15.5,0)" xlink:href="#aq"/><use transform="matrix(0.05,0,0,0.05,30.450000000000003,0)" xlink:href="#ap"/><use transform="matrix(0.05,0,0,0.05,40.45,0)" xlink:href="#aw"/><use transform="matrix(0.05,0,0,0.05,50.45,0)" xlink:href="#al"/><use transform="matrix(0.05,0,0,0.05,60.45,0)" xlink:href="#ar"/></g><g id="ab"><use transform="matrix(0.05,0,0,0.05,0,0)" xlink:href="#an"/><use transform="matrix(0.05,0,0,0.05,10.5,0)" xlink:href="#aK"/><use transform="matrix(0.05,0,0,0.05,23.450000000000003,0)" xlink:href="#aF"/><use transform="matrix(0.05,0,0,0.05,33.45,0)" xlink:href="#ap"/><use transform="matrix(0.05,0,0,0.05,43.45,0)" xlink:href="#av"/><use transform="matrix(0.05,0,0,0.05,53.45,0)" xlink:href="#aw"/><use transform="matrix(0.05,0,0,0.05,63.45,0)" xlink:href="#al"/><use transform="matrix(0.05,0,0,0.05,73.45,0)" xlink:href="#aM"/><use transform="matrix(0.05,0,0,0.05,83.45,0)" xlink:href="#aR"/><use transform="matrix(0.05,0,0,0.05,96.4,0)" xlink:href="#al"/><use transform="matrix(0.05,0,0,0.05,106.4,0)" xlink:href="#aH"/><use transform="matrix(0.05,0,0,0.05,115.4,0)" xlink:href="#au"/><use transform="matrix(0.05,0,0,0.05,119.35000000000001,0)" xlink:href="#aO"/><use transform="matrix(0.05,0,0,0.05,129.35000000000002,0)" xlink:href="#al"/></g><g id="ac"><use transform="matrix(0.05,0,0,0.05,0,0)" xlink:href="#an"/><use transform="matrix(0.05,0,0,0.05,10.5,0)" xlink:href="#aj"/><use transform="matrix(0.05,0,0,0.05,23.450000000000003,0)" xlink:href="#aO"/><use transform="matrix(0.05,0,0,0.05,33.45,0)" xlink:href="#aA"/><use transform="matrix(0.05,0,0,0.05,43.45,0)" xlink:href="#ap"/><use transform="matrix(0.05,0,0,0.05,53.45,0)" xlink:href="#at"/><use transform="matrix(0.05,0,0,0.05,58.45,0)" xlink:href="#al"/><use transform="matrix(0.05,0,0,0.05,68.45,0)" xlink:href="#aM"/><use transform="matrix(0.05,0,0,0.05,78.45,0)" xlink:href="#as"/><use transform="matrix(0.05,0,0,0.05,90.45,0)" xlink:href="#at"/><use transform="matrix(0.05,0,0,0.05,95.45,0)" xlink:href="#az"/><use transform="matrix(0.05,0,0,0.05,105.45,0)" xlink:href="#aH"/><use transform="matrix(0.05,0,0,0.05,114.45,0)" xlink:href="#aU"/></g><g id="ad"><use transform="matrix(0.05,0,0,0.05,0,0)" xlink:href="#aS"/><use transform="matrix(0.05,0,0,0.05,12.950000000000001,0)" xlink:href="#al"/><use transform="matrix(0.05,0,0,0.05,22.950000000000003,0)" xlink:href="#aC"/><use transform="matrix(0.05,0,0,0.05,26.900000000000002,0)" xlink:href="#au"/><use transform="matrix(0.05,0,0,0.05,30.85,0)" xlink:href="#aW"/><use transform="matrix(0.05,0,0,0.05,39.85,0)" xlink:href="#al"/><use transform="matrix(0.05,0,0,0.05,49.85,0)" xlink:href="#am"/><use transform="matrix(0.05,0,0,0.05,55.800000000000004,0)" xlink:href="#aQ"/></g><path d="M137 0h-34L2-248h35l83 218 83-218h36" id="ba"/><g id="ae"><use transform="matrix(0.05,0,0,0.05,0,0)" xlink:href="#an"/><use transform="matrix(0.05,0,0,0.05,10.5,0)" xlink:href="#ba"/><use transform="matrix(0.05,0,0,0.05,21.5,0)" xlink:href="#al"/><use transform="matrix(0.05,0,0,0.05,31.5,0)" xlink:href="#aF"/><use transform="matrix(0.05,0,0,0.05,41.5,0)" xlink:href="#au"/><use transform="matrix(0.05,0,0,0.05,45.45,0)" xlink:href="#aH"/><use transform="matrix(0.05,0,0,0.05,54.45,0)" xlink:href="#aE"/><use transform="matrix(0.05,0,0,0.05,64.45,0)" xlink:href="#aC"/><use transform="matrix(0.05,0,0,0.05,68.4,0)" xlink:href="#al"/><use transform="matrix(0.05,0,0,0.05,78.4,0)" xlink:href="#ar"/></g><g id="af"><use transform="matrix(0.05,0,0,0.05,0,0)" xlink:href="#an"/><use transform="matrix(0.05,0,0,0.05,10.5,0)" xlink:href="#aK"/><use transform="matrix(0.05,0,0,0.05,23.450000000000003,0)" xlink:href="#az"/><use transform="matrix(0.05,0,0,0.05,33.45,0)" xlink:href="#av"/><use transform="matrix(0.05,0,0,0.05,43.45,0)" xlink:href="#ak"/><use transform="matrix(0.05,0,0,0.05,52.45,0)" xlink:href="#aE"/><use transform="matrix(0.05,0,0,0.05,62.45,0)" xlink:href="#aC"/><use transform="matrix(0.05,0,0,0.05,66.4,0)" xlink:href="#at"/><use transform="matrix(0.05,0,0,0.05,71.4,0)" xlink:href="#aM"/><use transform="matrix(0.05,0,0,0.05,81.4,0)" xlink:href="#aD"/><use transform="matrix(0.05,0,0,0.05,93.4,0)" xlink:href="#aA"/><use transform="matrix(0.05,0,0,0.05,103.4,0)" xlink:href="#am"/><use transform="matrix(0.05,0,0,0.05,109.35000000000001,0)" xlink:href="#al"/><use transform="matrix(0.05,0,0,0.05,119.35000000000001,0)" xlink:href="#ak"/><use transform="matrix(0.05,0,0,0.05,128.35000000000002,0)" xlink:href="#ak"/><use transform="matrix(0.05,0,0,0.05,137.35000000000002,0)" xlink:href="#aI"/><use transform="matrix(0.05,0,0,0.05,143.3,0)" xlink:href="#aJ"/></g><path d="M27 0v-27h64v-190l-56 39v-29l58-41h29v221h61V0H27" id="bb"/><path d="M33 0v-38h34V0H33" id="bc"/><path d="M80-196l47-18 7 23-49 13 32 44-20 13-27-46-27 45-21-12 33-44-49-13 8-23 47 19-2-53h23" id="bd"/><g id="ag"><use transform="matrix(0.07469135802469135,0,0,0.07469135802469135,0,0)" xlink:href="#bb"/><use transform="matrix(0.07469135802469135,0,0,0.07469135802469135,14.938271604938269,0)" xlink:href="#bc"/><use transform="matrix(0.07469135802469135,0,0,0.07469135802469135,22.407407407407405,0)" xlink:href="#bc"/><use transform="matrix(0.07469135802469135,0,0,0.07469135802469135,29.876543209876537,0)" xlink:href="#bd"/></g><use transform="matrix(0.07469135802469135,0,0,0.07469135802469135,0,0)" xlink:href="#bb" id="ah"/><use transform="matrix(0.07469135802469135,0,0,0.07469135802469135,0,0)" xlink:href="#bd" id="ai"/></defs></g></svg>